<?xml version="1.0" encoding="utf-8"?>
<!-- Generator: Adobe Illustrator 23.0.2, SVG Export Plug-In . SVG Version: 6.00 Build 0)  -->
<svg version="1.1" id="Camada_1" xmlns="http://www.w3.org/2000/svg" xmlns:xlink="http://www.w3.org/1999/xlink" x="0px" y="0px"
	 viewBox="0 0 199.6 282" style="enable-background:new 0 0 199.6 282;" xml:space="preserve">
<style type="text/css">
	.st0{fill:#F39200;}
	.st1{fill:#575756;}
	.st2{fill:none;stroke:#FFFFFF;stroke-width:4;stroke-linecap:round;stroke-linejoin:round;stroke-miterlimit:10;}
	.st3{fill:#FFFFFF;}
	.st4{fill:none;stroke:#FFFFFF;stroke-width:1.9628;stroke-linecap:round;stroke-linejoin:round;stroke-miterlimit:10;}
</style>
<path class="st0" d="M102.4,196.2L102.4,196.2c-45.4,0-82.2-36.8-82.2-82.2v0c0-45.4,36.8-82.2,82.2-82.2h0
	c45.4,0,82.2,36.8,82.2,82.2v0C184.6,159.4,147.8,196.2,102.4,196.2z"/>
<g>
	<path class="st1" d="M64.4,237.9l-0.7,1.7h-1.3l3.2-7.3h1.3l3.2,7.3h-1.3l-0.7-1.7H64.4z M67.6,236.8l-1.3-3l-1.3,3H67.6z"/>
	<path class="st1" d="M71.1,239.6v-7.3h1.2v6.1h3.3v1.2H71.1z"/>
	<path class="st1" d="M77,232.3h1.2v7.3H77V232.3z"/>
	<path class="st1" d="M81.5,239.6h-1.2v-7.3h1.9l2.2,4.6l2.2-4.6h1.9v7.3h-1.2v-5.7l-2.5,5.1H84l-2.5-5.1V239.6z"/>
	<path class="st1" d="M95.6,232.3v1.2h-3.9v1.9h3.5v1.1h-3.5v2h4v1.2h-5.2v-7.3H95.6z"/>
	<path class="st1" d="M102.8,232.3h1.2v7.3h-1.3l-4.1-5.3v5.3h-1.2v-7.3h1.2l4.2,5.4V232.3z"/>
	<path class="st1" d="M108.8,233.4v6.2h-1.2v-6.2h-2.2v-1.1h5.7v1.1H108.8z"/>
	<path class="st1" d="M112.8,237.9l-0.7,1.7h-1.3l3.2-7.3h1.3l3.2,7.3h-1.3l-0.7-1.7H112.8z M116,236.8l-1.3-3l-1.3,3H116z"/>
	<path class="st1" d="M122.9,238.4c0.4,0,0.8-0.1,1.1-0.2c0.3-0.1,0.6-0.4,1-0.7l0.8,0.8c-0.7,0.8-1.6,1.2-2.6,1.3l-0.2,0.3
		c0.5,0.1,0.7,0.3,0.7,0.8c0,0.3-0.1,0.5-0.3,0.7c-0.2,0.2-0.5,0.3-0.8,0.3s-0.6-0.1-0.9-0.2l0.3-0.6c0.1,0.1,0.3,0.1,0.4,0.1
		c0.1,0,0.2,0,0.3-0.1c0.1-0.1,0.1-0.2,0.1-0.3s0-0.2-0.1-0.3c-0.1-0.1-0.2-0.1-0.3-0.1c-0.1,0-0.2,0-0.3,0.1l0.3-0.7
		c-1-0.1-1.7-0.5-2.3-1.2s-0.9-1.6-0.9-2.6s0.4-1.9,1.1-2.6c0.7-0.7,1.7-1.1,2.8-1.1s2.1,0.4,2.8,1.3l-0.8,0.9
		c-0.3-0.3-0.7-0.6-1-0.7c-0.3-0.1-0.7-0.2-1.1-0.2c-0.7,0-1.4,0.2-1.9,0.7c-0.5,0.5-0.8,1.1-0.8,1.8c0,0.7,0.2,1.4,0.7,1.9
		S122.2,238.4,122.9,238.4z"/>
	<path class="st1" d="M130.6,232.3l3.2,7.3h-1.4l-0.7-1.7h-3.5l-0.7,1.7h-1.3l3.2-7.3H130.6z M130.8,231.7c-0.2,0-0.4-0.1-0.8-0.2
		c-0.3-0.2-0.5-0.2-0.6-0.2c-0.2,0-0.3,0.2-0.4,0.5h-0.8c0-0.4,0.1-0.7,0.2-1c0.2-0.3,0.4-0.4,0.7-0.4c0.2,0,0.4,0.1,0.8,0.2
		c0.3,0.2,0.6,0.2,0.7,0.2c0.2,0,0.3-0.2,0.3-0.5h0.8C131.7,231.2,131.4,231.7,130.8,231.7z M131.2,236.8L130,234l-1.2,2.8H131.2z"
		/>
	<path class="st1" d="M140.9,238.6c-0.7,0.7-1.6,1.1-2.7,1.1c-1.1,0-2-0.4-2.7-1.1c-0.7-0.7-1.1-1.6-1.1-2.7s0.4-2,1.1-2.7
		c0.7-0.7,1.6-1.1,2.7-1.1c1.1,0,2,0.4,2.7,1.1c0.7,0.7,1.1,1.6,1.1,2.7S141.7,237.8,140.9,238.6z M140,234
		c-0.5-0.5-1.1-0.8-1.8-0.8s-1.3,0.3-1.8,0.8c-0.5,0.5-0.7,1.1-0.7,1.9s0.2,1.4,0.7,1.9c0.5,0.5,1.1,0.8,1.8,0.8s1.3-0.3,1.8-0.8
		s0.7-1.1,0.7-1.9S140.5,234.5,140,234z"/>
	<path class="st1" d="M38.5,250.5l-0.7,1.7h-1.3l3.2-7.3H41l3.2,7.3h-1.3l-0.7-1.7H38.5z M41.7,249.4l-1.3-3l-1.3,3H41.7z"/>
	<path class="st1" d="M50.3,248.6h1.2v2.5c-0.7,0.8-1.7,1.1-3,1.1c-1.1,0-2-0.4-2.7-1.1c-0.7-0.7-1.1-1.6-1.1-2.7
		c0-1.1,0.4-2,1.1-2.7c0.7-0.7,1.6-1.1,2.7-1.1c1,0,1.9,0.3,2.6,0.9l-0.7,0.9c-0.3-0.2-0.6-0.4-0.9-0.5c-0.3-0.1-0.6-0.1-1-0.1
		c-0.7,0-1.4,0.2-1.9,0.7c-0.5,0.5-0.8,1.1-0.8,1.9s0.2,1.4,0.7,1.9c0.5,0.5,1.1,0.7,1.8,0.7s1.3-0.1,1.7-0.4V248.6z"/>
	<path class="st1" d="M58.9,247.3c0,1.2-0.5,2-1.6,2.3l1.9,2.6h-1.6l-1.7-2.5h-1.6v2.5h-1.2v-7.3h2.7c1.1,0,1.9,0.2,2.4,0.6
		S58.9,246.4,58.9,247.3z M57.3,248.3c0.3-0.2,0.4-0.6,0.4-1c0-0.5-0.1-0.8-0.4-1c-0.3-0.2-0.7-0.3-1.4-0.3h-1.6v2.6h1.5
		C56.6,248.6,57,248.5,57.3,248.3z"/>
	<path class="st1" d="M60.7,244.9h1.2v7.3h-1.2V244.9z"/>
	<path class="st1" d="M67.3,251.1c0.4,0,0.8-0.1,1.1-0.2c0.3-0.1,0.6-0.4,1-0.7l0.8,0.8c-0.8,0.9-1.7,1.3-2.8,1.3
		c-1.1,0-2-0.4-2.7-1.1c-0.7-0.7-1.1-1.6-1.1-2.7c0-1.1,0.4-2,1.1-2.7c0.7-0.7,1.7-1.1,2.8-1.1s2.1,0.4,2.8,1.3l-0.8,0.9
		c-0.3-0.3-0.7-0.6-1-0.7c-0.3-0.1-0.7-0.2-1.1-0.2c-0.7,0-1.4,0.2-1.9,0.7c-0.5,0.5-0.8,1.1-0.8,1.8c0,0.7,0.2,1.4,0.7,1.9
		S66.6,251.1,67.3,251.1z"/>
	<path class="st1" d="M73.3,250.5c0.3,0.4,0.8,0.6,1.4,0.6s1-0.2,1.4-0.6c0.3-0.4,0.5-0.9,0.5-1.6v-4h1.2v4.1c0,1.1-0.3,1.9-0.9,2.4
		c-0.6,0.6-1.3,0.9-2.2,0.9s-1.6-0.3-2.2-0.9c-0.6-0.6-0.9-1.4-0.9-2.4v-4.1h1.2v4C72.8,249.6,72.9,250.1,73.3,250.5z"/>
	<path class="st1" d="M79.6,252.2v-7.3h1.2v6.1h3.3v1.2H79.6z"/>
	<path class="st1" d="M87.6,246v6.2h-1.2V246h-2.2v-1.1h5.7v1.1H87.6z"/>
	<path class="st1" d="M92.7,250.5c0.3,0.4,0.8,0.6,1.4,0.6s1-0.2,1.4-0.6c0.3-0.4,0.5-0.9,0.5-1.6v-4h1.2v4.1c0,1.1-0.3,1.9-0.9,2.4
		c-0.6,0.6-1.3,0.9-2.2,0.9s-1.6-0.3-2.2-0.9c-0.6-0.6-0.9-1.4-0.9-2.4v-4.1h1.2v4C92.2,249.6,92.4,250.1,92.7,250.5z"/>
	<path class="st1" d="M104.9,247.3c0,1.2-0.5,2-1.6,2.3l1.9,2.6h-1.6l-1.7-2.5h-1.6v2.5h-1.2v-7.3h2.7c1.1,0,1.9,0.2,2.4,0.6
		S104.9,246.4,104.9,247.3z M103.3,248.3c0.3-0.2,0.4-0.6,0.4-1c0-0.5-0.1-0.8-0.4-1c-0.3-0.2-0.7-0.3-1.4-0.3h-1.6v2.6h1.5
		C102.6,248.6,103,248.5,103.3,248.3z"/>
	<path class="st1" d="M107.7,250.5l-0.7,1.7h-1.3l3.2-7.3h1.3l3.2,7.3h-1.3l-0.7-1.7H107.7z M110.9,249.4l-1.3-3l-1.3,3H110.9z"/>
	<path class="st1" d="M122.4,244.9v1.2h-3.9v1.9h3.5v1.1h-3.5v2h4v1.2h-5.2v-7.3H122.4z"/>
	<path class="st1" d="M131.9,245.5c0.5,0.4,0.8,1.1,0.8,2c0,0.9-0.3,1.5-0.8,1.9s-1.3,0.6-2.4,0.6h-1.3v2.1H127v-7.3h2.5
		C130.6,244.9,131.4,245.1,131.9,245.5z M131,248.6c0.2-0.3,0.4-0.6,0.4-1.1c0-0.5-0.2-0.9-0.5-1.1c-0.3-0.2-0.8-0.3-1.5-0.3h-1.3
		v2.9h1.4C130.3,248.9,130.8,248.8,131,248.6z"/>
	<path class="st1" d="M139.2,244.9v1.2h-3.9v1.9h3.5v1.1h-3.5v2h4v1.2h-5.2v-7.3H139.2z"/>
	<path class="st1" d="M143.1,245.9c-0.4,0-0.7,0.1-0.9,0.2s-0.3,0.4-0.3,0.7c0,0.3,0.1,0.5,0.3,0.7c0.2,0.2,0.7,0.3,1.5,0.5
		c0.7,0.2,1.3,0.4,1.7,0.8c0.4,0.3,0.6,0.8,0.6,1.4s-0.2,1.2-0.7,1.5c-0.5,0.4-1.1,0.6-1.9,0.6c-1.1,0-2.2-0.4-3-1.2l0.8-0.9
		c0.7,0.6,1.5,1,2.3,1c0.4,0,0.7-0.1,0.9-0.3s0.3-0.4,0.3-0.7c0-0.3-0.1-0.5-0.3-0.7c-0.2-0.2-0.6-0.3-1.1-0.4
		c-0.5-0.1-0.9-0.2-1.2-0.4c-0.3-0.1-0.5-0.2-0.7-0.4c-0.4-0.3-0.6-0.8-0.6-1.5s0.2-1.2,0.7-1.6c0.5-0.4,1.1-0.5,1.8-0.5
		c0.5,0,0.9,0.1,1.4,0.2c0.5,0.2,0.9,0.4,1.2,0.6l-0.7,0.9c-0.2-0.2-0.5-0.4-0.9-0.5C143.9,245.9,143.5,245.9,143.1,245.9z"/>
	<path class="st1" d="M150.8,251.1c0.4,0,0.8-0.1,1.1-0.2c0.3-0.1,0.6-0.4,1-0.7l0.8,0.8c-0.8,0.9-1.7,1.3-2.8,1.3
		c-1.1,0-2-0.4-2.7-1.1c-0.7-0.7-1.1-1.6-1.1-2.7c0-1.1,0.4-2,1.1-2.7c0.7-0.7,1.7-1.1,2.8-1.1s2.1,0.4,2.8,1.3l-0.8,0.9
		c-0.3-0.3-0.7-0.6-1-0.7c-0.3-0.1-0.7-0.2-1.1-0.2c-0.7,0-1.4,0.2-1.9,0.7c-0.5,0.5-0.8,1.1-0.8,1.8c0,0.7,0.2,1.4,0.7,1.9
		S150.1,251.1,150.8,251.1z"/>
	<path class="st1" d="M156.2,250.5l-0.7,1.7h-1.3l3.2-7.3h1.3l3.2,7.3h-1.3l-0.7-1.7H156.2z M159.4,249.4l-1.3-3l-1.3,3H159.4z"/>
	<path class="st1" d="M165.1,245.9c-0.4,0-0.7,0.1-0.9,0.2s-0.3,0.4-0.3,0.7c0,0.3,0.1,0.5,0.3,0.7c0.2,0.2,0.7,0.3,1.5,0.5
		c0.7,0.2,1.3,0.4,1.7,0.8c0.4,0.3,0.6,0.8,0.6,1.4s-0.2,1.2-0.7,1.5c-0.5,0.4-1.1,0.6-1.9,0.6c-1.1,0-2.2-0.4-3-1.2l0.8-0.9
		c0.7,0.6,1.5,1,2.3,1c0.4,0,0.7-0.1,0.9-0.3s0.3-0.4,0.3-0.7c0-0.3-0.1-0.5-0.3-0.7c-0.2-0.2-0.6-0.3-1.1-0.4
		c-0.5-0.1-0.9-0.2-1.2-0.4c-0.3-0.1-0.5-0.2-0.7-0.4c-0.4-0.3-0.6-0.8-0.6-1.5s0.2-1.2,0.7-1.6c0.5-0.4,1.1-0.5,1.8-0.5
		c0.5,0,0.9,0.1,1.4,0.2c0.5,0.2,0.9,0.4,1.2,0.6l-0.7,0.9c-0.2-0.2-0.5-0.4-0.9-0.5C165.8,245.9,165.5,245.9,165.1,245.9z"/>
</g>
<g>
	<g>
		<path class="st2" d="M76.5,116.3c4.7,2.4,7.5,7.5,7,12.7l-4.5,45.8h15.7l-4.5-45.8c-0.5-5.3,2.3-10.3,7-12.7c5.9-3,9.8-9.3,9.8-21
			V57c0-1.5-1.2-2.7-2.7-2.7c-1.6,0-2.9,1.3-2.9,2.9v35.5c0,1.6-1.3,2.9-2.9,2.9c-1.6,0-2.9-1.3-2.9-2.9V57.2c0-1.6-1.3-2.9-2.9-2.9
			h0c-1.6,0-2.9,1.3-2.9,2.9v35.5c0,1.6-1.3,2.9-2.9,2.9c-1.6,0-2.9-1.3-2.9-2.9V57.2c0-1.6-1.3-2.9-2.9-2.9h0
			c-1.6,0-2.9,1.3-2.9,2.9v35.5c0,1.6-1.3,2.9-2.9,2.9c-1.6,0-2.9-1.3-2.9-2.9V57.2c0-1.6-1.3-2.9-2.9-2.9c-1.5,0-2.7,1.2-2.7,2.7
			v38.3C66.7,107,70.6,113.4,76.5,116.3z"/>
		<path class="st2" d="M125.7,141.7l-3.3,33.2h15.7l-3.8-38.5l-0.2-80.4c0-1.6-1.3-2.9-2.9-2.9c-1.3,0-2.4,0.8-2.7,2l-12.8,40.4
			c-4,12.7-1.3,26.5,7.1,36.7C125,134.9,126.1,138.3,125.7,141.7z"/>
	</g>
	<circle class="st3" cx="101.5" cy="103.2" r="1.1"/>
	<path class="st4" d="M100.5,105.9c0,0-0.9,3.5-3.8,5.2"/>
</g>
</svg>
