<?xml version="1.0" encoding="utf-8"?>
<!-- Generator: Adobe Illustrator 23.0.2, SVG Export Plug-In . SVG Version: 6.00 Build 0)  -->
<svg version="1.1" id="Camada_1" xmlns="http://www.w3.org/2000/svg" xmlns:xlink="http://www.w3.org/1999/xlink" x="0px" y="0px"
	 viewBox="0 0 199.6 222" style="enable-background:new 0 0 199.6 222;" xml:space="preserve">
<style type="text/css">
	.st0{fill:#F39200;}
	.st1{fill:#575756;}
	.st2{fill:none;stroke:#FFFFFF;stroke-width:4;stroke-linecap:round;stroke-linejoin:round;stroke-miterlimit:10;}
	.st3{fill:#FFFFFF;}
	.st4{fill:none;stroke:#FFFFFF;stroke-width:1.9628;stroke-linecap:round;stroke-linejoin:round;stroke-miterlimit:10;}
</style>
<path class="st0" d="M102.4,196.2L102.4,196.2c-45.4,0-82.2-36.8-82.2-82.2v0c0-45.4,36.8-82.2,82.2-82.2h0
	c45.4,0,82.2,36.8,82.2,82.2v0C184.6,159.4,147.8,196.2,102.4,196.2z"/>
<g>
	<g>
		<path class="st2" d="M76.5,116.3c4.7,2.4,7.5,7.5,7,12.7l-4.5,45.8h15.7l-4.5-45.8c-0.5-5.3,2.3-10.3,7-12.7c5.9-3,9.8-9.3,9.8-21
			V57c0-1.5-1.2-2.7-2.7-2.7c-1.6,0-2.9,1.3-2.9,2.9v35.5c0,1.6-1.3,2.9-2.9,2.9c-1.6,0-2.9-1.3-2.9-2.9V57.2c0-1.6-1.3-2.9-2.9-2.9
			h0c-1.6,0-2.9,1.3-2.9,2.9v35.5c0,1.6-1.3,2.9-2.9,2.9c-1.6,0-2.9-1.3-2.9-2.9V57.2c0-1.6-1.3-2.9-2.9-2.9h0
			c-1.6,0-2.9,1.3-2.9,2.9v35.5c0,1.6-1.3,2.9-2.9,2.9c-1.6,0-2.9-1.3-2.9-2.9V57.2c0-1.6-1.3-2.9-2.9-2.9c-1.5,0-2.7,1.2-2.7,2.7
			v38.3C66.7,107,70.6,113.4,76.5,116.3z"/>
		<path class="st2" d="M125.7,141.7l-3.3,33.2h15.7l-3.8-38.5l-0.2-80.4c0-1.6-1.3-2.9-2.9-2.9c-1.3,0-2.4,0.8-2.7,2l-12.8,40.4
			c-4,12.7-1.3,26.5,7.1,36.7C125,134.9,126.1,138.3,125.7,141.7z"/>
	</g>
	<circle class="st3" cx="101.5" cy="103.2" r="1.1"/>
	<path class="st4" d="M100.5,105.9c0,0-0.9,3.5-3.8,5.2"/>
</g>
</svg>
