<?xml version="1.0" encoding="utf-8"?>
<!-- Generator: Adobe Illustrator 23.0.2, SVG Export Plug-In . SVG Version: 6.00 Build 0)  -->
<svg version="1.1" id="Camada_1" xmlns="http://www.w3.org/2000/svg" xmlns:xlink="http://www.w3.org/1999/xlink" x="0px" y="0px"
	 viewBox="0 0 199.6 222" style="enable-background:new 0 0 199.6 222;" xml:space="preserve">
<style type="text/css">
	.st0{fill:#575756;}
	.st1{fill:#F39200;}
	.st2{fill:none;stroke:#FFFFFF;stroke-width:4;stroke-linecap:round;stroke-linejoin:round;stroke-miterlimit:10;}
	.st3{fill:none;stroke:#FFFFFF;stroke-width:3;stroke-linecap:round;stroke-linejoin:round;stroke-miterlimit:10;}
	.st4{fill:#FFFFFF;}
	.st5{fill:none;stroke:#FFFFFF;stroke-width:1.9628;stroke-linecap:round;stroke-linejoin:round;stroke-miterlimit:10;}
</style>
<path class="st1" d="M99.9,196.2L99.9,196.2c-45.4,0-82.2-36.8-82.2-82.2v0c0-45.4,36.8-82.2,82.2-82.2h0
	c45.4,0,82.2,36.8,82.2,82.2v0C182.1,159.4,145.3,196.2,99.9,196.2z"/>
<g>
	<g>
		<line class="st2" x1="45.6" y1="156.1" x2="158.3" y2="156.1"/>
		<line class="st2" x1="125.3" y1="138.3" x2="125.3" y2="155.8"/>
		<path class="st2" d="M107.7,132.4c0,0-0.8,13,12,13C119.7,145.4,124,133.5,107.7,132.4z"/>
		<path class="st2" d="M125.4,110.2c0,0-15,13.2-0.5,27.6C124.8,137.8,142.6,129.8,125.4,110.2z"/>
		<path class="st2" d="M142.7,132.4c0,0,0.8,13-12,13C130.6,145.4,126.3,133.5,142.7,132.4z"/>
		<line class="st2" x1="130.4" y1="144.5" x2="125.6" y2="149.3"/>
		<line class="st2" x1="120.4" y1="144.7" x2="125" y2="149.3"/>
		<circle class="st3" cx="79.9" cy="163.4" r="1.3"/>
		<circle class="st3" cx="95.6" cy="163.4" r="1.3"/>
		<circle class="st3" cx="111" cy="163.4" r="1.3"/>
		<circle class="st3" cx="126.7" cy="163.4" r="1.3"/>
		<circle class="st3" cx="142" cy="163.4" r="1.3"/>
		<circle class="st3" cx="87.9" cy="172" r="1.3"/>
		<circle class="st3" cx="103.3" cy="172" r="1.3"/>
		<circle class="st3" cx="119" cy="172" r="1.3"/>
		<circle class="st3" cx="134.4" cy="172" r="1.3"/>
	</g>
	<g>
		<circle class="st3" cx="76.2" cy="89.4" r="34.7"/>
		<line class="st3" x1="77.1" y1="90" x2="77.1" y2="154.7"/>
		<g>
			<circle class="st4" cx="48" cy="81.5" r="1"/>
			<path class="st5" d="M48.6,78.8c0,0,0.6-3.4,3.2-5.3"/>
		</g>
	</g>
</g>
</svg>
