<?xml version="1.0" encoding="utf-8"?>
<!-- Generator: Adobe Illustrator 23.0.2, SVG Export Plug-In . SVG Version: 6.00 Build 0)  -->
<svg version="1.1" id="Camada_1" xmlns="http://www.w3.org/2000/svg" xmlns:xlink="http://www.w3.org/1999/xlink" x="0px" y="0px"
	 viewBox="0 0 199.6 282" style="enable-background:new 0 0 199.6 282;" xml:space="preserve">
<style type="text/css">
	.st0{fill:#575756;}
	.st1{fill:#F39200;}
	.st2{fill:none;stroke:#FFFFFF;stroke-width:4;stroke-linecap:round;stroke-linejoin:round;stroke-miterlimit:10;}
	.st3{fill:none;stroke:#FFFFFF;stroke-width:3;stroke-linecap:round;stroke-linejoin:round;stroke-miterlimit:10;}
	.st4{fill:#FFFFFF;}
	.st5{fill:none;stroke:#FFFFFF;stroke-width:1.9628;stroke-linecap:round;stroke-linejoin:round;stroke-miterlimit:10;}
</style>
<g>
	<path class="st0" d="M73.4,237.9l-0.7,1.7h-1.3l3.2-7.3h1.3l3.2,7.3h-1.3l-0.7-1.7H73.4z M76.5,236.8l-1.3-3l-1.3,3H76.5z"/>
	<path class="st0" d="M81.3,239.6h-1.2v-7.3H82l2.2,4.6l2.2-4.6h1.9v7.3h-1.2v-5.7l-2.5,5.1h-0.7l-2.5-5.1V239.6z"/>
	<path class="st0" d="M93.5,239.6h-3.2v-7.3h2.8c0.5,0,0.9,0.1,1.3,0.2c0.4,0.1,0.6,0.3,0.8,0.5c0.3,0.4,0.5,0.8,0.5,1.3
		c0,0.6-0.2,1-0.5,1.3c-0.1,0.1-0.2,0.2-0.3,0.2c0,0-0.1,0.1-0.3,0.1c0.5,0.1,0.8,0.3,1.1,0.6c0.3,0.3,0.4,0.7,0.4,1.2
		c0,0.5-0.2,1-0.5,1.3C95.2,239.3,94.5,239.6,93.5,239.6z M91.6,235.3h1.6c0.9,0,1.3-0.3,1.3-0.9c0-0.3-0.1-0.6-0.3-0.8
		c-0.2-0.2-0.5-0.2-1-0.2h-1.6V235.3z M91.6,238.4h1.9c0.5,0,0.8-0.1,1-0.2c0.2-0.1,0.4-0.4,0.4-0.8c0-0.6-0.5-1-1.6-1h-1.8V238.4z"
		/>
	<path class="st0" d="M97.7,232.3h1.2v7.3h-1.2V232.3z"/>
	<path class="st0" d="M106.1,232.3v1.2h-3.9v1.9h3.5v1.1h-3.5v2h4v1.2h-5.2v-7.3H106.1z"/>
	<path class="st0" d="M113.2,232.3h1.2v7.3h-1.3l-4.1-5.3v5.3h-1.2v-7.3h1.2l4.2,5.4V232.3z"/>
	<path class="st0" d="M119.2,233.4v6.2H118v-6.2h-2.2v-1.1h5.7v1.1H119.2z"/>
	<path class="st0" d="M127.9,232.3v1.2H124v1.9h3.5v1.1H124v2h4v1.2h-5.2v-7.3H127.9z"/>
	<path class="st0" d="M34.7,248.7h1.2v2.5c-0.7,0.8-1.7,1.1-3,1.1c-1.1,0-2-0.4-2.7-1.1c-0.7-0.7-1.1-1.6-1.1-2.7
		c0-1.1,0.4-2,1.1-2.7c0.7-0.7,1.6-1.1,2.7-1.1c1,0,1.9,0.3,2.6,0.9l-0.7,0.9c-0.3-0.2-0.6-0.4-0.9-0.5c-0.3-0.1-0.6-0.1-1-0.1
		c-0.7,0-1.4,0.2-1.9,0.7c-0.5,0.5-0.8,1.1-0.8,1.9s0.2,1.4,0.7,1.9c0.5,0.5,1.1,0.7,1.8,0.7s1.3-0.1,1.7-0.4V248.7z"/>
	<path class="st0" d="M42.7,244.9v1.2h-3.9v1.9h3.5v1.1h-3.5v2h4v1.2h-5.2v-7.3H42.7z"/>
	<path class="st0" d="M50.4,251.2c-0.7,0.7-1.6,1.1-2.7,1.1c-1.1,0-2-0.4-2.7-1.1c-0.7-0.7-1.1-1.6-1.1-2.7s0.4-2,1.1-2.7
		c0.7-0.7,1.6-1.1,2.7-1.1c1.1,0,2,0.4,2.7,1.1c0.7,0.7,1.1,1.6,1.1,2.7S51.1,250.5,50.4,251.2z M49.4,246.6
		c-0.5-0.5-1.1-0.8-1.8-0.8s-1.3,0.3-1.8,0.8c-0.5,0.5-0.7,1.1-0.7,1.9s0.2,1.4,0.7,1.9c0.5,0.5,1.1,0.8,1.8,0.8s1.3-0.3,1.8-0.8
		s0.7-1.1,0.7-1.9S49.9,247.2,49.4,246.6z"/>
	<path class="st0" d="M58.1,248.7h1.2v2.5c-0.7,0.8-1.7,1.1-3,1.1c-1.1,0-2-0.4-2.7-1.1c-0.7-0.7-1.1-1.6-1.1-2.7
		c0-1.1,0.4-2,1.1-2.7c0.7-0.7,1.6-1.1,2.7-1.1c1,0,1.9,0.3,2.6,0.9l-0.7,0.9c-0.3-0.2-0.6-0.4-0.9-0.5c-0.3-0.1-0.6-0.1-1-0.1
		c-0.7,0-1.4,0.2-1.9,0.7c-0.5,0.5-0.8,1.1-0.8,1.9s0.2,1.4,0.7,1.9c0.5,0.5,1.1,0.7,1.8,0.7s1.3-0.1,1.7-0.4V248.7z"/>
	<path class="st0" d="M66.7,247.3c0,1.2-0.5,2-1.6,2.3l1.9,2.6h-1.6l-1.7-2.5h-1.6v2.5h-1.2v-7.3h2.7c1.1,0,1.9,0.2,2.4,0.6
		S66.7,246.5,66.7,247.3z M65.1,248.3c0.3-0.2,0.4-0.6,0.4-1c0-0.5-0.1-0.8-0.4-1c-0.3-0.2-0.7-0.3-1.4-0.3h-1.6v2.6h1.5
		C64.4,248.6,64.8,248.5,65.1,248.3z"/>
	<path class="st0" d="M69.5,250.6l-0.7,1.7h-1.3l3.2-7.3H72l3.2,7.3h-1.3l-0.7-1.7H69.5z M72.7,249.4l-1.3-3l-1.3,3H72.7z"/>
	<path class="st0" d="M77.5,246.1v2h3.2v1.1h-3.2v3h-1.2v-7.3h4.9l0,1.1H77.5z"/>
	<path class="st0" d="M82.5,244.9h1.2v7.3h-1.2V244.9z"/>
	<path class="st0" d="M86.8,250.6l-0.7,1.7h-1.3l3.2-7.3h1.3l3.2,7.3h-1.3l-0.7-1.7H86.8z M90,249.4l-1.3-3l-1.3,3H90z"/>
	<path class="st0" d="M101.5,244.9v1.2h-3.9v1.9h3.5v1.1h-3.5v2h4v1.2h-5.2v-7.3H101.5z"/>
	<path class="st0" d="M108.8,246v6.2h-1.2V246h-2.2v-1.1h5.7v1.1H108.8z"/>
	<path class="st0" d="M117.5,244.9v1.2h-3.9v1.9h3.5v1.1h-3.5v2h4v1.2h-5.2v-7.3H117.5z"/>
	<path class="st0" d="M125,247.3c0,1.2-0.5,2-1.6,2.3l1.9,2.6h-1.6l-1.7-2.5h-1.6v2.5h-1.2v-7.3h2.7c1.1,0,1.9,0.2,2.4,0.6
		C124.8,245.9,125,246.5,125,247.3z M123.4,248.3c0.3-0.2,0.4-0.6,0.4-1c0-0.5-0.1-0.8-0.4-1c-0.3-0.2-0.7-0.3-1.4-0.3h-1.6v2.6h1.5
		C122.6,248.6,123.1,248.5,123.4,248.3z"/>
	<path class="st0" d="M132.6,247.3c0,1.2-0.5,2-1.6,2.3l1.9,2.6h-1.6l-1.7-2.5H128v2.5h-1.2v-7.3h2.7c1.1,0,1.9,0.2,2.4,0.6
		C132.4,245.9,132.6,246.5,132.6,247.3z M131,248.3c0.3-0.2,0.4-0.6,0.4-1c0-0.5-0.1-0.8-0.4-1c-0.3-0.2-0.7-0.3-1.4-0.3H128v2.6
		h1.5C130.2,248.6,130.7,248.5,131,248.3z"/>
	<path class="st0" d="M134.4,244.9h1.2v7.3h-1.2V244.9z"/>
	<path class="st0" d="M140.4,246v6.2h-1.2V246h-2.2v-1.1h5.7v1.1H140.4z"/>
	<path class="st0" d="M150,251.2c-0.7,0.7-1.6,1.1-2.7,1.1c-1.1,0-2-0.4-2.7-1.1s-1.1-1.6-1.1-2.7s0.4-2,1.1-2.7s1.6-1.1,2.7-1.1
		c1.1,0,2,0.4,2.7,1.1c0.7,0.7,1.1,1.6,1.1,2.7S150.8,250.5,150,251.2z M149.1,246.6c-0.5-0.5-1.1-0.8-1.8-0.8
		c-0.7,0-1.3,0.3-1.8,0.8s-0.7,1.1-0.7,1.9s0.2,1.4,0.7,1.9s1.1,0.8,1.8,0.8c0.7,0,1.3-0.3,1.8-0.8s0.7-1.1,0.7-1.9
		S149.6,247.2,149.1,246.6z M147.5,244.3h-1.1l1.1-1.5l1.2,0.5L147.5,244.3z"/>
	<path class="st0" d="M158.5,247.3c0,1.2-0.5,2-1.6,2.3l1.9,2.6h-1.6l-1.7-2.5h-1.6v2.5h-1.2v-7.3h2.7c1.1,0,1.9,0.2,2.4,0.6
		C158.3,245.9,158.5,246.5,158.5,247.3z M156.9,248.3c0.3-0.2,0.4-0.6,0.4-1c0-0.5-0.1-0.8-0.4-1c-0.3-0.2-0.7-0.3-1.4-0.3h-1.6v2.6
		h1.5C156.1,248.6,156.6,248.5,156.9,248.3z"/>
	<path class="st0" d="M160.3,244.9h1.2v7.3h-1.2V244.9z"/>
	<path class="st0" d="M169.6,251.2c-0.7,0.7-1.6,1.1-2.7,1.1c-1.1,0-2-0.4-2.7-1.1s-1.1-1.6-1.1-2.7s0.4-2,1.1-2.7s1.6-1.1,2.7-1.1
		c1.1,0,2,0.4,2.7,1.1c0.7,0.7,1.1,1.6,1.1,2.7S170.4,250.5,169.6,251.2z M168.7,246.6c-0.5-0.5-1.1-0.8-1.8-0.8
		c-0.7,0-1.3,0.3-1.8,0.8s-0.7,1.1-0.7,1.9s0.2,1.4,0.7,1.9s1.1,0.8,1.8,0.8c0.7,0,1.3-0.3,1.8-0.8s0.7-1.1,0.7-1.9
		S169.2,247.2,168.7,246.6z"/>
</g>
<path class="st1" d="M99.9,196.2L99.9,196.2c-45.4,0-82.2-36.8-82.2-82.2v0c0-45.4,36.8-82.2,82.2-82.2h0
	c45.4,0,82.2,36.8,82.2,82.2v0C182.1,159.4,145.3,196.2,99.9,196.2z"/>
<g>
	<g>
		<line class="st2" x1="45.6" y1="156.1" x2="158.3" y2="156.1"/>
		<line class="st2" x1="125.3" y1="138.3" x2="125.3" y2="155.8"/>
		<path class="st2" d="M107.7,132.4c0,0-0.8,13,12,13C119.7,145.4,124,133.5,107.7,132.4z"/>
		<path class="st2" d="M125.4,110.2c0,0-15,13.2-0.5,27.6C124.8,137.8,142.6,129.8,125.4,110.2z"/>
		<path class="st2" d="M142.7,132.4c0,0,0.8,13-12,13C130.6,145.4,126.3,133.5,142.7,132.4z"/>
		<line class="st2" x1="130.4" y1="144.5" x2="125.6" y2="149.3"/>
		<line class="st2" x1="120.4" y1="144.7" x2="125" y2="149.3"/>
		<circle class="st3" cx="79.9" cy="163.4" r="1.3"/>
		<circle class="st3" cx="95.6" cy="163.4" r="1.3"/>
		<circle class="st3" cx="111" cy="163.4" r="1.3"/>
		<circle class="st3" cx="126.7" cy="163.4" r="1.3"/>
		<circle class="st3" cx="142" cy="163.4" r="1.3"/>
		<circle class="st3" cx="87.9" cy="172" r="1.3"/>
		<circle class="st3" cx="103.3" cy="172" r="1.3"/>
		<circle class="st3" cx="119" cy="172" r="1.3"/>
		<circle class="st3" cx="134.4" cy="172" r="1.3"/>
	</g>
	<g>
		<circle class="st3" cx="76.2" cy="89.4" r="34.7"/>
		<line class="st3" x1="77.1" y1="90" x2="77.1" y2="154.7"/>
		<g>
			<circle class="st4" cx="48" cy="81.5" r="1"/>
			<path class="st5" d="M48.6,78.8c0,0,0.6-3.4,3.2-5.3"/>
		</g>
	</g>
</g>
</svg>
