<?xml version="1.0" encoding="utf-8"?>
<!-- Generator: Adobe Illustrator 23.0.2, SVG Export Plug-In . SVG Version: 6.00 Build 0)  -->
<svg version="1.1" id="Camada_1" xmlns="http://www.w3.org/2000/svg" xmlns:xlink="http://www.w3.org/1999/xlink" x="0px" y="0px"
	 viewBox="0 0 199.6 282" style="enable-background:new 0 0 199.6 282;" xml:space="preserve">
<style type="text/css">
	.st0{fill:#575756;}
	.st1{fill:#F39200;}
	.st2{fill:none;stroke:#FFFFFF;stroke-width:2.6871;stroke-linecap:round;stroke-linejoin:round;stroke-miterlimit:10;}
	.st3{fill:#FFFFFF;}
	.st4{fill:none;stroke:#FFFFFF;stroke-width:2;stroke-linecap:round;stroke-linejoin:round;stroke-miterlimit:10;}
</style>
<g>
	<path class="st0" d="M44.5,234.2c0.7,0.6,1.1,1.5,1.1,2.7s-0.3,2-1,2.7c-0.7,0.7-1.7,1-3.1,1H39v-7.3h2.5
		C42.8,233.3,43.8,233.6,44.5,234.2z M44.3,236.9c0-1.7-1-2.5-2.9-2.5h-1.2v5h1.4c0.9,0,1.6-0.2,2-0.6
		C44.1,238.3,44.3,237.7,44.3,236.9z"/>
	<path class="st0" d="M52.3,233.3v1.2h-3.9v1.9h3.5v1.1h-3.5v2h4v1.2h-5.2v-7.3H52.3z"/>
	<path class="st0" d="M55.2,234.4v2h3.2v1.1h-3.2v3H54v-7.3h4.9l0,1.1H55.2z"/>
	<path class="st0" d="M65.4,233.3v1.2h-3.9v1.9H65v1.1h-3.5v2h4v1.2h-5.2v-7.3H65.4z"/>
	<path class="st0" d="M69.3,234.2c-0.4,0-0.7,0.1-0.9,0.2s-0.3,0.4-0.3,0.7c0,0.3,0.1,0.5,0.3,0.7c0.2,0.2,0.7,0.3,1.5,0.5
		c0.7,0.2,1.3,0.4,1.7,0.8c0.4,0.3,0.6,0.8,0.6,1.4s-0.2,1.2-0.7,1.5c-0.5,0.4-1.1,0.6-1.9,0.6c-1.1,0-2.2-0.4-3-1.2l0.8-0.9
		c0.7,0.6,1.5,1,2.3,1c0.4,0,0.7-0.1,0.9-0.3c0.2-0.2,0.3-0.4,0.3-0.7c0-0.3-0.1-0.5-0.3-0.7c-0.2-0.2-0.6-0.3-1.1-0.4
		c-0.5-0.1-0.9-0.2-1.2-0.4c-0.3-0.1-0.5-0.2-0.7-0.4c-0.4-0.3-0.6-0.8-0.6-1.5s0.2-1.2,0.7-1.6c0.5-0.4,1.1-0.5,1.8-0.5
		c0.5,0,0.9,0.1,1.4,0.2s0.9,0.4,1.2,0.6l-0.7,0.9c-0.2-0.2-0.5-0.4-0.9-0.5C70,234.3,69.7,234.2,69.3,234.2z"/>
	<path class="st0" d="M74.6,238.9l-0.7,1.7h-1.3l3.2-7.3h1.3l3.2,7.3H79l-0.7-1.7H74.6z M77.8,237.8l-1.3-3l-1.3,3H77.8z"/>
	<path class="st0" d="M89.3,233.3v1.2h-3.9v1.9h3.5v1.1h-3.5v2h4v1.2h-5.2v-7.3H89.3z"/>
	<path class="st0" d="M96.1,234.2c-0.4,0-0.7,0.1-0.9,0.2s-0.3,0.4-0.3,0.7c0,0.3,0.1,0.5,0.3,0.7c0.2,0.2,0.7,0.3,1.5,0.5
		c0.7,0.2,1.3,0.4,1.7,0.8c0.4,0.3,0.6,0.8,0.6,1.4s-0.2,1.2-0.7,1.5c-0.5,0.4-1.1,0.6-1.9,0.6c-1.1,0-2.2-0.4-3-1.2l0.8-0.9
		c0.7,0.6,1.5,1,2.3,1c0.4,0,0.7-0.1,0.9-0.3c0.2-0.2,0.3-0.4,0.3-0.7c0-0.3-0.1-0.5-0.3-0.7c-0.2-0.2-0.6-0.3-1.1-0.4
		c-0.5-0.1-0.9-0.2-1.2-0.4c-0.3-0.1-0.5-0.2-0.7-0.4c-0.4-0.3-0.6-0.8-0.6-1.5s0.2-1.2,0.7-1.6c0.5-0.4,1.1-0.5,1.8-0.5
		c0.5,0,0.9,0.1,1.4,0.2s0.9,0.4,1.2,0.6l-0.7,0.9c-0.2-0.2-0.5-0.4-0.9-0.5C96.8,234.3,96.4,234.2,96.1,234.2z"/>
	<path class="st0" d="M105.6,233.3v1.2h-3.9v1.9h3.5v1.1h-3.5v2h4v1.2h-5.2v-7.3H105.6z"/>
	<path class="st0" d="M112.3,237h1.2v2.5c-0.7,0.8-1.7,1.1-3,1.1c-1.1,0-2-0.4-2.7-1.1c-0.7-0.7-1.1-1.6-1.1-2.7
		c0-1.1,0.4-2,1.1-2.7s1.6-1.1,2.7-1.1s1.9,0.3,2.6,0.9l-0.7,0.9c-0.3-0.2-0.6-0.4-0.9-0.5c-0.3-0.1-0.6-0.1-1-0.1
		c-0.7,0-1.4,0.2-1.9,0.7c-0.5,0.5-0.8,1.1-0.8,1.9s0.2,1.4,0.7,1.9c0.5,0.5,1.1,0.7,1.8,0.7c0.7,0,1.3-0.1,1.7-0.4V237z"/>
	<path class="st0" d="M116.8,238.9c0.3,0.4,0.8,0.6,1.4,0.6s1-0.2,1.4-0.6c0.3-0.4,0.5-0.9,0.5-1.6v-4h1.2v4.1
		c0,1.1-0.3,1.9-0.9,2.4c-0.6,0.6-1.3,0.9-2.2,0.9s-1.6-0.3-2.2-0.9c-0.6-0.6-0.9-1.4-0.9-2.4v-4.1h1.2v4
		C116.3,238,116.5,238.5,116.8,238.9z"/>
	<path class="st0" d="M129,235.6c0,1.2-0.5,2-1.6,2.3l1.9,2.6h-1.6l-1.7-2.5h-1.6v2.5h-1.2v-7.3h2.7c1.1,0,1.9,0.2,2.4,0.6
		C128.8,234.2,129,234.8,129,235.6z M127.4,236.7c0.3-0.2,0.4-0.6,0.4-1c0-0.5-0.1-0.8-0.4-1c-0.3-0.2-0.7-0.3-1.4-0.3h-1.6v2.6h1.5
		C126.6,237,127.1,236.9,127.4,236.7z"/>
	<path class="st0" d="M131.8,238.9l-0.7,1.7h-1.3l3.2-7.3h1.3l3.2,7.3h-1.3l-0.7-1.7H131.8z M134.9,237.8l-1.3-3l-1.3,3H134.9z"/>
	<path class="st0" d="M144,233.3h1.2v7.3h-1.3l-4.1-5.3v5.3h-1.2v-7.3h1.2l4.2,5.4V233.3z"/>
	<path class="st0" d="M150.6,239.4c0.4,0,0.8-0.1,1.1-0.2c0.3-0.1,0.6-0.4,1-0.7l0.8,0.8c-0.7,0.8-1.6,1.2-2.6,1.3l-0.2,0.3
		c0.5,0.1,0.7,0.3,0.7,0.8c0,0.3-0.1,0.5-0.3,0.7c-0.2,0.2-0.5,0.3-0.8,0.3s-0.6-0.1-0.9-0.2l0.3-0.6c0.1,0.1,0.3,0.1,0.4,0.1
		s0.2,0,0.3-0.1c0.1-0.1,0.1-0.2,0.1-0.3s0-0.2-0.1-0.3c-0.1-0.1-0.2-0.1-0.3-0.1c-0.1,0-0.2,0-0.3,0.1l0.3-0.7
		c-1-0.1-1.7-0.5-2.3-1.2c-0.6-0.7-0.9-1.6-0.9-2.6s0.4-1.9,1.1-2.6s1.7-1.1,2.8-1.1s2.1,0.4,2.8,1.3l-0.8,0.9
		c-0.3-0.3-0.7-0.6-1-0.7c-0.3-0.1-0.7-0.2-1.1-0.2c-0.7,0-1.4,0.2-1.9,0.7c-0.5,0.5-0.8,1.1-0.8,1.8c0,0.7,0.2,1.4,0.7,1.9
		C149.3,239.2,149.9,239.4,150.6,239.4z"/>
	<path class="st0" d="M155.9,238.9l-0.7,1.7h-1.3l3.2-7.3h1.3l3.2,7.3h-1.3l-0.7-1.7H155.9z M159.1,237.8l-1.3-3l-1.3,3H159.1z"/>
</g>
<g>
	<path class="st1" d="M99.8,196.3L99.8,196.3c-45.4,0-82.2-36.8-82.2-82.2v0C17.6,68.8,54.4,32,99.8,32h0
		c45.4,0,82.2,36.8,82.2,82.2v0C182,159.5,145.2,196.3,99.8,196.3z"/>
	<path class="st2" d="M102.9,65c1.8,1.8,17,13.7,41.6,10.8c3.6-0.4,6.8,2.5,6.7,6.2c-0.5,14.8-2.9,48.2-15.5,64.3
		c-12.9,16.5-24.5,24.5-29.8,27.5c-1.9,1.1-4.2,1.1-6,0c-5.3-3.1-16.8-11.1-29.8-27.5C57.2,130.3,54.9,96.8,54.5,82
		c-0.1-3.7,3.1-6.6,6.7-6.1c24.6,2.9,39.6-9,41.4-10.8C102.7,65,102.8,64.9,102.9,65z"/>
	<g>
		<g>
			<circle class="st3" cx="145.6" cy="88" r="1"/>
		</g>
		<line class="st4" x1="145.3" y1="90.7" x2="145" y2="93.7"/>
	</g>
</g>
</svg>
