<?xml version="1.0" encoding="utf-8"?>
<!-- Generator: Adobe Illustrator 23.0.2, SVG Export Plug-In . SVG Version: 6.00 Build 0)  -->
<svg version="1.1" id="Camada_1" xmlns="http://www.w3.org/2000/svg" xmlns:xlink="http://www.w3.org/1999/xlink" x="0px" y="0px"
	 viewBox="0 0 199.6 222" style="enable-background:new 0 0 199.6 222;" xml:space="preserve">
<style type="text/css">
	.st0{fill:#575756;}
	.st1{fill:#F39200;}
	.st2{fill:none;stroke:#FFFFFF;stroke-width:2.6871;stroke-linecap:round;stroke-linejoin:round;stroke-miterlimit:10;}
	.st3{fill:#FFFFFF;}
	.st4{fill:none;stroke:#FFFFFF;stroke-width:2;stroke-linecap:round;stroke-linejoin:round;stroke-miterlimit:10;}
</style>
<g>
	<path class="st1" d="M99.8,196.3L99.8,196.3c-45.4,0-82.2-36.8-82.2-82.2v0C17.6,68.8,54.4,32,99.8,32h0
		c45.4,0,82.2,36.8,82.2,82.2v0C182,159.5,145.2,196.3,99.8,196.3z"/>
	<path class="st2" d="M102.9,65c1.8,1.8,17,13.7,41.6,10.8c3.6-0.4,6.8,2.5,6.7,6.2c-0.5,14.8-2.9,48.2-15.5,64.3
		c-12.9,16.5-24.5,24.5-29.8,27.5c-1.9,1.1-4.2,1.1-6,0c-5.3-3.1-16.8-11.1-29.8-27.5C57.2,130.3,54.9,96.8,54.5,82
		c-0.1-3.7,3.1-6.6,6.7-6.1c24.6,2.9,39.6-9,41.4-10.8C102.7,65,102.8,64.9,102.9,65z"/>
	<g>
		<g>
			<circle class="st3" cx="145.6" cy="88" r="1"/>
		</g>
		<line class="st4" x1="145.3" y1="90.7" x2="145" y2="93.7"/>
	</g>
</g>
</svg>
