<?xml version="1.0" encoding="utf-8"?>
<!-- Generator: Adobe Illustrator 23.0.2, SVG Export Plug-In . SVG Version: 6.00 Build 0)  -->
<svg version="1.1" id="Camada_1" xmlns="http://www.w3.org/2000/svg" xmlns:xlink="http://www.w3.org/1999/xlink" x="0px" y="0px"
	 viewBox="0 0 199.6 222" style="enable-background:new 0 0 199.6 222;" xml:space="preserve">
<style type="text/css">
	.st0{fill:#575756;}
	.st1{fill:#F39200;}
	.st2{fill:none;stroke:#FFFFFF;stroke-width:4;stroke-linecap:round;stroke-linejoin:round;stroke-miterlimit:10;}
	.st3{fill:#FFFFFF;}
	.st4{fill:none;stroke:#FFFFFF;stroke-width:1.2628;stroke-linecap:round;stroke-linejoin:round;stroke-miterlimit:10;}
	.st5{fill:none;stroke:#FFFFFF;stroke-width:2;stroke-linecap:round;stroke-linejoin:round;stroke-miterlimit:10;}
	.st6{fill:#F39200;stroke:#FFFFFF;stroke-width:4;stroke-linecap:round;stroke-linejoin:round;stroke-miterlimit:10;}
	.st7{fill:none;stroke:#FFFFFF;stroke-linecap:round;stroke-linejoin:round;stroke-miterlimit:10;}
	.st8{fill:none;stroke:#FFFFFF;stroke-width:3;stroke-linecap:round;stroke-linejoin:round;stroke-miterlimit:10;}
	.st9{fill:none;stroke:#FFFFFF;stroke-width:2.6871;stroke-linecap:round;stroke-linejoin:round;stroke-miterlimit:10;}
</style>
<path class="st1" d="M99.8,196.2L99.8,196.2c-45.4,0-82.2-36.8-82.2-82.2v0c0-45.4,36.8-82.2,82.2-82.2h0
	c45.4,0,82.2,36.8,82.2,82.2v0C182,159.4,145.2,196.2,99.8,196.2z"/>
<g>
	<path class="st0" d="M653.6,232.2v1.2h-3.9v1.9h3.5v1.1h-3.5v2h4v1.2h-5.2v-7.3H653.6z"/>
	<path class="st0" d="M660.8,233.2c0.7,0.6,1.1,1.5,1.1,2.7s-0.3,2-1,2.7c-0.7,0.7-1.7,1-3.1,1h-2.4v-7.3h2.5
		C659.1,232.2,660.1,232.5,660.8,233.2z M660.6,235.9c0-1.7-1-2.5-2.9-2.5h-1.2v5h1.4c0.9,0,1.6-0.2,2-0.6
		C660.4,237.3,660.6,236.7,660.6,235.9z"/>
	<path class="st0" d="M665.1,237.8c0.3,0.4,0.8,0.6,1.4,0.6s1-0.2,1.4-0.6c0.3-0.4,0.5-0.9,0.5-1.6v-4h1.2v4.1
		c0,1.1-0.3,1.9-0.9,2.4c-0.6,0.6-1.3,0.9-2.2,0.9s-1.6-0.3-2.2-0.9c-0.6-0.6-0.9-1.4-0.9-2.4v-4.1h1.2v4
		C664.6,236.9,664.8,237.5,665.1,237.8z"/>
	<path class="st0" d="M674.8,238.4c0.4,0,0.8-0.1,1.1-0.2c0.3-0.1,0.6-0.4,1-0.7l0.8,0.8c-0.8,0.9-1.7,1.3-2.8,1.3
		c-1.1,0-2-0.4-2.7-1.1c-0.7-0.7-1.1-1.6-1.1-2.7c0-1.1,0.4-2,1.1-2.7s1.7-1.1,2.8-1.1s2.1,0.4,2.8,1.3l-0.8,0.9
		c-0.3-0.3-0.7-0.6-1-0.7c-0.3-0.1-0.7-0.2-1.1-0.2c-0.7,0-1.4,0.2-1.9,0.7c-0.5,0.5-0.8,1.1-0.8,1.8c0,0.7,0.2,1.4,0.7,1.9
		C673.5,238.1,674.1,238.4,674.8,238.4z"/>
	<path class="st0" d="M680.2,237.9l-0.7,1.7h-1.3l3.2-7.3h1.3l3.2,7.3h-1.3l-0.7-1.7H680.2z M683.3,236.7l-1.3-3l-1.3,3H683.3z"/>
	<path class="st0" d="M690.2,238.4c0.4,0,0.8-0.1,1.1-0.2c0.3-0.1,0.6-0.4,1-0.7l0.8,0.8c-0.7,0.8-1.6,1.2-2.6,1.3l-0.2,0.3
		c0.5,0.1,0.7,0.3,0.7,0.8c0,0.3-0.1,0.5-0.3,0.7c-0.2,0.2-0.5,0.3-0.8,0.3s-0.6-0.1-0.9-0.2l0.3-0.6c0.1,0.1,0.3,0.1,0.4,0.1
		s0.2,0,0.3-0.1c0.1-0.1,0.1-0.2,0.1-0.3s0-0.2-0.1-0.3c-0.1-0.1-0.2-0.1-0.3-0.1c-0.1,0-0.2,0-0.3,0.1l0.3-0.7
		c-1-0.1-1.7-0.5-2.3-1.2c-0.6-0.7-0.9-1.6-0.9-2.6s0.4-1.9,1.1-2.6s1.7-1.1,2.8-1.1s2.1,0.4,2.8,1.3l-0.8,0.9
		c-0.3-0.3-0.7-0.6-1-0.7c-0.3-0.1-0.7-0.2-1.1-0.2c-0.7,0-1.4,0.2-1.9,0.7c-0.5,0.5-0.8,1.1-0.8,1.8c0,0.7,0.2,1.4,0.7,1.9
		C689,238.1,689.5,238.4,690.2,238.4z"/>
	<path class="st0" d="M698,232.2l3.2,7.3h-1.4l-0.7-1.7h-3.5l-0.7,1.7h-1.3l3.2-7.3H698z M698.1,231.6c-0.2,0-0.4-0.1-0.8-0.2
		c-0.3-0.2-0.5-0.2-0.6-0.2c-0.2,0-0.3,0.2-0.4,0.5h-0.8c0-0.4,0.1-0.7,0.2-1c0.2-0.3,0.4-0.4,0.7-0.4c0.2,0,0.4,0.1,0.8,0.2
		c0.3,0.2,0.6,0.2,0.7,0.2c0.2,0,0.3-0.2,0.3-0.5h0.8C699.1,231.2,698.8,231.6,698.1,231.6z M698.6,236.7l-1.3-2.8l-1.2,2.8H698.6z"
		/>
	<path class="st0" d="M708.3,238.5c-0.7,0.7-1.6,1.1-2.7,1.1c-1.1,0-2-0.4-2.7-1.1c-0.7-0.7-1.1-1.6-1.1-2.7s0.4-2,1.1-2.7
		c0.7-0.7,1.6-1.1,2.7-1.1c1.1,0,2,0.4,2.7,1.1c0.7,0.7,1.1,1.6,1.1,2.7S709,237.8,708.3,238.5z M707.4,233.9
		c-0.5-0.5-1.1-0.8-1.8-0.8c-0.7,0-1.3,0.3-1.8,0.8s-0.7,1.1-0.7,1.9s0.2,1.4,0.7,1.9s1.1,0.8,1.8,0.8c0.7,0,1.3-0.3,1.8-0.8
		s0.7-1.1,0.7-1.9S707.9,234.5,707.4,233.9z"/>
	<path class="st0" d="M618.4,251c0.4,0,0.8-0.1,1.1-0.2c0.3-0.1,0.6-0.4,1-0.7l0.8,0.8c-0.8,0.9-1.7,1.3-2.8,1.3
		c-1.1,0-2-0.4-2.7-1.1c-0.7-0.7-1.1-1.6-1.1-2.7c0-1.1,0.4-2,1.1-2.7s1.7-1.1,2.8-1.1s2.1,0.4,2.8,1.3l-0.8,0.9
		c-0.3-0.3-0.7-0.6-1-0.7c-0.3-0.1-0.7-0.2-1.1-0.2c-0.7,0-1.4,0.2-1.9,0.7c-0.5,0.5-0.8,1.1-0.8,1.8c0,0.7,0.2,1.4,0.7,1.9
		C617.1,250.8,617.7,251,618.4,251z"/>
	<path class="st0" d="M622.8,244.9h1.2v7.3h-1.2V244.9z"/>
	<path class="st0" d="M631.1,244.9v1.2h-3.9v1.9h3.5v1.1h-3.5v2h4v1.2H626v-7.3H631.1z M628,242.9h1.1l1.3,1.4h-1l-0.8-0.6l-0.8,0.6
		h-1L628,242.9z"/>
	<path class="st0" d="M638.3,244.9h1.2v7.3h-1.3l-4.1-5.3v5.3h-1.2v-7.3h1.2l4.2,5.4V244.9z"/>
	<path class="st0" d="M644.9,251c0.4,0,0.8-0.1,1.1-0.2c0.3-0.1,0.6-0.4,1-0.7l0.8,0.8c-0.8,0.9-1.7,1.3-2.8,1.3
		c-1.1,0-2-0.4-2.7-1.1c-0.7-0.7-1.1-1.6-1.1-2.7c0-1.1,0.4-2,1.1-2.7s1.7-1.1,2.8-1.1s2.1,0.4,2.8,1.3l-0.8,0.9
		c-0.3-0.3-0.7-0.6-1-0.7c-0.3-0.1-0.7-0.2-1.1-0.2c-0.7,0-1.4,0.2-1.9,0.7c-0.5,0.5-0.8,1.1-0.8,1.8c0,0.7,0.2,1.4,0.7,1.9
		C643.6,250.8,644.2,251,644.9,251z"/>
	<path class="st0" d="M649.2,244.9h1.2v7.3h-1.2V244.9z"/>
	<path class="st0" d="M653.5,250.5l-0.7,1.7h-1.3l3.2-7.3h1.3l3.2,7.3h-1.3l-0.7-1.7H653.5z M656.7,249.4l-1.3-3l-1.3,3H656.7z"/>
	<path class="st0" d="M668.2,244.9v1.2h-3.9v1.9h3.5v1.1h-3.5v2h4v1.2h-5.2v-7.3H668.2z"/>
	<path class="st0" d="M675.5,246v6.2h-1.2V246h-2.2v-1.1h5.7v1.1H675.5z"/>
	<path class="st0" d="M684.2,244.9v1.2h-3.9v1.9h3.5v1.1h-3.5v2h4v1.2h-5.2v-7.3H684.2z"/>
	<path class="st0" d="M689.2,251c0.4,0,0.8-0.1,1.1-0.2c0.3-0.1,0.6-0.4,1-0.7l0.8,0.8c-0.8,0.9-1.7,1.3-2.8,1.3
		c-1.1,0-2-0.4-2.7-1.1c-0.7-0.7-1.1-1.6-1.1-2.7c0-1.1,0.4-2,1.1-2.7s1.7-1.1,2.8-1.1s2.1,0.4,2.8,1.3l-0.8,0.9
		c-0.3-0.3-0.7-0.6-1-0.7c-0.3-0.1-0.7-0.2-1.1-0.2c-0.7,0-1.4,0.2-1.9,0.7c-0.5,0.5-0.8,1.1-0.8,1.8c0,0.7,0.2,1.4,0.7,1.9
		C687.9,250.8,688.5,251,689.2,251z"/>
	<path class="st0" d="M699,244.9h1.2v7.3h-1.3l-4.1-5.3v5.3h-1.2v-7.3h1.2l4.2,5.4V244.9z"/>
	<path class="st0" d="M708.4,251.1c-0.7,0.7-1.6,1.1-2.7,1.1c-1.1,0-2-0.4-2.7-1.1c-0.7-0.7-1.1-1.6-1.1-2.7s0.4-2,1.1-2.7
		c0.7-0.7,1.6-1.1,2.7-1.1c1.1,0,2,0.4,2.7,1.1c0.7,0.7,1.1,1.6,1.1,2.7S709.1,250.4,708.4,251.1z M707.5,246.6
		c-0.5-0.5-1.1-0.8-1.8-0.8c-0.7,0-1.3,0.3-1.8,0.8s-0.7,1.1-0.7,1.9s0.2,1.4,0.7,1.9s1.1,0.8,1.8,0.8c0.7,0,1.3-0.3,1.8-0.8
		s0.7-1.1,0.7-1.9S708,247.1,707.5,246.6z"/>
	<path class="st0" d="M711,252.1v-7.3h1.2v6.1h3.3v1.2H711z"/>
	<path class="st0" d="M722.8,251.1c-0.7,0.7-1.6,1.1-2.7,1.1c-1.1,0-2-0.4-2.7-1.1c-0.7-0.7-1.1-1.6-1.1-2.7s0.4-2,1.1-2.7
		c0.7-0.7,1.6-1.1,2.7-1.1c1.1,0,2,0.4,2.7,1.1c0.7,0.7,1.1,1.6,1.1,2.7S723.6,250.4,722.8,251.1z M721.9,246.6
		c-0.5-0.5-1.1-0.8-1.8-0.8c-0.7,0-1.3,0.3-1.8,0.8s-0.7,1.1-0.7,1.9s0.2,1.4,0.7,1.9s1.1,0.8,1.8,0.8c0.7,0,1.3-0.3,1.8-0.8
		s0.7-1.1,0.7-1.9S722.4,247.1,721.9,246.6z"/>
	<path class="st0" d="M730.5,248.6h1.2v2.5c-0.7,0.8-1.7,1.1-3,1.1c-1.1,0-2-0.4-2.7-1.1c-0.7-0.7-1.1-1.6-1.1-2.7
		c0-1.1,0.4-2,1.1-2.7s1.6-1.1,2.7-1.1s1.9,0.3,2.6,0.9l-0.7,0.9c-0.3-0.2-0.6-0.4-0.9-0.5c-0.3-0.1-0.6-0.1-1-0.1
		c-0.7,0-1.4,0.2-1.9,0.7c-0.5,0.5-0.8,1.1-0.8,1.9s0.2,1.4,0.7,1.9c0.5,0.5,1.1,0.7,1.8,0.7c0.7,0,1.3-0.1,1.7-0.4V248.6z"/>
	<path class="st0" d="M733.4,244.9h1.2v7.3h-1.2V244.9z"/>
	<path class="st0" d="M737.7,250.5l-0.7,1.7h-1.3l3.2-7.3h1.3l3.2,7.3H742l-0.7-1.7H737.7z M740.8,249.4l-1.3-3l-1.3,3H740.8z"/>
</g>
<path class="st1" d="M675.6,196.2L675.6,196.2c-45.4,0-82.2-36.8-82.2-82.2v0c0-45.4,36.8-82.2,82.2-82.2h0
	c45.4,0,82.2,36.8,82.2,82.2v0C757.8,159.4,721,196.2,675.6,196.2z"/>
<g>
	<path class="st0" d="M1619,233.2v6.2h-1.2v-6.2h-2.2v-1.1h5.7v1.1H1619z"/>
	<path class="st0" d="M1628.4,234.5c0,1.2-0.5,2-1.6,2.3l1.9,2.6h-1.6l-1.7-2.5h-1.6v2.5h-1.2v-7.3h2.7c1.1,0,1.9,0.2,2.4,0.6
		C1628.2,233.1,1628.4,233.7,1628.4,234.5z M1626.8,235.5c0.3-0.2,0.4-0.6,0.4-1c0-0.5-0.1-0.8-0.4-1c-0.3-0.2-0.7-0.3-1.4-0.3h-1.6
		v2.6h1.5C1626,235.8,1626.5,235.7,1626.8,235.5z"/>
	<path class="st0" d="M1631.2,237.7l-0.7,1.7h-1.3l3.2-7.3h1.3l3.2,7.3h-1.3l-0.7-1.7H1631.2z M1634.3,236.6l-1.3-3l-1.3,3H1634.3z"
		/>
	<path class="st0" d="M1643.4,232.1h1.2v7.3h-1.3l-4.1-5.3v5.3h-1.2v-7.3h1.2l4.2,5.4V232.1z"/>
	<path class="st0" d="M1648.8,233.1c-0.4,0-0.7,0.1-0.9,0.2s-0.3,0.4-0.3,0.7c0,0.3,0.1,0.5,0.3,0.7c0.2,0.2,0.7,0.3,1.5,0.5
		c0.7,0.2,1.3,0.4,1.7,0.8c0.4,0.3,0.6,0.8,0.6,1.4s-0.2,1.2-0.7,1.5c-0.5,0.4-1.1,0.6-1.9,0.6c-1.1,0-2.2-0.4-3-1.2l0.8-0.9
		c0.7,0.6,1.5,1,2.3,1c0.4,0,0.7-0.1,0.9-0.3c0.2-0.2,0.3-0.4,0.3-0.7c0-0.3-0.1-0.5-0.3-0.7c-0.2-0.2-0.6-0.3-1.1-0.4
		c-0.5-0.1-0.9-0.2-1.2-0.4c-0.3-0.1-0.5-0.2-0.7-0.4c-0.4-0.3-0.6-0.8-0.6-1.5s0.2-1.2,0.7-1.6c0.5-0.4,1.1-0.5,1.8-0.5
		c0.5,0,0.9,0.1,1.4,0.2s0.9,0.4,1.2,0.6l-0.7,0.9c-0.2-0.2-0.5-0.4-0.9-0.5C1649.5,233.1,1649.2,233.1,1648.8,233.1z"/>
	<path class="st0" d="M1658.1,232.8c0.5,0.4,0.8,1.1,0.8,2c0,0.9-0.3,1.5-0.8,1.9c-0.5,0.4-1.3,0.6-2.4,0.6h-1.3v2.1h-1.2v-7.3h2.5
		C1656.8,232.1,1657.6,232.3,1658.1,232.8z M1657.2,235.8c0.2-0.3,0.4-0.6,0.4-1.1c0-0.5-0.2-0.9-0.5-1.1c-0.3-0.2-0.8-0.3-1.5-0.3
		h-1.3v2.9h1.4C1656.5,236.2,1657,236,1657.2,235.8z"/>
	<path class="st0" d="M1666.4,238.4c-0.7,0.7-1.6,1.1-2.7,1.1c-1.1,0-2-0.4-2.7-1.1c-0.7-0.7-1.1-1.6-1.1-2.7s0.4-2,1.1-2.7
		c0.7-0.7,1.6-1.1,2.7-1.1c1.1,0,2,0.4,2.7,1.1c0.7,0.7,1.1,1.6,1.1,2.7S1667.2,237.7,1666.4,238.4z M1665.5,233.8
		c-0.5-0.5-1.1-0.8-1.8-0.8c-0.7,0-1.3,0.3-1.8,0.8s-0.7,1.1-0.7,1.9s0.2,1.4,0.7,1.9s1.1,0.8,1.8,0.8c0.7,0,1.3-0.3,1.8-0.8
		s0.7-1.1,0.7-1.9S1666,234.4,1665.5,233.8z"/>
	<path class="st0" d="M1674.9,234.5c0,1.2-0.5,2-1.6,2.3l1.9,2.6h-1.6l-1.7-2.5h-1.6v2.5h-1.2v-7.3h2.7c1.1,0,1.9,0.2,2.4,0.6
		C1674.7,233.1,1674.9,233.7,1674.9,234.5z M1673.3,235.5c0.3-0.2,0.4-0.6,0.4-1c0-0.5-0.1-0.8-0.4-1c-0.3-0.2-0.7-0.3-1.4-0.3h-1.6
		v2.6h1.5C1672.5,235.8,1673,235.7,1673.3,235.5z"/>
	<path class="st0" d="M1679.3,233.2v6.2h-1.2v-6.2h-2.2v-1.1h5.7v1.1H1679.3z"/>
	<path class="st0" d="M1688,232.1v1.2h-3.9v1.9h3.5v1.1h-3.5v2h4v1.2h-5.2v-7.3H1688z"/>
	<path class="st0" d="M1691.9,233.1c-0.4,0-0.7,0.1-0.9,0.2s-0.3,0.4-0.3,0.7c0,0.3,0.1,0.5,0.3,0.7c0.2,0.2,0.7,0.3,1.5,0.5
		c0.7,0.2,1.3,0.4,1.7,0.8c0.4,0.3,0.6,0.8,0.6,1.4s-0.2,1.2-0.7,1.5c-0.5,0.4-1.1,0.6-1.9,0.6c-1.1,0-2.2-0.4-3-1.2l0.8-0.9
		c0.7,0.6,1.5,1,2.3,1c0.4,0,0.7-0.1,0.9-0.3c0.2-0.2,0.3-0.4,0.3-0.7c0-0.3-0.1-0.5-0.3-0.7c-0.2-0.2-0.6-0.3-1.1-0.4
		c-0.5-0.1-0.9-0.2-1.2-0.4c-0.3-0.1-0.5-0.2-0.7-0.4c-0.4-0.3-0.6-0.8-0.6-1.5s0.2-1.2,0.7-1.6c0.5-0.4,1.1-0.5,1.8-0.5
		c0.5,0,0.9,0.1,1.4,0.2s0.9,0.4,1.2,0.6l-0.7,0.9c-0.2-0.2-0.5-0.4-0.9-0.5C1692.6,233.1,1692.3,233.1,1691.9,233.1z"/>
	<path class="st0" d="M1604,244.8v1.2h-3.9v1.9h3.5v1.1h-3.5v2h4v1.2h-5.2v-7.3H1604z"/>
	<path class="st0" d="M1608.6,244.8h1.2v7.3h-1.2V244.8z"/>
	<path class="st0" d="M1617.3,244.8h1.2v7.3h-1.3l-4.1-5.3v5.3h-1.2v-7.3h1.2l4.2,5.4V244.8z"/>
	<path class="st0" d="M1621.8,245.9v2h3.2v1.1h-3.2v3h-1.2v-7.3h4.9l0,1.1H1621.8z"/>
	<path class="st0" d="M1632.6,247.1c0,1.2-0.5,2-1.6,2.3l1.9,2.6h-1.6l-1.7-2.5h-1.6v2.5h-1.2v-7.3h2.7c1.1,0,1.9,0.2,2.4,0.6
		C1632.4,245.7,1632.6,246.3,1632.6,247.1z M1631,248.2c0.3-0.2,0.4-0.6,0.4-1c0-0.5-0.1-0.8-0.4-1c-0.3-0.2-0.7-0.3-1.4-0.3h-1.6
		v2.6h1.5C1630.3,248.5,1630.8,248.4,1631,248.2z"/>
	<path class="st0" d="M1635.5,250.4l-0.7,1.7h-1.3l3.2-7.3h1.3l3.2,7.3h-1.3l-0.7-1.7H1635.5z M1638.6,249.2l-1.3-3l-1.3,3H1638.6z"
		/>
	<path class="st0" d="M1647.3,244.8v1.2h-3.9v1.9h3.5v1.1h-3.5v2h4v1.2h-5.2v-7.3H1647.3z"/>
	<path class="st0" d="M1651.2,245.7c-0.4,0-0.7,0.1-0.9,0.2s-0.3,0.4-0.3,0.7c0,0.3,0.1,0.5,0.3,0.7c0.2,0.2,0.7,0.3,1.5,0.5
		c0.7,0.2,1.3,0.4,1.7,0.8c0.4,0.3,0.6,0.8,0.6,1.4s-0.2,1.2-0.7,1.5c-0.5,0.4-1.1,0.6-1.9,0.6c-1.1,0-2.2-0.4-3-1.2l0.8-0.9
		c0.7,0.6,1.5,1,2.3,1c0.4,0,0.7-0.1,0.9-0.3c0.2-0.2,0.3-0.4,0.3-0.7c0-0.3-0.1-0.5-0.3-0.7c-0.2-0.2-0.6-0.3-1.1-0.4
		c-0.5-0.1-0.9-0.2-1.2-0.4c-0.3-0.1-0.5-0.2-0.7-0.4c-0.4-0.3-0.6-0.8-0.6-1.5s0.2-1.2,0.7-1.6c0.5-0.4,1.1-0.5,1.8-0.5
		c0.5,0,0.9,0.1,1.4,0.2s0.9,0.4,1.2,0.6l-0.7,0.9c-0.2-0.2-0.5-0.4-0.9-0.5C1651.9,245.8,1651.5,245.7,1651.2,245.7z"/>
	<path class="st0" d="M1658.3,245.9v6.2h-1.2v-6.2h-2.2v-1.1h5.7v1.1H1658.3z"/>
	<path class="st0" d="M1667.7,247.1c0,1.2-0.5,2-1.6,2.3l1.9,2.6h-1.6l-1.7-2.5h-1.6v2.5h-1.2v-7.3h2.7c1.1,0,1.9,0.2,2.4,0.6
		C1667.4,245.7,1667.7,246.3,1667.7,247.1z M1666,248.2c0.3-0.2,0.4-0.6,0.4-1c0-0.5-0.1-0.8-0.4-1c-0.3-0.2-0.7-0.3-1.4-0.3h-1.6
		v2.6h1.5C1665.3,248.5,1665.8,248.4,1666,248.2z"/>
	<path class="st0" d="M1671.1,250.4c0.3,0.4,0.8,0.6,1.4,0.6s1-0.2,1.4-0.6c0.3-0.4,0.5-0.9,0.5-1.6v-4h1.2v4.1
		c0,1.1-0.3,1.9-0.9,2.4c-0.6,0.6-1.3,0.9-2.2,0.9s-1.6-0.3-2.2-0.9c-0.6-0.6-0.9-1.4-0.9-2.4v-4.1h1.2v4
		C1670.6,249.5,1670.7,250,1671.1,250.4z"/>
	<path class="st0" d="M1680.2,245.9v6.2h-1.2v-6.2h-2.2v-1.1h5.7v1.1H1680.2z"/>
	<path class="st0" d="M1685.4,250.4c0.3,0.4,0.8,0.6,1.4,0.6s1-0.2,1.4-0.6c0.3-0.4,0.5-0.9,0.5-1.6v-4h1.2v4.1
		c0,1.1-0.3,1.9-0.9,2.4c-0.6,0.6-1.3,0.9-2.2,0.9s-1.6-0.3-2.2-0.9c-0.6-0.6-0.9-1.4-0.9-2.4v-4.1h1.2v4
		C1684.9,249.5,1685.1,250,1685.4,250.4z"/>
	<path class="st0" d="M1697.6,247.1c0,1.2-0.5,2-1.6,2.3l1.9,2.6h-1.6l-1.7-2.5h-1.6v2.5h-1.2v-7.3h2.7c1.1,0,1.9,0.2,2.4,0.6
		C1697.3,245.7,1697.6,246.3,1697.6,247.1z M1695.9,248.2c0.3-0.2,0.4-0.6,0.4-1c0-0.5-0.1-0.8-0.4-1c-0.3-0.2-0.7-0.3-1.4-0.3h-1.6
		v2.6h1.5C1695.2,248.5,1695.7,248.4,1695.9,248.2z"/>
	<path class="st0" d="M1700.4,250.4l-0.7,1.7h-1.3l3.2-7.3h1.3l3.2,7.3h-1.3l-0.7-1.7H1700.4z M1703.5,249.2l-1.3-3l-1.3,3H1703.5z"
		/>
	<path class="st0" d="M1709.3,245.7c-0.4,0-0.7,0.1-0.9,0.2s-0.3,0.4-0.3,0.7c0,0.3,0.1,0.5,0.3,0.7c0.2,0.2,0.7,0.3,1.5,0.5
		c0.7,0.2,1.3,0.4,1.7,0.8c0.4,0.3,0.6,0.8,0.6,1.4s-0.2,1.2-0.7,1.5c-0.5,0.4-1.1,0.6-1.9,0.6c-1.1,0-2.2-0.4-3-1.2l0.8-0.9
		c0.7,0.6,1.5,1,2.3,1c0.4,0,0.7-0.1,0.9-0.3c0.2-0.2,0.3-0.4,0.3-0.7c0-0.3-0.1-0.5-0.3-0.7c-0.2-0.2-0.6-0.3-1.1-0.4
		c-0.5-0.1-0.9-0.2-1.2-0.4c-0.3-0.1-0.5-0.2-0.7-0.4c-0.4-0.3-0.6-0.8-0.6-1.5s0.2-1.2,0.7-1.6c0.5-0.4,1.1-0.5,1.8-0.5
		c0.5,0,0.9,0.1,1.4,0.2s0.9,0.4,1.2,0.6l-0.7,0.9c-0.2-0.2-0.5-0.4-0.9-0.5C1710,245.8,1709.7,245.7,1709.3,245.7z"/>
</g>
<path class="st1" d="M1655.3,196.2L1655.3,196.2c-45.4,0-82.2-36.8-82.2-82.2v0c0-45.4,36.8-82.2,82.2-82.2h0
	c45.4,0,82.2,36.8,82.2,82.2v0C1737.4,159.4,1700.6,196.2,1655.3,196.2z"/>
<g>
	<path class="st0" d="M851.2,236h1.2v2.5c-0.7,0.8-1.7,1.1-3,1.1c-1.1,0-2-0.4-2.7-1.1c-0.7-0.7-1.1-1.6-1.1-2.7
		c0-1.1,0.4-2,1.1-2.7s1.6-1.1,2.7-1.1s1.9,0.3,2.6,0.9l-0.7,0.9c-0.3-0.2-0.6-0.4-0.9-0.5c-0.3-0.1-0.6-0.1-1-0.1
		c-0.7,0-1.4,0.2-1.9,0.7c-0.5,0.5-0.8,1.1-0.8,1.9s0.2,1.4,0.7,1.9c0.5,0.5,1.1,0.7,1.8,0.7c0.7,0,1.3-0.1,1.7-0.4V236z"/>
	<path class="st0" d="M860.1,238.5c-0.7,0.7-1.6,1.1-2.7,1.1c-1.1,0-2-0.4-2.7-1.1c-0.7-0.7-1.1-1.6-1.1-2.7s0.4-2,1.1-2.7
		c0.7-0.7,1.6-1.1,2.7-1.1c1.1,0,2,0.4,2.7,1.1c0.7,0.7,1.1,1.6,1.1,2.7S860.9,237.8,860.1,238.5z M859.2,233.9
		c-0.5-0.5-1.1-0.8-1.8-0.8c-0.7,0-1.3,0.3-1.8,0.8s-0.7,1.1-0.7,1.9s0.2,1.4,0.7,1.9s1.1,0.8,1.8,0.8c0.7,0,1.3-0.3,1.8-0.8
		s0.7-1.1,0.7-1.9S859.7,234.4,859.2,233.9z"/>
	<path class="st0" d="M866,239.5h-1.4l-2.9-7.3h1.4l2.2,5.4l2.2-5.4h1.4L866,239.5z"/>
	<path class="st0" d="M875.1,232.2v1.2h-3.9v1.9h3.5v1.1h-3.5v2h4v1.2H870v-7.3H875.1z"/>
	<path class="st0" d="M882.6,234.6c0,1.2-0.5,2-1.6,2.3l1.9,2.6h-1.6l-1.7-2.5H878v2.5h-1.2v-7.3h2.7c1.1,0,1.9,0.2,2.4,0.6
		C882.4,233.1,882.6,233.7,882.6,234.6z M881,235.6c0.3-0.2,0.4-0.6,0.4-1c0-0.5-0.1-0.8-0.4-1c-0.3-0.2-0.7-0.3-1.4-0.3H878v2.6
		h1.5C880.2,235.9,880.7,235.8,881,235.6z"/>
	<path class="st0" d="M889.8,232.2h1.2v7.3h-1.3l-4.1-5.3v5.3h-1.2v-7.3h1.2l4.2,5.4V232.2z"/>
	<path class="st0" d="M899.2,238.5c-0.7,0.7-1.6,1.1-2.7,1.1c-1.1,0-2-0.4-2.7-1.1c-0.7-0.7-1.1-1.6-1.1-2.7s0.4-2,1.1-2.7
		c0.7-0.7,1.6-1.1,2.7-1.1c1.1,0,2,0.4,2.7,1.1c0.7,0.7,1.1,1.6,1.1,2.7S899.9,237.8,899.2,238.5z M898.3,233.9
		c-0.5-0.5-1.1-0.8-1.8-0.8c-0.7,0-1.3,0.3-1.8,0.8s-0.7,1.1-0.7,1.9s0.2,1.4,0.7,1.9s1.1,0.8,1.8,0.8c0.7,0,1.3-0.3,1.8-0.8
		s0.7-1.1,0.7-1.9S898.8,234.4,898.3,233.9z"/>
	<path class="st0" d="M909.8,232.2v1.2h-3.9v1.9h3.5v1.1h-3.5v2h4v1.2h-5.2v-7.3H909.8z"/>
	<path class="st0" d="M808.1,250.5l-0.7,1.7H806l3.2-7.3h1.3l3.2,7.3h-1.3l-0.7-1.7H808.1z M811.2,249.3l-1.3-3l-1.3,3H811.2z"/>
	<path class="st0" d="M820.3,245.8c0.7,0.6,1.1,1.5,1.1,2.7s-0.3,2-1,2.7c-0.7,0.7-1.7,1-3.1,1h-2.4v-7.3h2.5
		C818.6,244.8,819.6,245.2,820.3,245.8z M820.1,248.5c0-1.7-1-2.5-2.9-2.5H816v5h1.4c0.9,0,1.6-0.2,2-0.6
		C819.9,249.9,820.1,249.3,820.1,248.5z"/>
	<path class="st0" d="M824.2,252.1h-1.2v-7.3h1.9l2.2,4.6l2.2-4.6h1.9v7.3h-1.2v-5.7l-2.5,5.1h-0.7l-2.5-5.1V252.1z"/>
	<path class="st0" d="M833.2,244.8h1.2v7.3h-1.2V244.8z"/>
	<path class="st0" d="M841.9,244.8h1.2v7.3h-1.3l-4.1-5.3v5.3h-1.2v-7.3h1.2l4.2,5.4V244.8z"/>
	<path class="st0" d="M845.2,244.8h1.2v7.3h-1.2V244.8z"/>
	<path class="st0" d="M850.6,245.8c-0.4,0-0.7,0.1-0.9,0.2s-0.3,0.4-0.3,0.7c0,0.3,0.1,0.5,0.3,0.7c0.2,0.2,0.7,0.3,1.5,0.5
		c0.7,0.2,1.3,0.4,1.7,0.8c0.4,0.3,0.6,0.8,0.6,1.4s-0.2,1.2-0.7,1.5c-0.5,0.4-1.1,0.6-1.9,0.6c-1.1,0-2.2-0.4-3-1.2l0.8-0.9
		c0.7,0.6,1.5,1,2.3,1c0.4,0,0.7-0.1,0.9-0.3c0.2-0.2,0.3-0.4,0.3-0.7c0-0.3-0.1-0.5-0.3-0.7c-0.2-0.2-0.6-0.3-1.1-0.4
		c-0.5-0.1-0.9-0.2-1.2-0.4c-0.3-0.1-0.5-0.2-0.7-0.4c-0.4-0.3-0.6-0.8-0.6-1.5s0.2-1.2,0.7-1.6c0.5-0.4,1.1-0.5,1.8-0.5
		c0.5,0,0.9,0.1,1.4,0.2s0.9,0.4,1.2,0.6l-0.7,0.9c-0.2-0.2-0.5-0.4-0.9-0.5C851.3,245.9,851,245.8,850.6,245.8z"/>
	<path class="st0" d="M857.7,246v6.2h-1.2V246h-2.2v-1.1h5.7v1.1H857.7z"/>
	<path class="st0" d="M867.1,247.2c0,1.2-0.5,2-1.6,2.3l1.9,2.6h-1.6l-1.7-2.5h-1.6v2.5h-1.2v-7.3h2.7c1.1,0,1.9,0.2,2.4,0.6
		C866.9,245.8,867.1,246.4,867.1,247.2z M865.5,248.2c0.3-0.2,0.4-0.6,0.4-1c0-0.5-0.1-0.8-0.4-1c-0.3-0.2-0.7-0.3-1.4-0.3h-1.6v2.6
		h1.5C864.7,248.6,865.2,248.5,865.5,248.2z"/>
	<path class="st0" d="M869.9,250.5l-0.7,1.7h-1.3l3.2-7.3h1.3l3.2,7.3h-1.3l-0.7-1.7H869.9z M873.1,249.3l-1.3-3l-1.3,3H873.1z"/>
	<path class="st0" d="M879.9,251c0.4,0,0.8-0.1,1.1-0.2c0.3-0.1,0.6-0.4,1-0.7l0.8,0.8c-0.7,0.8-1.6,1.2-2.6,1.3l-0.2,0.3
		c0.5,0.1,0.7,0.3,0.7,0.8c0,0.3-0.1,0.5-0.3,0.7c-0.2,0.2-0.5,0.3-0.8,0.3s-0.6-0.1-0.9-0.2l0.3-0.6c0.1,0.1,0.3,0.1,0.4,0.1
		s0.2,0,0.3-0.1c0.1-0.1,0.1-0.2,0.1-0.3s0-0.2-0.1-0.3c-0.1-0.1-0.2-0.1-0.3-0.1c-0.1,0-0.2,0-0.3,0.1l0.3-0.7
		c-1-0.1-1.7-0.5-2.3-1.2c-0.6-0.7-0.9-1.6-0.9-2.6s0.4-1.9,1.1-2.6s1.7-1.1,2.8-1.1s2.1,0.4,2.8,1.3l-0.8,0.9
		c-0.3-0.3-0.7-0.6-1-0.7c-0.3-0.1-0.7-0.2-1.1-0.2c-0.7,0-1.4,0.2-1.9,0.7c-0.5,0.5-0.8,1.1-0.8,1.8c0,0.7,0.2,1.4,0.7,1.9
		C878.7,250.8,879.3,251,879.9,251z"/>
	<path class="st0" d="M887.7,244.8l3.2,7.3h-1.4l-0.7-1.7h-3.5l-0.7,1.7h-1.3l3.2-7.3H887.7z M887.9,244.3c-0.2,0-0.4-0.1-0.8-0.2
		c-0.3-0.2-0.5-0.2-0.6-0.2c-0.2,0-0.3,0.2-0.4,0.5h-0.8c0-0.4,0.1-0.7,0.2-1c0.2-0.3,0.4-0.4,0.7-0.4c0.2,0,0.4,0.1,0.8,0.2
		c0.3,0.2,0.6,0.2,0.7,0.2c0.2,0,0.3-0.2,0.3-0.5h0.8C888.8,243.8,888.5,244.3,887.9,244.3z M888.3,249.3l-1.3-2.8l-1.2,2.8H888.3z"
		/>
	<path class="st0" d="M898,251.1c-0.7,0.7-1.6,1.1-2.7,1.1c-1.1,0-2-0.4-2.7-1.1c-0.7-0.7-1.1-1.6-1.1-2.7s0.4-2,1.1-2.7
		c0.7-0.7,1.6-1.1,2.7-1.1c1.1,0,2,0.4,2.7,1.1c0.7,0.7,1.1,1.6,1.1,2.7S898.7,250.4,898,251.1z M897.1,246.6
		c-0.5-0.5-1.1-0.8-1.8-0.8c-0.7,0-1.3,0.3-1.8,0.8s-0.7,1.1-0.7,1.9s0.2,1.4,0.7,1.9s1.1,0.8,1.8,0.8c0.7,0,1.3-0.3,1.8-0.8
		s0.7-1.1,0.7-1.9S897.6,247.1,897.1,246.6z"/>
	<path class="st0" d="M908.5,245.5c0.5,0.4,0.8,1.1,0.8,2c0,0.9-0.3,1.5-0.8,1.9c-0.5,0.4-1.3,0.6-2.4,0.6h-1.3v2.1h-1.2v-7.3h2.5
		C907.1,244.8,907.9,245.1,908.5,245.5z M907.6,248.5c0.2-0.3,0.4-0.6,0.4-1.1c0-0.5-0.2-0.9-0.5-1.1c-0.3-0.2-0.8-0.3-1.5-0.3h-1.3
		v2.9h1.4C906.9,248.9,907.3,248.8,907.6,248.5z"/>
	<path class="st0" d="M912.3,250.5c0.3,0.4,0.8,0.6,1.4,0.6s1-0.2,1.4-0.6c0.3-0.4,0.5-0.9,0.5-1.6v-4h1.2v4.1
		c0,1.1-0.3,1.9-0.9,2.4c-0.6,0.6-1.3,0.9-2.2,0.9s-1.6-0.3-2.2-0.9c-0.6-0.6-0.9-1.4-0.9-2.4v-4.1h1.2v4
		C911.8,249.5,912,250.1,912.3,250.5z M914,244.2h-1.1l1.1-1.5l1.2,0.5L914,244.2z"/>
	<path class="st0" d="M921.9,252.1h-3.2v-7.3h2.8c0.5,0,0.9,0.1,1.3,0.2c0.4,0.1,0.6,0.3,0.8,0.5c0.3,0.4,0.5,0.8,0.5,1.3
		c0,0.6-0.2,1-0.5,1.3c-0.1,0.1-0.2,0.2-0.3,0.2s-0.1,0.1-0.3,0.1c0.5,0.1,0.8,0.3,1.1,0.6s0.4,0.7,0.4,1.2c0,0.5-0.2,1-0.5,1.3
		C923.6,251.9,922.9,252.1,921.9,252.1z M919.9,247.9h1.6c0.9,0,1.3-0.3,1.3-0.9c0-0.3-0.1-0.6-0.3-0.8c-0.2-0.2-0.5-0.2-1-0.2h-1.6
		V247.9z M919.9,251h1.9c0.5,0,0.8-0.1,1-0.2c0.2-0.1,0.4-0.4,0.4-0.8c0-0.6-0.5-1-1.6-1h-1.8V251z"/>
	<path class="st0" d="M926,252.1v-7.3h1.2v6.1h3.3v1.2H926z"/>
	<path class="st0" d="M931.9,244.8h1.2v7.3h-1.2V244.8z"/>
	<path class="st0" d="M938.5,251c0.4,0,0.8-0.1,1.1-0.2c0.3-0.1,0.6-0.4,1-0.7l0.8,0.8c-0.8,0.9-1.7,1.3-2.8,1.3
		c-1.1,0-2-0.4-2.7-1.1c-0.7-0.7-1.1-1.6-1.1-2.7c0-1.1,0.4-2,1.1-2.7s1.7-1.1,2.8-1.1s2.1,0.4,2.8,1.3l-0.8,0.9
		c-0.3-0.3-0.7-0.6-1-0.7c-0.3-0.1-0.7-0.2-1.1-0.2c-0.7,0-1.4,0.2-1.9,0.7c-0.5,0.5-0.8,1.1-0.8,1.8c0,0.7,0.2,1.4,0.7,1.9
		C937.2,250.8,937.8,251,938.5,251z"/>
	<path class="st0" d="M943.9,250.5l-0.7,1.7h-1.3l3.2-7.3h1.3l3.2,7.3h-1.3l-0.7-1.7H943.9z M947,249.3l-1.3-3l-1.3,3H947z"/>
</g>
<path class="st1" d="M878.8,196.2L878.8,196.2c-45.4,0-82.2-36.8-82.2-82.2v0c0-45.4,36.8-82.2,82.2-82.2h0
	c45.4,0,82.2,36.8,82.2,82.2v0C960.9,159.4,924.1,196.2,878.8,196.2z"/>
<g>
	<path class="st0" d="M1044.7,233.3v-1.1h3.5v4.8c0,0.8-0.2,1.5-0.6,1.9c-0.4,0.4-1,0.6-1.7,0.6c-0.8,0-1.6-0.3-2.2-0.9l0.7-1
		c0.5,0.5,0.9,0.7,1.4,0.7c0.3,0,0.6-0.1,0.8-0.3c0.2-0.2,0.3-0.5,0.3-1v-3.8H1044.7z"/>
	<path class="st0" d="M1051.8,237.8c0.3,0.4,0.8,0.6,1.4,0.6s1-0.2,1.4-0.6c0.3-0.4,0.5-0.9,0.5-1.6v-4h1.2v4.1
		c0,1.1-0.3,1.9-0.9,2.4c-0.6,0.6-1.3,0.9-2.2,0.9s-1.6-0.3-2.2-0.9c-0.6-0.6-0.9-1.4-0.9-2.4v-4.1h1.2v4
		C1051.3,236.9,1051.5,237.4,1051.8,237.8z"/>
	<path class="st0" d="M1060.4,233.1c-0.4,0-0.7,0.1-0.9,0.2s-0.3,0.4-0.3,0.7c0,0.3,0.1,0.5,0.3,0.7c0.2,0.2,0.7,0.3,1.5,0.5
		c0.7,0.2,1.3,0.4,1.7,0.8c0.4,0.3,0.6,0.8,0.6,1.4s-0.2,1.2-0.7,1.5c-0.5,0.4-1.1,0.6-1.9,0.6c-1.1,0-2.2-0.4-3-1.2l0.8-0.9
		c0.7,0.6,1.5,1,2.3,1c0.4,0,0.7-0.1,0.9-0.3c0.2-0.2,0.3-0.4,0.3-0.7c0-0.3-0.1-0.5-0.3-0.7c-0.2-0.2-0.6-0.3-1.1-0.4
		c-0.5-0.1-0.9-0.2-1.2-0.4c-0.3-0.1-0.5-0.2-0.7-0.4c-0.4-0.3-0.6-0.8-0.6-1.5s0.2-1.2,0.7-1.6c0.5-0.4,1.1-0.5,1.8-0.5
		c0.5,0,0.9,0.1,1.4,0.2s0.9,0.4,1.2,0.6l-0.7,0.9c-0.2-0.2-0.5-0.4-0.9-0.5C1061.1,233.2,1060.7,233.1,1060.4,233.1z"/>
	<path class="st0" d="M1067.5,233.3v6.2h-1.2v-6.2h-2.2v-1.1h5.7v1.1H1067.5z"/>
	<path class="st0" d="M1071,232.2h1.2v7.3h-1.2V232.2z"/>
	<path class="st0" d="M1077.6,238.3c0.4,0,0.8-0.1,1.1-0.2c0.3-0.1,0.6-0.4,1-0.7l0.8,0.8c-0.7,0.8-1.6,1.2-2.6,1.3l-0.2,0.3
		c0.5,0.1,0.7,0.3,0.7,0.8c0,0.3-0.1,0.5-0.3,0.7c-0.2,0.2-0.5,0.3-0.8,0.3s-0.6-0.1-0.9-0.2l0.3-0.6c0.1,0.1,0.3,0.1,0.4,0.1
		s0.2,0,0.3-0.1c0.1-0.1,0.1-0.2,0.1-0.3s0-0.2-0.1-0.3c-0.1-0.1-0.2-0.1-0.3-0.1c-0.1,0-0.2,0-0.3,0.1l0.3-0.7
		c-1-0.1-1.7-0.5-2.3-1.2c-0.6-0.7-0.9-1.6-0.9-2.6s0.4-1.9,1.1-2.6s1.7-1.1,2.8-1.1s2.1,0.4,2.8,1.3l-0.8,0.9
		c-0.3-0.3-0.7-0.6-1-0.7c-0.3-0.1-0.7-0.2-1.1-0.2c-0.7,0-1.4,0.2-1.9,0.7c-0.5,0.5-0.8,1.1-0.8,1.8c0,0.7,0.2,1.4,0.7,1.9
		C1076.4,238.1,1076.9,238.3,1077.6,238.3z"/>
	<path class="st0" d="M1083,237.8l-0.7,1.7h-1.3l3.2-7.3h1.3l3.2,7.3h-1.3l-0.7-1.7H1083z M1086.2,236.7l-1.3-3l-1.3,3H1086.2z"/>
</g>
<path class="st1" d="M1066.1,196.2L1066.1,196.2c-45.4,0-82.2-36.8-82.2-82.2v0c0-45.4,36.8-82.2,82.2-82.2h0
	c45.4,0,82.2,36.8,82.2,82.2v0C1148.2,159.4,1111.4,196.2,1066.1,196.2z"/>
<g>
	<path class="st0" d="M1194.3,232.8c0.5,0.4,0.8,1.1,0.8,2c0,0.9-0.3,1.5-0.8,1.9c-0.5,0.4-1.3,0.6-2.4,0.6h-1.3v2.1h-1.2v-7.3h2.5
		C1193,232.1,1193.8,232.4,1194.3,232.8z M1193.5,235.8c0.2-0.3,0.4-0.6,0.4-1.1c0-0.5-0.2-0.9-0.5-1.1c-0.3-0.2-0.8-0.3-1.5-0.3
		h-1.3v2.9h1.4C1192.8,236.2,1193.2,236.1,1193.5,235.8z"/>
	<path class="st0" d="M1202.7,238.4c-0.7,0.7-1.6,1.1-2.7,1.1c-1.1,0-2-0.4-2.7-1.1c-0.7-0.7-1.1-1.6-1.1-2.7s0.4-2,1.1-2.7
		c0.7-0.7,1.6-1.1,2.7-1.1c1.1,0,2,0.4,2.7,1.1c0.7,0.7,1.1,1.6,1.1,2.7S1203.4,237.7,1202.7,238.4z M1201.8,233.9
		c-0.5-0.5-1.1-0.8-1.8-0.8c-0.7,0-1.3,0.3-1.8,0.8s-0.7,1.1-0.7,1.9s0.2,1.4,0.7,1.9s1.1,0.8,1.8,0.8c0.7,0,1.3-0.3,1.8-0.8
		s0.7-1.1,0.7-1.9S1202.3,234.4,1201.8,233.9z"/>
	<path class="st0" d="M1210.2,232.8c0.5,0.4,0.8,1.1,0.8,2c0,0.9-0.3,1.5-0.8,1.9c-0.5,0.4-1.3,0.6-2.4,0.6h-1.3v2.1h-1.2v-7.3h2.5
		C1208.9,232.1,1209.7,232.4,1210.2,232.8z M1209.4,235.8c0.2-0.3,0.4-0.6,0.4-1.1c0-0.5-0.2-0.9-0.5-1.1c-0.3-0.2-0.8-0.3-1.5-0.3
		h-1.3v2.9h1.4C1208.7,236.2,1209.1,236.1,1209.4,235.8z"/>
	<path class="st0" d="M1214.1,237.8c0.3,0.4,0.8,0.6,1.4,0.6s1-0.2,1.4-0.6c0.3-0.4,0.5-0.9,0.5-1.6v-4h1.2v4.1
		c0,1.1-0.3,1.9-0.9,2.4c-0.6,0.6-1.3,0.9-2.2,0.9s-1.6-0.3-2.2-0.9c-0.6-0.6-0.9-1.4-0.9-2.4v-4.1h1.2v4
		C1213.6,236.9,1213.8,237.4,1214.1,237.8z"/>
	<path class="st0" d="M1220.5,239.4v-7.3h1.2v6.1h3.3v1.2H1220.5z"/>
	<path class="st0" d="M1227.4,237.8l-0.7,1.7h-1.3l3.2-7.3h1.3l3.2,7.3h-1.3l-0.7-1.7H1227.4z M1230.5,236.6l-1.3-3l-1.3,3H1230.5z"
		/>
	<path class="st0" d="M1237.4,238.3c0.4,0,0.8-0.1,1.1-0.2c0.3-0.1,0.6-0.4,1-0.7l0.8,0.8c-0.7,0.8-1.6,1.2-2.6,1.3l-0.2,0.3
		c0.5,0.1,0.7,0.3,0.7,0.8c0,0.3-0.1,0.5-0.3,0.7c-0.2,0.2-0.5,0.3-0.8,0.3s-0.6-0.1-0.9-0.2l0.3-0.6c0.1,0.1,0.3,0.1,0.4,0.1
		s0.2,0,0.3-0.1c0.1-0.1,0.1-0.2,0.1-0.3s0-0.2-0.1-0.3c-0.1-0.1-0.2-0.1-0.3-0.1c-0.1,0-0.2,0-0.3,0.1l0.3-0.7
		c-1-0.1-1.7-0.5-2.3-1.2c-0.6-0.7-0.9-1.6-0.9-2.6s0.4-1.9,1.1-2.6s1.7-1.1,2.8-1.1s2.1,0.4,2.8,1.3l-0.8,0.9
		c-0.3-0.3-0.7-0.6-1-0.7c-0.3-0.1-0.7-0.2-1.1-0.2c-0.7,0-1.4,0.2-1.9,0.7c-0.5,0.5-0.8,1.1-0.8,1.8c0,0.7,0.2,1.4,0.7,1.9
		C1236.2,238.1,1236.8,238.3,1237.4,238.3z"/>
	<path class="st0" d="M1245.2,232.1l3.2,7.3h-1.4l-0.7-1.7h-3.5l-0.7,1.7h-1.3l3.2-7.3H1245.2z M1245.3,231.6
		c-0.2,0-0.4-0.1-0.8-0.2c-0.3-0.2-0.5-0.2-0.6-0.2c-0.2,0-0.3,0.2-0.4,0.5h-0.8c0-0.4,0.1-0.7,0.2-1c0.2-0.3,0.4-0.4,0.7-0.4
		c0.2,0,0.4,0.1,0.8,0.2c0.3,0.2,0.6,0.2,0.7,0.2c0.2,0,0.3-0.2,0.3-0.5h0.8C1246.3,231.1,1246,231.6,1245.3,231.6z M1245.8,236.6
		l-1.3-2.8l-1.2,2.8H1245.8z"/>
	<path class="st0" d="M1255.5,238.4c-0.7,0.7-1.6,1.1-2.7,1.1c-1.1,0-2-0.4-2.7-1.1c-0.7-0.7-1.1-1.6-1.1-2.7s0.4-2,1.1-2.7
		c0.7-0.7,1.6-1.1,2.7-1.1c1.1,0,2,0.4,2.7,1.1c0.7,0.7,1.1,1.6,1.1,2.7S1256.2,237.7,1255.5,238.4z M1254.6,233.9
		c-0.5-0.5-1.1-0.8-1.8-0.8c-0.7,0-1.3,0.3-1.8,0.8s-0.7,1.1-0.7,1.9s0.2,1.4,0.7,1.9s1.1,0.8,1.8,0.8c0.7,0,1.3-0.3,1.8-0.8
		s0.7-1.1,0.7-1.9S1255.1,234.4,1254.6,233.9z"/>
	<path class="st0" d="M1266.1,232.1v1.2h-3.9v1.9h3.5v1.1h-3.5v2h4v1.2h-5.2v-7.3H1266.1z"/>
	<path class="st0" d="M1272.9,233.1c-0.4,0-0.7,0.1-0.9,0.2s-0.3,0.4-0.3,0.7c0,0.3,0.1,0.5,0.3,0.7c0.2,0.2,0.7,0.3,1.5,0.5
		c0.7,0.2,1.3,0.4,1.7,0.8c0.4,0.3,0.6,0.8,0.6,1.4s-0.2,1.2-0.7,1.5c-0.5,0.4-1.1,0.6-1.9,0.6c-1.1,0-2.2-0.4-3-1.2l0.8-0.9
		c0.7,0.6,1.5,1,2.3,1c0.4,0,0.7-0.1,0.9-0.3c0.2-0.2,0.3-0.4,0.3-0.7c0-0.3-0.1-0.5-0.3-0.7c-0.2-0.2-0.6-0.3-1.1-0.4
		c-0.5-0.1-0.9-0.2-1.2-0.4c-0.3-0.1-0.5-0.2-0.7-0.4c-0.4-0.3-0.6-0.8-0.6-1.5s0.2-1.2,0.7-1.6c0.5-0.4,1.1-0.5,1.8-0.5
		c0.5,0,0.9,0.1,1.4,0.2s0.9,0.4,1.2,0.6l-0.7,0.9c-0.2-0.2-0.5-0.4-0.9-0.5C1273.6,233.2,1273.3,233.1,1272.9,233.1z"/>
	<path class="st0" d="M1283.4,238.4c-0.7,0.7-1.6,1.1-2.7,1.1c-1.1,0-2-0.4-2.7-1.1c-0.7-0.7-1.1-1.6-1.1-2.7s0.4-2,1.1-2.7
		c0.7-0.7,1.6-1.1,2.7-1.1c1.1,0,2,0.4,2.7,1.1c0.7,0.7,1.1,1.6,1.1,2.7S1284.1,237.7,1283.4,238.4z M1282.5,233.9
		c-0.5-0.5-1.1-0.8-1.8-0.8c-0.7,0-1.3,0.3-1.8,0.8s-0.7,1.1-0.7,1.9s0.2,1.4,0.7,1.9s1.1,0.8,1.8,0.8c0.7,0,1.3-0.3,1.8-0.8
		s0.7-1.1,0.7-1.9S1283,234.4,1282.5,233.9z"/>
	<path class="st0" d="M1289.3,238.3c0.4,0,0.8-0.1,1.1-0.2c0.3-0.1,0.6-0.4,1-0.7l0.8,0.8c-0.8,0.9-1.7,1.3-2.8,1.3
		c-1.1,0-2-0.4-2.7-1.1c-0.7-0.7-1.1-1.6-1.1-2.7c0-1.1,0.4-2,1.1-2.7s1.7-1.1,2.8-1.1s2.1,0.4,2.8,1.3l-0.8,0.9
		c-0.3-0.3-0.7-0.6-1-0.7c-0.3-0.1-0.7-0.2-1.1-0.2c-0.7,0-1.4,0.2-1.9,0.7c-0.5,0.5-0.8,1.1-0.8,1.8c0,0.7,0.2,1.4,0.7,1.9
		C1288.1,238.1,1288.7,238.3,1289.3,238.3z"/>
	<path class="st0" d="M1293.7,232.1h1.2v7.3h-1.2V232.1z"/>
	<path class="st0" d="M1302.1,232.1v1.2h-3.9v1.9h3.5v1.1h-3.5v2h4v1.2h-5.2v-7.3H1302.1z"/>
	<path class="st0" d="M1309.3,233.1c0.7,0.6,1.1,1.5,1.1,2.7s-0.3,2-1,2.7c-0.7,0.7-1.7,1-3.1,1h-2.4v-7.3h2.5
		C1307.6,232.1,1308.6,232.5,1309.3,233.1z M1309.1,235.8c0-1.7-1-2.5-2.9-2.5h-1.2v5h1.4c0.9,0,1.6-0.2,2-0.6
		C1308.9,237.2,1309.1,236.6,1309.1,235.8z"/>
	<path class="st0" d="M1313,237.8l-0.7,1.7h-1.3l3.2-7.3h1.3l3.2,7.3h-1.3l-0.7-1.7H1313z M1316.1,236.6l-1.3-3l-1.3,3H1316.1z"/>
	<path class="st0" d="M1325.2,233.1c0.7,0.6,1.1,1.5,1.1,2.7s-0.3,2-1,2.7c-0.7,0.7-1.7,1-3.1,1h-2.4v-7.3h2.5
		C1323.5,232.1,1324.5,232.5,1325.2,233.1z M1325,235.8c0-1.7-1-2.5-2.9-2.5h-1.2v5h1.4c0.9,0,1.6-0.2,2-0.6
		C1324.8,237.2,1325,236.6,1325,235.8z"/>
	<path class="st0" d="M1332.9,232.1v1.2h-3.9v1.9h3.5v1.1h-3.5v2h4v1.2h-5.2v-7.3H1332.9z"/>
</g>
<path class="st1" d="M1261,196.2L1261,196.2c-45.4,0-82.2-36.8-82.2-82.2v0c0-45.4,36.8-82.2,82.2-82.2h0
	c45.4,0,82.2,36.8,82.2,82.2v0C1343.2,159.4,1306.4,196.2,1261,196.2z"/>
<g>
	<path class="st0" d="M1441.5,233.1c-0.4,0-0.7,0.1-0.9,0.2s-0.3,0.4-0.3,0.7c0,0.3,0.1,0.5,0.3,0.7c0.2,0.2,0.7,0.3,1.5,0.5
		c0.7,0.2,1.3,0.4,1.7,0.8c0.4,0.3,0.6,0.8,0.6,1.4s-0.2,1.2-0.7,1.5c-0.5,0.4-1.1,0.6-1.9,0.6c-1.1,0-2.2-0.4-3-1.2l0.8-0.9
		c0.7,0.6,1.5,1,2.3,1c0.4,0,0.7-0.1,0.9-0.3c0.2-0.2,0.3-0.4,0.3-0.7c0-0.3-0.1-0.5-0.3-0.7c-0.2-0.2-0.6-0.3-1.1-0.4
		c-0.5-0.1-0.9-0.2-1.2-0.4c-0.3-0.1-0.5-0.2-0.7-0.4c-0.4-0.3-0.6-0.8-0.6-1.5s0.2-1.2,0.7-1.6c0.5-0.4,1.1-0.5,1.8-0.5
		c0.5,0,0.9,0.1,1.4,0.2s0.9,0.4,1.2,0.6l-0.7,0.9c-0.2-0.2-0.5-0.4-0.9-0.5C1442.2,233.2,1441.8,233.1,1441.5,233.1z"/>
	<path class="st0" d="M1446.8,237.8l-0.7,1.7h-1.3l3.2-7.3h1.3l3.2,7.3h-1.3l-0.7-1.7H1446.8z M1450,236.6l-1.3-3l-1.3,3H1450z"/>
	<path class="st0" d="M1455.1,237.8c0.3,0.4,0.8,0.6,1.4,0.6s1-0.2,1.4-0.6c0.3-0.4,0.5-0.9,0.5-1.6v-4h1.2v4.1
		c0,1.1-0.3,1.9-0.9,2.4c-0.6,0.6-1.3,0.9-2.2,0.9s-1.6-0.3-2.2-0.9c-0.6-0.6-0.9-1.4-0.9-2.4v-4.1h1.2v4
		C1454.6,236.8,1454.8,237.4,1455.1,237.8z M1456.8,231.5h-1.1l1.1-1.5l1.2,0.5L1456.8,231.5z"/>
	<path class="st0" d="M1467,233.1c0.7,0.6,1.1,1.5,1.1,2.7s-0.3,2-1,2.7c-0.7,0.7-1.7,1-3.1,1h-2.4v-7.3h2.5
		C1465.3,232.1,1466.3,232.4,1467,233.1z M1466.8,235.8c0-1.7-1-2.5-2.9-2.5h-1.2v5h1.4c0.9,0,1.6-0.2,2-0.6
		C1466.6,237.2,1466.8,236.6,1466.8,235.8z"/>
	<path class="st0" d="M1474.8,232.1v1.2h-3.9v1.9h3.5v1.1h-3.5v2h4v1.2h-5.2v-7.3H1474.8z"/>
</g>
<path class="st1" d="M1457.5,196.2L1457.5,196.2c-45.4,0-82.2-36.8-82.2-82.2v0c0-45.4,36.8-82.2,82.2-82.2h0
	c45.4,0,82.2,36.8,82.2,82.2v0C1539.7,159.4,1502.9,196.2,1457.5,196.2z"/>
<g>
	<path class="st0" d="M1839.1,233.2v6.2h-1.2v-6.2h-2.2v-1.1h5.7v1.1H1839.1z"/>
	<path class="st0" d="M1844.3,237.7c0.3,0.4,0.8,0.6,1.4,0.6s1-0.2,1.4-0.6c0.3-0.4,0.5-0.9,0.5-1.6v-4h1.2v4.1
		c0,1.1-0.3,1.9-0.9,2.4c-0.6,0.6-1.3,0.9-2.2,0.9s-1.6-0.3-2.2-0.9c-0.6-0.6-0.9-1.4-0.9-2.4v-4.1h1.2v4
		C1843.8,236.8,1844,237.3,1844.3,237.7z"/>
	<path class="st0" d="M1856.5,234.5c0,1.2-0.5,2-1.6,2.3l1.9,2.6h-1.6l-1.7-2.5h-1.6v2.5h-1.2v-7.3h2.7c1.1,0,1.9,0.2,2.4,0.6
		C1856.2,233,1856.5,233.6,1856.5,234.5z M1854.8,235.5c0.3-0.2,0.4-0.6,0.4-1c0-0.5-0.1-0.8-0.4-1c-0.3-0.2-0.7-0.3-1.4-0.3h-1.6
		v2.6h1.5C1854.1,235.8,1854.6,235.7,1854.8,235.5z"/>
	<path class="st0" d="M1858.3,232.1h1.2v7.3h-1.2V232.1z"/>
	<path class="st0" d="M1863.7,233.1c-0.4,0-0.7,0.1-0.9,0.2s-0.3,0.4-0.3,0.7c0,0.3,0.1,0.5,0.3,0.7c0.2,0.2,0.7,0.3,1.5,0.5
		c0.7,0.2,1.3,0.4,1.7,0.8c0.4,0.3,0.6,0.8,0.6,1.4s-0.2,1.2-0.7,1.5c-0.5,0.4-1.1,0.6-1.9,0.6c-1.1,0-2.2-0.4-3-1.2l0.8-0.9
		c0.7,0.6,1.5,1,2.3,1c0.4,0,0.7-0.1,0.9-0.3c0.2-0.2,0.3-0.4,0.3-0.7c0-0.3-0.1-0.5-0.3-0.7c-0.2-0.2-0.6-0.3-1.1-0.4
		c-0.5-0.1-0.9-0.2-1.2-0.4c-0.3-0.1-0.5-0.2-0.7-0.4c-0.4-0.3-0.6-0.8-0.6-1.5s0.2-1.2,0.7-1.6c0.5-0.4,1.1-0.5,1.8-0.5
		c0.5,0,0.9,0.1,1.4,0.2s0.9,0.4,1.2,0.6l-0.7,0.9c-0.2-0.2-0.5-0.4-0.9-0.5C1864.4,233.1,1864.1,233.1,1863.7,233.1z"/>
	<path class="st0" d="M1869.3,239.4h-1.2v-7.3h1.9l2.2,4.6l2.2-4.6h1.9v7.3h-1.2v-5.7l-2.5,5.1h-0.7l-2.5-5.1V239.4z"/>
	<path class="st0" d="M1884.4,238.4c-0.7,0.7-1.6,1.1-2.7,1.1c-1.1,0-2-0.4-2.7-1.1c-0.7-0.7-1.1-1.6-1.1-2.7s0.4-2,1.1-2.7
		c0.7-0.7,1.6-1.1,2.7-1.1c1.1,0,2,0.4,2.7,1.1c0.7,0.7,1.1,1.6,1.1,2.7S1885.2,237.7,1884.4,238.4z M1883.5,233.8
		c-0.5-0.5-1.1-0.8-1.8-0.8c-0.7,0-1.3,0.3-1.8,0.8s-0.7,1.1-0.7,1.9s0.2,1.4,0.7,1.9s1.1,0.8,1.8,0.8c0.7,0,1.3-0.3,1.8-0.8
		s0.7-1.1,0.7-1.9S1884,234.3,1883.5,233.8z"/>
	<path class="st0" d="M1803.7,250.9c0.4,0,0.8-0.1,1.1-0.2c0.3-0.1,0.6-0.4,1-0.7l0.8,0.8c-0.8,0.9-1.7,1.3-2.8,1.3
		c-1.1,0-2-0.4-2.7-1.1c-0.7-0.7-1.1-1.6-1.1-2.7c0-1.1,0.4-2,1.1-2.7s1.7-1.1,2.8-1.1s2.1,0.4,2.8,1.3l-0.8,0.9
		c-0.3-0.3-0.7-0.6-1-0.7c-0.3-0.1-0.7-0.2-1.1-0.2c-0.7,0-1.4,0.2-1.9,0.7c-0.5,0.5-0.8,1.1-0.8,1.8c0,0.7,0.2,1.4,0.7,1.9
		C1802.4,250.7,1803,250.9,1803.7,250.9z"/>
	<path class="st0" d="M1809.6,250.4c0.3,0.4,0.8,0.6,1.4,0.6s1-0.2,1.4-0.6c0.3-0.4,0.5-0.9,0.5-1.6v-4h1.2v4.1
		c0,1.1-0.3,1.9-0.9,2.4c-0.6,0.6-1.3,0.9-2.2,0.9s-1.6-0.3-2.2-0.9c-0.6-0.6-0.9-1.4-0.9-2.4v-4.1h1.2v4
		C1809.1,249.4,1809.3,250,1809.6,250.4z"/>
	<path class="st0" d="M1816,252v-7.3h1.2v6.1h3.3v1.2H1816z"/>
	<path class="st0" d="M1823.9,245.9v6.2h-1.2v-6.2h-2.2v-1.1h5.7v1.1H1823.9z"/>
	<path class="st0" d="M1829.1,250.4c0.3,0.4,0.8,0.6,1.4,0.6s1-0.2,1.4-0.6c0.3-0.4,0.5-0.9,0.5-1.6v-4h1.2v4.1
		c0,1.1-0.3,1.9-0.9,2.4c-0.6,0.6-1.3,0.9-2.2,0.9s-1.6-0.3-2.2-0.9c-0.6-0.6-0.9-1.4-0.9-2.4v-4.1h1.2v4
		C1828.6,249.4,1828.8,250,1829.1,250.4z"/>
	<path class="st0" d="M1841.3,247.1c0,1.2-0.5,2-1.6,2.3l1.9,2.6h-1.6l-1.7-2.5h-1.6v2.5h-1.2v-7.3h2.7c1.1,0,1.9,0.2,2.4,0.6
		C1841.1,245.7,1841.3,246.3,1841.3,247.1z M1839.7,248.1c0.3-0.2,0.4-0.6,0.4-1c0-0.5-0.1-0.8-0.4-1c-0.3-0.2-0.7-0.3-1.4-0.3h-1.6
		v2.6h1.5C1838.9,248.5,1839.4,248.4,1839.7,248.1z"/>
	<path class="st0" d="M1844.1,250.4l-0.7,1.7h-1.3l3.2-7.3h1.3l3.2,7.3h-1.3l-0.7-1.7H1844.1z M1847.2,249.2l-1.3-3l-1.3,3H1847.2z"
		/>
	<path class="st0" d="M1858.8,244.7v1.2h-3.9v1.9h3.5v1.1h-3.5v2h4v1.2h-5.2v-7.3H1858.8z"/>
	<path class="st0" d="M1868.9,245.7c0.7,0.6,1.1,1.5,1.1,2.7s-0.3,2-1,2.7c-0.7,0.7-1.7,1-3.1,1h-2.4v-7.3h2.5
		C1867.1,244.7,1868.2,245.1,1868.9,245.7z M1868.7,248.4c0-1.7-1-2.5-2.9-2.5h-1.2v5h1.4c0.9,0,1.6-0.2,2-0.6
		C1868.4,249.8,1868.7,249.2,1868.7,248.4z"/>
	<path class="st0" d="M1876.6,244.7v1.2h-3.9v1.9h3.5v1.1h-3.5v2h4v1.2h-5.2v-7.3H1876.6z"/>
	<path class="st0" d="M1880.5,245.7c-0.4,0-0.7,0.1-0.9,0.2s-0.3,0.4-0.3,0.7c0,0.3,0.1,0.5,0.3,0.7c0.2,0.2,0.7,0.3,1.5,0.5
		c0.7,0.2,1.3,0.4,1.7,0.8c0.4,0.3,0.6,0.8,0.6,1.4s-0.2,1.2-0.7,1.5c-0.5,0.4-1.1,0.6-1.9,0.6c-1.1,0-2.2-0.4-3-1.2l0.8-0.9
		c0.7,0.6,1.5,1,2.3,1c0.4,0,0.7-0.1,0.9-0.3c0.2-0.2,0.3-0.4,0.3-0.7c0-0.3-0.1-0.5-0.3-0.7c-0.2-0.2-0.6-0.3-1.1-0.4
		c-0.5-0.1-0.9-0.2-1.2-0.4c-0.3-0.1-0.5-0.2-0.7-0.4c-0.4-0.3-0.6-0.8-0.6-1.5s0.2-1.2,0.7-1.6c0.5-0.4,1.1-0.5,1.8-0.5
		c0.5,0,0.9,0.1,1.4,0.2s0.9,0.4,1.2,0.6l-0.7,0.9c-0.2-0.2-0.5-0.4-0.9-0.5C1881.2,245.8,1880.9,245.7,1880.5,245.7z"/>
	<path class="st0" d="M1889.8,245.4c0.5,0.4,0.8,1.1,0.8,2c0,0.9-0.3,1.5-0.8,1.9c-0.5,0.4-1.3,0.6-2.4,0.6h-1.3v2.1h-1.2v-7.3h2.5
		C1888.5,244.7,1889.3,245,1889.8,245.4z M1888.9,248.4c0.2-0.3,0.4-0.6,0.4-1.1c0-0.5-0.2-0.9-0.5-1.1c-0.3-0.2-0.8-0.3-1.5-0.3
		h-1.3v2.9h1.4C1888.2,248.8,1888.7,248.6,1888.9,248.4z"/>
	<path class="st0" d="M1898.1,251c-0.7,0.7-1.6,1.1-2.7,1.1c-1.1,0-2-0.4-2.7-1.1c-0.7-0.7-1.1-1.6-1.1-2.7s0.4-2,1.1-2.7
		c0.7-0.7,1.6-1.1,2.7-1.1c1.1,0,2,0.4,2.7,1.1c0.7,0.7,1.1,1.6,1.1,2.7S1898.9,250.3,1898.1,251z M1897.2,246.5
		c-0.5-0.5-1.1-0.8-1.8-0.8c-0.7,0-1.3,0.3-1.8,0.8s-0.7,1.1-0.7,1.9s0.2,1.4,0.7,1.9s1.1,0.8,1.8,0.8c0.7,0,1.3-0.3,1.8-0.8
		s0.7-1.1,0.7-1.9S1897.7,247,1897.2,246.5z"/>
	<path class="st0" d="M1906.6,247.1c0,1.2-0.5,2-1.6,2.3l1.9,2.6h-1.6l-1.7-2.5h-1.6v2.5h-1.2v-7.3h2.7c1.1,0,1.9,0.2,2.4,0.6
		C1906.4,245.7,1906.6,246.3,1906.6,247.1z M1905,248.1c0.3-0.2,0.4-0.6,0.4-1c0-0.5-0.1-0.8-0.4-1c-0.3-0.2-0.7-0.3-1.4-0.3h-1.6
		v2.6h1.5C1904.2,248.5,1904.7,248.4,1905,248.1z"/>
	<path class="st0" d="M1911,245.9v6.2h-1.2v-6.2h-2.2v-1.1h5.7v1.1H1911z"/>
	<path class="st0" d="M1920.5,251c-0.7,0.7-1.6,1.1-2.7,1.1c-1.1,0-2-0.4-2.7-1.1c-0.7-0.7-1.1-1.6-1.1-2.7s0.4-2,1.1-2.7
		c0.7-0.7,1.6-1.1,2.7-1.1c1.1,0,2,0.4,2.7,1.1c0.7,0.7,1.1,1.6,1.1,2.7S1921.2,250.3,1920.5,251z M1919.6,246.5
		c-0.5-0.5-1.1-0.8-1.8-0.8c-0.7,0-1.3,0.3-1.8,0.8s-0.7,1.1-0.7,1.9s0.2,1.4,0.7,1.9s1.1,0.8,1.8,0.8c0.7,0,1.3-0.3,1.8-0.8
		s0.7-1.1,0.7-1.9S1920.1,247,1919.6,246.5z"/>
</g>
<path class="st1" d="M1861.7,196.2L1861.7,196.2c-45.4,0-82.2-36.8-82.2-82.2v0c0-45.4,36.8-82.2,82.2-82.2h0
	c45.4,0,82.2,36.8,82.2,82.2v0C1943.9,159.4,1907.1,196.2,1861.7,196.2z"/>
<g>
	<g>
		<path id="XMLID_39_" class="st2" d="M1237.9,154.5c0,0.6,0.2,1.1,0.6,1.5c0.4,0.4,1,0.6,1.5,0.6l47.2,0c1.2,0,2.1-0.9,2.1-2.1
			c0-0.3,0.1-3.3-0.5-7.5l34.4,0c1.2,0,2.1-0.9,2.1-2.1c0-0.7,0.5-18-10.4-27.9c-0.8-0.7-1.9-0.7-2.7-0.1c-0.1,0.1-12.7,9.6-24.5,0
			c-0.8-0.7-2-0.6-2.7,0c-0.3,0.2-3.7,3.3-6.7,9.2c-0.7-0.3-1.5-0.2-2.1,0.3c-0.5,0.4-12.8,9.5-24.5,0c-0.6-0.5-1.3-0.6-2-0.4
			c-1.5-3.2-3.6-6.4-6.5-9c-0.8-0.7-1.9-0.7-2.7-0.1c-0.1,0.1-12.7,9.6-24.5,0c-0.8-0.7-2-0.6-2.7,0c-0.4,0.4-10.9,9.7-11.1,27.9
			c0,0.6,0.2,1.1,0.6,1.5c0.4,0.4,0.9,0.6,1.5,0.6l34.2,0C1238.2,149.4,1237.9,151.9,1237.9,154.5z"/>
		<path id="XMLID_38_" class="st2" d="M1207.8,95.2c0,11.1,9.1,20.2,20.2,20.2h0c5.4,0,10.4-2.1,14.3-5.9c0.5-0.5,1-1.1,1.5-1.7
			c1.5,9.7,9.8,17.1,19.9,17.1h0c5.4,0,10.4-2.1,14.3-5.9c3.2-3.2,5.1-7.2,5.7-11.6c3.7,4.9,9.5,8,16.1,8h0c5.4,0,10.4-2.1,14.3-5.9
			c3.8-3.8,5.9-8.9,5.9-14.3c0-11.1-9.1-20.2-20.2-20.2c-5.4,0-10.4,2.1-14.3,5.9c-3.2,3.2-5.1,7.2-5.7,11.6c-3.7-4.9-9.5-8-16.1-8
			c-5.4,0-10.4,2.1-14.3,5.9c-0.5,0.5-1,1.1-1.5,1.7c-1.5-9.7-9.8-17.1-19.9-17.1c-5.4,0-10.4,2.1-14.3,5.9
			C1209.9,84.7,1207.8,89.8,1207.8,95.2z"/>
	</g>
	<g>
		<path class="st2" d="M1284.1,133.6c0,0,1.7,1.6,1.8,3.7"/>
	</g>
	<g>
		<path class="st2" d="M1243.9,133.6c0,0-1.7,1.6-1.8,3.7"/>
	</g>
	<g>
		<circle class="st3" cx="1312.7" cy="86.9" r="0.7"/>
		<path class="st4" d="M1313.8,88.4c0,0,1.5,1.8,1.3,4"/>
	</g>
</g>
<g>
	<g>
		<circle class="st3" cx="130.9" cy="63.4" r="0.9"/>
		<path class="st5" d="M133.4,63.4c0,0,3.1-0.2,5.3,1.7"/>
	</g>
	<g>
		<path id="XMLID_37_" class="st2" d="M81,105.6c-18.1,0-32.8,14.7-32.8,32.8s14.7,32.8,32.8,32.8c14.3,0,26.5-9.2,31-22
			c2.2,0.1,4.2,0.1,5.9,0.1c10.1,0,33.5-1.1,33.5-11c0,0,0-0.1,0-0.1c0,0,0-0.1,0-0.1v-12.6v-0.6c0.1-0.3,0.1-0.6,0.1-0.9
			c0-0.3,0-0.6-0.1-0.9v-10.9c0.1-0.3,0.1-0.6,0.1-0.9c0-0.3,0-0.6-0.1-0.9V98.6c0.1-0.3,0.1-0.6,0.1-0.9c0-0.5-0.1-1-0.3-1.5
			c0.1-0.4,0.2-0.9,0.2-1.4c0,0,0-0.1,0-0.1c0,0,0-0.1,0-0.1V81.5c0.1-0.3,0.1-0.6,0.1-0.9c0-0.3,0-0.6-0.1-0.9V67.7
			c0.1-0.3,0.1-0.6,0.1-0.9c0-0.5-0.1-1-0.3-1.5c-0.3-1-0.9-1.9-1.8-2.4c-6.9-5.8-28.7-6-31.6-6c-2.9,0-24.7,0.2-31.6,6
			c-0.8,0.5-1.5,1.4-1.8,2.4c-0.2,0.5-0.3,1-0.3,1.5c0,0.3,0,0.6,0.1,0.9v12.1c-0.1,0.3-0.1,0.6-0.1,0.9c0,0.3,0,0.6,0.1,0.9v13.2
			c0,0,0,0.1,0,0.1c0,0,0,0.1,0,0.1c0,0.5,0.1,0.9,0.2,1.4c-0.2,0.5-0.3,0.9-0.3,1.5c0,0.3,0,0.6,0.1,0.9v7.2
			C83.3,105.7,82.1,105.6,81,105.6z"/>
		<path class="st2" d="M90.6,71.9c0,0,24.9,10.7,53.3,0"/>
		<path class="st2" d="M90.6,90.5c0,0,24.9,10.7,53.3,0"/>
		<path class="st2" d="M90.6,107.5c0,0,24.9,10.7,53.3,0"/>
		<path class="st2" d="M90.6,126.9c0,0,24.9,10.7,53.3,0"/>
		<path id="XMLID_36_" class="st6" d="M58.9,138.4c0,12.2,9.9,22.1,22.1,22.1c12.2,0,22.1-9.9,22.1-22.1c0-12.2-9.9-22.1-22.1-22.1
			C68.8,116.3,58.9,126.2,58.9,138.4z"/>
		<g>
			<path class="st3" d="M87.2,143.8l2.3,2.2c-0.9,1.1-2,1.9-3.4,2.4c-1.3,0.6-2.8,0.8-4.4,0.8c-1.6,0-3.1-0.3-4.5-0.9
				c-1.4-0.6-2.6-1.4-3.5-2.5c-1-1.1-1.6-2.3-2-3.8h-3.2v-2h2.8c0-0.2,0-0.5,0-1c0-0.4,0-0.7,0-1h-2.8v-2h3.2c0.4-1.4,1.1-2.7,2-3.8
				c1-1.1,2.1-1.9,3.5-2.5c1.4-0.6,2.9-0.9,4.5-0.9c1.6,0,3.1,0.3,4.4,0.8c1.3,0.6,2.5,1.4,3.4,2.4l-2.3,2.2
				c-1.4-1.5-3.2-2.3-5.3-2.3c-1.5,0-2.8,0.4-3.9,1.1c-1.1,0.7-2,1.7-2.5,2.9h8.1v2H75c0,0.4-0.1,0.7-0.1,1s0,0.5,0.1,1h8.6v2h-8.1
				c0.5,1.2,1.4,2.2,2.5,2.9c1.1,0.7,2.5,1.1,3.9,1.1C84.1,146.1,85.8,145.4,87.2,143.8z"/>
		</g>
	</g>
</g>
<path class="st2" d="M1041.1,115.6l-13.5-36.2l-13.5,36.2h-8.3c0,12.1,9.8,21.9,21.8,21.9c12.1,0,21.8-9.8,21.8-21.9H1041.1z
	 M1070.7,84.3v-4.8v-4.8h-9.7v4.8v4.8H1070.7z M1081.1,115.6c0,12.1,9.8,21.9,21.8,21.9c12.1,0,21.8-9.8,21.8-21.9h-8.3l-13.5-36.2
	l-13.5,36.2H1081.1z M1086.3,151.1h-13.4l-7-54.3l-7,54.3h-13.4v13.1h40.8V151.1z"/>
<path class="st2" d="M1041.1,115.6h8.3c0,12.1-9.8,21.9-21.8,21.9c-12.1,0-21.8-9.8-21.8-21.9h8.3H1041.1z"/>
<path class="st2" d="M1116.5,115.6h8.3c0,12.1-9.8,21.9-21.8,21.9c-12.1,0-21.8-9.8-21.8-21.9h8.3H1116.5z"/>
<polyline class="st2" points="1070.7,79.4 1102.9,79.4 1111.8,79.4 "/>
<polyline class="st2" points="1020,79.4 1027.6,79.4 1061,79.4 "/>
<polygon class="st2" points="1061,79.4 1061,74.6 1070.7,74.6 1070.7,79.4 1070.7,84.3 1061,84.3 "/>
<polygon class="st2" points="1072.9,151.1 1086.3,151.1 1086.3,164.2 1045.5,164.2 1045.5,151.1 1058.9,151.1 1059,151.1 
	1058.6,153.8 1073.2,153.8 1072.8,151.1 "/>
<g>
	<circle class="st3" cx="1121.2" cy="121" r="0.5"/>
	<path class="st7" d="M1120.8,122.3c0,0-0.2,1-0.9,1.8"/>
</g>
<g>
	<circle class="st3" cx="1045.9" cy="121" r="0.5"/>
	<path class="st7" d="M1045.6,122.3c0,0-0.2,1-0.9,1.8"/>
</g>
<g>
	<g>
		<rect x="822.5" y="120.8" class="st2" width="18.4" height="42.8"/>
		<rect x="916.1" y="120.8" class="st2" width="18.9" height="42.8"/>
		<path class="st2" d="M915.1,163.6h-72.9c-0.6,0-1-0.5-1-1v-54.4c0-0.6,0.5-1,1-1h72.9c0.6,0,1,0.5,1,1v54.4
			C916.1,163.1,915.6,163.6,915.1,163.6z"/>
		<rect x="851" y="91.2" class="st2" width="53.4" height="16"/>
		<line class="st2" x1="841.3" y1="91.1" x2="916.2" y2="91.1"/>
		<line class="st8" x1="877.9" y1="52.2" x2="877.9" y2="64.3"/>
		<path class="st2" d="M904.5,91.2c0-0.1,0-0.2,0-0.3c0-14.8-12-26.8-26.8-26.8c-14.8,0-26.8,12-26.8,26.8c0,0.1,0,0.2,0,0.3H904.5z
			"/>
	</g>
	<g>
		<circle class="st3" cx="912.2" cy="112.9" r="0.7"/>
	</g>
	<line class="st7" x1="912.3" y1="115.4" x2="912.2" y2="118.4"/>
</g>
<g>
	<g>
		<path class="st2" d="M1691.5,137.8c2.9-3.5,4.7-8,4.7-13V85.3c0-11.2-9.1-20.2-20.2-20.2h-39.5c-11.2,0-20.2,9.1-20.2,20.2v39.5
			c0,4.9,1.8,9.5,4.7,13"/>
		<path class="st2" d="M1623.9,140.8c3.4,2.7,7.8,4.3,12.5,4.3h39.5c4.7,0,9.1-1.6,12.5-4.3"/>
		<line class="st2" x1="1619.5" y1="92.3" x2="1692.4" y2="92.3"/>
		<line class="st2" x1="1657" y1="151.7" x2="1690.8" y2="151.7"/>
		<line class="st2" x1="1619.8" y1="151.7" x2="1640.3" y2="151.7"/>
		<line class="st2" x1="1647.4" y1="151.7" x2="1652.3" y2="151.7"/>
		<line class="st2" x1="1664.7" y1="159.8" x2="1698.5" y2="159.8"/>
		<line class="st2" x1="1611.8" y1="159.8" x2="1656.6" y2="159.8"/>
		<line class="st2" x1="1659.7" y1="159.8" x2="1661.5" y2="159.8"/>
		<path class="st3" d="M1673.1,133.7c4.5,0,8.1-3.7,8.1-8.1c0-4.5-3.7-8.1-8.1-8.1c-4.5,0-8.1,3.7-8.1,8.1
			C1665,130.1,1668.6,133.7,1673.1,133.7z M1673.1,121.5c2.2,0,4.1,1.8,4.1,4.1c0,2.2-1.8,4.1-4.1,4.1c-2.2,0-4.1-1.8-4.1-4.1
			C1669,123.3,1670.9,121.5,1673.1,121.5z"/>
		<path class="st3" d="M1639.3,133.7c4.5,0,8.1-3.7,8.1-8.1c0-4.5-3.7-8.1-8.1-8.1c-4.5,0-8.1,3.7-8.1,8.1
			C1631.1,130.1,1634.8,133.7,1639.3,133.7z M1639.3,121.5c2.2,0,4.1,1.8,4.1,4.1c0,2.2-1.8,4.1-4.1,4.1c-2.2,0-4.1-1.8-4.1-4.1
			C1635.2,123.3,1637.1,121.5,1639.3,121.5z"/>
		<path class="st2" d="M1668.7,74.4h-25.1c-1.1,0-2,0.9-2,2c0,1.1,0.9,2,2,2h25.1c1.1,0,2-0.9,2-2
			C1670.8,75.3,1669.9,74.4,1668.7,74.4z"/>
		<path class="st2" d="M1603.9,161l17.7-17.7c0.8-0.8,0.8-2.1,0-2.9c-0.8-0.8-2.1-0.8-2.9,0l-17.7,17.7c-0.8,0.8-0.8,2.1,0,2.9
			C1601.8,161.8,1603.1,161.8,1603.9,161z"/>
		<line class="st2" x1="1619.5" y1="109.1" x2="1692.4" y2="109.1"/>
		<path class="st2" d="M1708.6,160.9l-17.7-17.7c-0.8-0.8-0.8-2.1,0-2.9c0.8-0.8,2.1-0.8,2.9,0l17.7,17.7c0.8,0.8,0.8,2.1,0,2.9
			C1710.7,161.7,1709.4,161.7,1708.6,160.9z"/>
	</g>
	<g>
		<g>
			<circle class="st3" cx="1690.3" cy="97.6" r="1"/>
		</g>
		<line class="st5" x1="1690.3" y1="100.3" x2="1690.3" y2="103.3"/>
	</g>
</g>
<g>
	<g>
		<path class="st2" d="M1822.2,79.7c19-21.8,52-24.2,73.9-5.2c21.8,19,24.2,52,5.2,73.9c-19,21.8-52,24.2-73.9,5.2
			C1805.5,134.6,1803.2,101.5,1822.2,79.7z"/>
		<path class="st2" d="M1883.3,161.7c7.9-4.4,24-28.8-5.1-38.4c-13.4-4.4-60.8,9.8-67.5-21.1"/>
		<path class="st2" d="M1901.2,148.4c17.2-19.8-30.2-64.1-83.5-62.8"/>
		<path class="st2" d="M1914.1,113.5c0,0-12.9,7.8-20.9-11.6c-8-19.3-13.8-33.7-35.9-40.1"/>
		<g>
			<path class="st2" d="M1827.4,153.3c4.6,4,20.3,3.8,36.4-3.3"/>
		</g>
		<path class="st2" d="M1868.5,147.3c0,0,3.1-0.6,7.2-4.3"/>
	</g>
	<g>
		<circle class="st3" cx="1895.9" cy="81.1" r="1"/>
		<path class="st5" d="M1898,83c0,0,2.2,1.5,2.7,3.9"/>
	</g>
</g>
<g>
	<path id="XMLID_18_" class="st2" d="M1405,135h31.6v31.6c0,1.8,1.5,3.3,3.3,3.3h35.4c1.8,0,3.3-1.5,3.3-3.3V135h31.6
		c1.8,0,3.3-1.5,3.3-3.3V96.3c0-1.8-1.5-3.3-3.3-3.3h-31.6V61.5c0-1.8-1.5-3.3-3.3-3.3h-35.4c-1.8,0-3.3,1.5-3.3,3.3V93H1405
		c-1.8,0-3.3,1.5-3.3,3.3v35.4C1401.7,133.5,1403.2,135,1405,135z"/>
	<g>
		<g>
			<circle class="st3" cx="1508.7" cy="101.7" r="1"/>
		</g>
		<line class="st5" x1="1508.7" y1="104.4" x2="1508.7" y2="107.4"/>
	</g>
</g>
<g>
	<path id="XMLID_17_" class="st2" d="M661,111.2c-2.5,1.7-5.3,3.7-6,6.2l-11.7,30.2c0,0,0,0.1,0,0.1c-1.5,5.5-0.3,11.5,3,15.8
		c2.8,3.6,6.8,5.7,11.1,5.7H690c4.3,0,8.4-2.1,11.2-5.9c3.4-4.5,4.4-10.6,2.7-16.2c0,0,0-0.1,0-0.1l-11.7-30.2
		c-0.7-2.3-3.4-4.1-5.8-5.7c-0.7-0.5-1.4-1-2-1.4V91.1h2.2c0.8,0,1.4-0.6,1.4-1.4V79.5c0-0.8-0.6-1.4-1.4-1.4h-26
		c-0.8,0-1.4,0.6-1.4,1.4v10.1c0,0.8,0.6,1.4,1.4,1.4h2.3v18.7C662.4,110.2,661.7,110.7,661,111.2z"/>
	<g>
		<circle class="st3" cx="656.3" cy="124.4" r="0.7"/>
	</g>
	<line class="st7" x1="657.1" y1="122" x2="658.3" y2="119.2"/>
	<g>
		<path id="XMLID_16_" class="st6" d="M683,85c-3.9,0-7.1,3.2-7.1,7.1c0,3.9,3.2,7.1,7.1,7.1c3.9,0,7.1-3.2,7.1-7.1
			c0-0.9-0.2-1.8-0.5-2.6l7.8-5.4c1.1,0.8,2.5,1.3,4,1.3c3.9,0,7.1-3.2,7.1-7.1c0-3.9-3.2-7.1-7.1-7.1c-1.7,0-3.2,0.6-4.4,1.5
			l-7.3-5c0.2-0.6,0.3-1.2,0.3-1.9c0-3.9-3.2-7.1-7.1-7.1c-3.9,0-7.1,3.2-7.1,7.1c0,3.9,3.2,7.1,7.1,7.1c1.7,0,3.3-0.6,4.5-1.6
			l7.1,4.9c-0.2,0.7-0.3,1.4-0.3,2.1c0,0.9,0.2,1.7,0.4,2.5l-7.9,5.4C685.8,85.4,684.4,85,683,85z"/>
		<g>
			<circle class="st3" cx="703.9" cy="75.1" r="0.5"/>
			<path class="st7" d="M704.9,76.1c0,0,0.8,0.7,1.2,1.8"/>
		</g>
	</g>
</g>
<g>
	<path class="st0" d="M2015.4,234.2c0.7,0.6,1.1,1.5,1.1,2.7s-0.3,2-1,2.7c-0.7,0.7-1.7,1-3.1,1h-2.4v-7.3h2.5
		C2013.7,233.3,2014.7,233.6,2015.4,234.2z M2015.3,236.9c0-1.7-1-2.5-2.9-2.5h-1.2v5h1.4c0.9,0,1.6-0.2,2-0.6
		C2015,238.3,2015.3,237.7,2015.3,236.9z"/>
	<path class="st0" d="M2023.2,233.3v1.2h-3.9v1.9h3.5v1.1h-3.5v2h4v1.2h-5.2v-7.3H2023.2z"/>
	<path class="st0" d="M2026.1,234.4v2h3.2v1.1h-3.2v3h-1.2v-7.3h4.9l0,1.1H2026.1z"/>
	<path class="st0" d="M2036.3,233.3v1.2h-3.9v1.9h3.5v1.1h-3.5v2h4v1.2h-5.2v-7.3H2036.3z"/>
	<path class="st0" d="M2040.2,234.2c-0.4,0-0.7,0.1-0.9,0.2s-0.3,0.4-0.3,0.7c0,0.3,0.1,0.5,0.3,0.7c0.2,0.2,0.7,0.3,1.5,0.5
		c0.7,0.2,1.3,0.4,1.7,0.8c0.4,0.3,0.6,0.8,0.6,1.4s-0.2,1.2-0.7,1.5c-0.5,0.4-1.1,0.6-1.9,0.6c-1.1,0-2.2-0.4-3-1.2l0.8-0.9
		c0.7,0.6,1.5,1,2.3,1c0.4,0,0.7-0.1,0.9-0.3c0.2-0.2,0.3-0.4,0.3-0.7c0-0.3-0.1-0.5-0.3-0.7c-0.2-0.2-0.6-0.3-1.1-0.4
		c-0.5-0.1-0.9-0.2-1.2-0.4c-0.3-0.1-0.5-0.2-0.7-0.4c-0.4-0.3-0.6-0.8-0.6-1.5s0.2-1.2,0.7-1.6c0.5-0.4,1.1-0.5,1.8-0.5
		c0.5,0,0.9,0.1,1.4,0.2s0.9,0.4,1.2,0.6l-0.7,0.9c-0.2-0.2-0.5-0.4-0.9-0.5C2041,234.3,2040.6,234.2,2040.2,234.2z"/>
	<path class="st0" d="M2045.6,238.9l-0.7,1.7h-1.3l3.2-7.3h1.3l3.2,7.3h-1.3l-0.7-1.7H2045.6z M2048.7,237.8l-1.3-3l-1.3,3H2048.7z"
		/>
	<path class="st0" d="M2060.2,233.3v1.2h-3.9v1.9h3.5v1.1h-3.5v2h4v1.2h-5.2v-7.3H2060.2z"/>
	<path class="st0" d="M2067,234.2c-0.4,0-0.7,0.1-0.9,0.2s-0.3,0.4-0.3,0.7c0,0.3,0.1,0.5,0.3,0.7c0.2,0.2,0.7,0.3,1.5,0.5
		c0.7,0.2,1.3,0.4,1.7,0.8c0.4,0.3,0.6,0.8,0.6,1.4s-0.2,1.2-0.7,1.5c-0.5,0.4-1.1,0.6-1.9,0.6c-1.1,0-2.2-0.4-3-1.2l0.8-0.9
		c0.7,0.6,1.5,1,2.3,1c0.4,0,0.7-0.1,0.9-0.3c0.2-0.2,0.3-0.4,0.3-0.7c0-0.3-0.1-0.5-0.3-0.7c-0.2-0.2-0.6-0.3-1.1-0.4
		c-0.5-0.1-0.9-0.2-1.2-0.4c-0.3-0.1-0.5-0.2-0.7-0.4c-0.4-0.3-0.6-0.8-0.6-1.5s0.2-1.2,0.7-1.6c0.5-0.4,1.1-0.5,1.8-0.5
		c0.5,0,0.9,0.1,1.4,0.2s0.9,0.4,1.2,0.6l-0.7,0.9c-0.2-0.2-0.5-0.4-0.9-0.5C2067.7,234.3,2067.4,234.2,2067,234.2z"/>
	<path class="st0" d="M2076.5,233.3v1.2h-3.9v1.9h3.5v1.1h-3.5v2h4v1.2h-5.2v-7.3H2076.5z"/>
	<path class="st0" d="M2083.2,237h1.2v2.5c-0.7,0.8-1.7,1.1-3,1.1c-1.1,0-2-0.4-2.7-1.1c-0.7-0.7-1.1-1.6-1.1-2.7
		c0-1.1,0.4-2,1.1-2.7s1.6-1.1,2.7-1.1s1.9,0.3,2.6,0.9l-0.7,0.9c-0.3-0.2-0.6-0.4-0.9-0.5c-0.3-0.1-0.6-0.1-1-0.1
		c-0.7,0-1.4,0.2-1.9,0.7c-0.5,0.5-0.8,1.1-0.8,1.9s0.2,1.4,0.7,1.9c0.5,0.5,1.1,0.7,1.8,0.7c0.7,0,1.3-0.1,1.7-0.4V237z"/>
	<path class="st0" d="M2087.7,238.9c0.3,0.4,0.8,0.6,1.4,0.6s1-0.2,1.4-0.6c0.3-0.4,0.5-0.9,0.5-1.6v-4h1.2v4.1
		c0,1.1-0.3,1.9-0.9,2.4c-0.6,0.6-1.3,0.9-2.2,0.9s-1.6-0.3-2.2-0.9c-0.6-0.6-0.9-1.4-0.9-2.4v-4.1h1.2v4
		C2087.2,238,2087.4,238.5,2087.7,238.9z"/>
	<path class="st0" d="M2099.9,235.6c0,1.2-0.5,2-1.6,2.3l1.9,2.6h-1.6l-1.7-2.5h-1.6v2.5h-1.2v-7.3h2.7c1.1,0,1.9,0.2,2.4,0.6
		C2099.7,234.2,2099.9,234.8,2099.9,235.6z M2098.3,236.7c0.3-0.2,0.4-0.6,0.4-1c0-0.5-0.1-0.8-0.4-1c-0.3-0.2-0.7-0.3-1.4-0.3h-1.6
		v2.6h1.5C2097.6,237,2098,236.9,2098.3,236.7z"/>
	<path class="st0" d="M2102.7,238.9l-0.7,1.7h-1.3l3.2-7.3h1.3l3.2,7.3h-1.3l-0.7-1.7H2102.7z M2105.9,237.8l-1.3-3l-1.3,3H2105.9z"
		/>
	<path class="st0" d="M2114.9,233.3h1.2v7.3h-1.3l-4.1-5.3v5.3h-1.2v-7.3h1.2l4.2,5.4V233.3z"/>
	<path class="st0" d="M2121.5,239.4c0.4,0,0.8-0.1,1.1-0.2c0.3-0.1,0.6-0.4,1-0.7l0.8,0.8c-0.7,0.8-1.6,1.2-2.6,1.3l-0.2,0.3
		c0.5,0.1,0.7,0.3,0.7,0.8c0,0.3-0.1,0.5-0.3,0.7c-0.2,0.2-0.5,0.3-0.8,0.3s-0.6-0.1-0.9-0.2l0.3-0.6c0.1,0.1,0.3,0.1,0.4,0.1
		s0.2,0,0.3-0.1c0.1-0.1,0.1-0.2,0.1-0.3s0-0.2-0.1-0.3c-0.1-0.1-0.2-0.1-0.3-0.1c-0.1,0-0.2,0-0.3,0.1l0.3-0.7
		c-1-0.1-1.7-0.5-2.3-1.2c-0.6-0.7-0.9-1.6-0.9-2.6s0.4-1.9,1.1-2.6s1.7-1.1,2.8-1.1s2.1,0.4,2.8,1.3l-0.8,0.9
		c-0.3-0.3-0.7-0.6-1-0.7c-0.3-0.1-0.7-0.2-1.1-0.2c-0.7,0-1.4,0.2-1.9,0.7c-0.5,0.5-0.8,1.1-0.8,1.8c0,0.7,0.2,1.4,0.7,1.9
		C2120.2,239.2,2120.8,239.4,2121.5,239.4z"/>
	<path class="st0" d="M2126.9,238.9l-0.7,1.7h-1.3l3.2-7.3h1.3l3.2,7.3h-1.3l-0.7-1.7H2126.9z M2130,237.8l-1.3-3l-1.3,3H2130z"/>
</g>
<g>
	<path class="st1" d="M2070.7,196.3L2070.7,196.3c-45.4,0-82.2-36.8-82.2-82.2v0c0-45.4,36.8-82.2,82.2-82.2l0,0
		c45.4,0,82.2,36.8,82.2,82.2v0C2152.9,159.5,2116.1,196.3,2070.7,196.3z"/>
	<path class="st9" d="M2073.8,65c1.8,1.8,17,13.7,41.6,10.8c3.6-0.4,6.8,2.5,6.7,6.2c-0.5,14.8-2.9,48.2-15.5,64.3
		c-12.9,16.5-24.5,24.5-29.8,27.5c-1.9,1.1-4.2,1.1-6,0c-5.3-3.1-16.8-11.1-29.8-27.5c-12.8-16.1-15.1-49.6-15.4-64.4
		c-0.1-3.7,3.1-6.6,6.7-6.1c24.6,2.9,39.6-9,41.4-10.8C2073.6,65,2073.7,64.9,2073.8,65z"/>
	<g>
		<g>
			<circle class="st3" cx="2116.5" cy="88" r="1"/>
		</g>
		<line class="st5" x1="2116.2" y1="90.7" x2="2115.9" y2="93.7"/>
	</g>
</g>
</svg>
