<?xml version="1.0" encoding="utf-8"?>
<!-- Generator: Adobe Illustrator 23.0.2, SVG Export Plug-In . SVG Version: 6.00 Build 0)  -->
<svg version="1.1" id="Camada_1" xmlns="http://www.w3.org/2000/svg" xmlns:xlink="http://www.w3.org/1999/xlink" x="0px" y="0px"
	 viewBox="0 0 199.6 222" style="enable-background:new 0 0 199.6 222;" xml:space="preserve">
<style type="text/css">
	.st0{fill:#575756;}
	.st1{fill:#F39200;}
	.st2{fill:none;stroke:#FFFFFF;stroke-width:4;stroke-linecap:round;stroke-linejoin:round;stroke-miterlimit:10;}
	.st3{fill:#FFFFFF;}
	.st4{fill:none;stroke:#FFFFFF;stroke-linecap:round;stroke-linejoin:round;stroke-miterlimit:10;}
	.st5{fill:#F39200;stroke:#FFFFFF;stroke-width:4;stroke-linecap:round;stroke-linejoin:round;stroke-miterlimit:10;}
</style>

<path class="st1" d="M101.9,196.2L101.9,196.2c-45.4,0-82.2-36.8-82.2-82.2v0c0-45.4,36.8-82.2,82.2-82.2h0
	c45.4,0,82.2,36.8,82.2,82.2v0C184.1,159.4,147.3,196.2,101.9,196.2z"/>
<g>
	<path id="XMLID_17_" class="st2" d="M87.3,111.2c-2.5,1.7-5.3,3.7-6,6.2l-11.7,30.2c0,0,0,0.1,0,0.1c-1.5,5.5-0.3,11.5,3,15.8
		c2.8,3.6,6.8,5.7,11.1,5.7h32.6c4.3,0,8.4-2.1,11.2-5.9c3.4-4.5,4.4-10.6,2.7-16.2c0,0,0-0.1,0-0.1l-11.7-30.2
		c-0.7-2.3-3.4-4.1-5.8-5.7c-0.7-0.5-1.4-1-2-1.4V91.1h2.2c0.8,0,1.4-0.6,1.4-1.4V79.5c0-0.8-0.6-1.4-1.4-1.4h-26
		c-0.8,0-1.4,0.6-1.4,1.4v10.1c0,0.8,0.6,1.4,1.4,1.4h2.3v18.7C88.7,110.2,88,110.7,87.3,111.2z"/>
	<g>
		<circle class="st3" cx="82.6" cy="124.4" r="0.7"/>
	</g>
	<line class="st4" x1="83.4" y1="122" x2="84.6" y2="119.2"/>
	<g>
		<path id="XMLID_16_" class="st5" d="M109.3,85c-3.9,0-7.1,3.2-7.1,7.1c0,3.9,3.2,7.1,7.1,7.1c3.9,0,7.1-3.2,7.1-7.1
			c0-0.9-0.2-1.8-0.5-2.6l7.8-5.4c1.1,0.8,2.5,1.3,4,1.3c3.9,0,7.1-3.2,7.1-7.1c0-3.9-3.2-7.1-7.1-7.1c-1.7,0-3.2,0.6-4.4,1.5
			l-7.3-5c0.2-0.6,0.3-1.2,0.3-1.9c0-3.9-3.2-7.1-7.1-7.1c-3.9,0-7.1,3.2-7.1,7.1c0,3.9,3.2,7.1,7.1,7.1c1.7,0,3.3-0.6,4.5-1.6
			l7.1,4.9c-0.2,0.7-0.3,1.4-0.3,2.1c0,0.9,0.2,1.7,0.4,2.5l-7.9,5.4C112.1,85.4,110.7,85,109.3,85z"/>
		<g>
			<circle class="st3" cx="130.2" cy="75.1" r="0.5"/>
			<path class="st4" d="M131.2,76.1c0,0,0.8,0.7,1.2,1.8"/>
		</g>
	</g>
</g>
</svg>
