<?xml version="1.0" encoding="utf-8"?>
<!-- Generator: Adobe Illustrator 23.0.2, SVG Export Plug-In . SVG Version: 6.00 Build 0)  -->
<svg version="1.1" id="Camada_1" xmlns="http://www.w3.org/2000/svg" xmlns:xlink="http://www.w3.org/1999/xlink" x="0px" y="0px"
	 viewBox="0 0 199.6 282" style="enable-background:new 0 0 199.6 282;" xml:space="preserve">
<style type="text/css">
	.st0{fill:#575756;}
	.st1{fill:#F39200;}
	.st2{fill:none;stroke:#FFFFFF;stroke-width:4;stroke-linecap:round;stroke-linejoin:round;stroke-miterlimit:10;}
	.st3{fill:#FFFFFF;}
	.st4{fill:none;stroke:#FFFFFF;stroke-linecap:round;stroke-linejoin:round;stroke-miterlimit:10;}
	.st5{fill:#F39200;stroke:#FFFFFF;stroke-width:4;stroke-linecap:round;stroke-linejoin:round;stroke-miterlimit:10;}
</style>
<g>
	<path class="st0" d="M79.9,232.2v1.2H76v1.9h3.5v1.1H76v2h4v1.2h-5.2v-7.3H79.9z"/>
	<path class="st0" d="M87.1,233.2c0.7,0.6,1.1,1.5,1.1,2.7s-0.3,2-1,2.7c-0.7,0.7-1.7,1-3.1,1h-2.4v-7.3h2.5
		C85.4,232.2,86.4,232.5,87.1,233.2z M87,235.9c0-1.7-1-2.5-2.9-2.5h-1.2v5h1.4c0.9,0,1.6-0.2,2-0.6C86.7,237.3,87,236.7,87,235.9z"
		/>
	<path class="st0" d="M91.4,237.8c0.3,0.4,0.8,0.6,1.4,0.6s1-0.2,1.4-0.6c0.3-0.4,0.5-0.9,0.5-1.6v-4h1.2v4.1c0,1.1-0.3,1.9-0.9,2.4
		c-0.6,0.6-1.3,0.9-2.2,0.9s-1.6-0.3-2.2-0.9c-0.6-0.6-0.9-1.4-0.9-2.4v-4.1h1.2v4C90.9,236.9,91.1,237.5,91.4,237.8z"/>
	<path class="st0" d="M101.1,238.4c0.4,0,0.8-0.1,1.1-0.2c0.3-0.1,0.6-0.4,1-0.7l0.8,0.8c-0.8,0.9-1.7,1.3-2.8,1.3
		c-1.1,0-2-0.4-2.7-1.1c-0.7-0.7-1.1-1.6-1.1-2.7c0-1.1,0.4-2,1.1-2.7s1.7-1.1,2.8-1.1s2.1,0.4,2.8,1.3l-0.8,0.9
		c-0.3-0.3-0.7-0.6-1-0.7c-0.3-0.1-0.7-0.2-1.1-0.2c-0.7,0-1.4,0.2-1.9,0.7c-0.5,0.5-0.8,1.1-0.8,1.8c0,0.7,0.2,1.4,0.7,1.9
		C99.8,238.1,100.4,238.4,101.1,238.4z"/>
	<path class="st0" d="M106.5,237.9l-0.7,1.7h-1.3l3.2-7.3h1.3l3.2,7.3h-1.3l-0.7-1.7H106.5z M109.6,236.7l-1.3-3l-1.3,3H109.6z"/>
	<path class="st0" d="M116.5,238.4c0.4,0,0.8-0.1,1.1-0.2c0.3-0.1,0.6-0.4,1-0.7l0.8,0.8c-0.7,0.8-1.6,1.2-2.6,1.3l-0.2,0.3
		c0.5,0.1,0.7,0.3,0.7,0.8c0,0.3-0.1,0.5-0.3,0.7c-0.2,0.2-0.5,0.3-0.8,0.3s-0.6-0.1-0.9-0.2l0.3-0.6c0.1,0.1,0.3,0.1,0.4,0.1
		s0.2,0,0.3-0.1c0.1-0.1,0.1-0.2,0.1-0.3s0-0.2-0.1-0.3c-0.1-0.1-0.2-0.1-0.3-0.1c-0.1,0-0.2,0-0.3,0.1l0.3-0.7
		c-1-0.1-1.7-0.5-2.3-1.2c-0.6-0.7-0.9-1.6-0.9-2.6s0.4-1.9,1.1-2.6s1.7-1.1,2.8-1.1s2.1,0.4,2.8,1.3l-0.8,0.9
		c-0.3-0.3-0.7-0.6-1-0.7c-0.3-0.1-0.7-0.2-1.1-0.2c-0.7,0-1.4,0.2-1.9,0.7c-0.5,0.5-0.8,1.1-0.8,1.8c0,0.7,0.2,1.4,0.7,1.9
		C115.3,238.1,115.8,238.4,116.5,238.4z"/>
	<path class="st0" d="M124.3,232.2l3.2,7.3h-1.4l-0.7-1.7h-3.5l-0.7,1.7h-1.3l3.2-7.3H124.3z M124.4,231.6c-0.2,0-0.4-0.1-0.8-0.2
		c-0.3-0.2-0.5-0.2-0.6-0.2c-0.2,0-0.3,0.2-0.4,0.5h-0.8c0-0.4,0.1-0.7,0.2-1c0.2-0.3,0.4-0.4,0.7-0.4c0.2,0,0.4,0.1,0.8,0.2
		c0.3,0.2,0.6,0.2,0.7,0.2c0.2,0,0.3-0.2,0.3-0.5h0.8C125.4,231.2,125.1,231.6,124.4,231.6z M124.9,236.7l-1.3-2.8l-1.2,2.8H124.9z"
		/>
	<path class="st0" d="M134.6,238.5c-0.7,0.7-1.6,1.1-2.7,1.1c-1.1,0-2-0.4-2.7-1.1c-0.7-0.7-1.1-1.6-1.1-2.7s0.4-2,1.1-2.7
		c0.7-0.7,1.6-1.1,2.7-1.1c1.1,0,2,0.4,2.7,1.1c0.7,0.7,1.1,1.6,1.1,2.7S135.3,237.8,134.6,238.5z M133.7,233.9
		c-0.5-0.5-1.1-0.8-1.8-0.8c-0.7,0-1.3,0.3-1.8,0.8s-0.7,1.1-0.7,1.9s0.2,1.4,0.7,1.9s1.1,0.8,1.8,0.8c0.7,0,1.3-0.3,1.8-0.8
		s0.7-1.1,0.7-1.9S134.2,234.5,133.7,233.9z"/>
	<path class="st0" d="M44.7,251c0.4,0,0.8-0.1,1.1-0.2c0.3-0.1,0.6-0.4,1-0.7l0.8,0.8c-0.8,0.9-1.7,1.3-2.8,1.3
		c-1.1,0-2-0.4-2.7-1.1c-0.7-0.7-1.1-1.6-1.1-2.7c0-1.1,0.4-2,1.1-2.7s1.7-1.1,2.8-1.1s2.1,0.4,2.8,1.3l-0.8,0.9
		c-0.3-0.3-0.7-0.6-1-0.7c-0.3-0.1-0.7-0.2-1.1-0.2c-0.7,0-1.4,0.2-1.9,0.7c-0.5,0.5-0.8,1.1-0.8,1.8c0,0.7,0.2,1.4,0.7,1.9
		C43.4,250.8,44,251,44.7,251z"/>
	<path class="st0" d="M49.1,244.9h1.2v7.3h-1.2V244.9z"/>
	<path class="st0" d="M57.4,244.9v1.2h-3.9v1.9H57v1.1h-3.5v2h4v1.2h-5.2v-7.3H57.4z M54.3,242.9h1.1l1.3,1.4h-1l-0.8-0.6l-0.8,0.6
		h-1L54.3,242.9z"/>
	<path class="st0" d="M64.6,244.9h1.2v7.3h-1.3l-4.1-5.3v5.3h-1.2v-7.3h1.2l4.2,5.4V244.9z"/>
	<path class="st0" d="M71.2,251c0.4,0,0.8-0.1,1.1-0.2c0.3-0.1,0.6-0.4,1-0.7L74,251c-0.8,0.9-1.7,1.3-2.8,1.3c-1.1,0-2-0.4-2.7-1.1
		c-0.7-0.7-1.1-1.6-1.1-2.7c0-1.1,0.4-2,1.1-2.7s1.7-1.1,2.8-1.1s2.1,0.4,2.8,1.3l-0.8,0.9c-0.3-0.3-0.7-0.6-1-0.7
		c-0.3-0.1-0.7-0.2-1.1-0.2c-0.7,0-1.4,0.2-1.9,0.7c-0.5,0.5-0.8,1.1-0.8,1.8c0,0.7,0.2,1.4,0.7,1.9C69.9,250.8,70.5,251,71.2,251z"
		/>
	<path class="st0" d="M75.5,244.9h1.2v7.3h-1.2V244.9z"/>
	<path class="st0" d="M79.8,250.5l-0.7,1.7h-1.3l3.2-7.3h1.3l3.2,7.3h-1.3l-0.7-1.7H79.8z M83,249.4l-1.3-3l-1.3,3H83z"/>
	<path class="st0" d="M94.5,244.9v1.2h-3.9v1.9h3.5v1.1h-3.5v2h4v1.2h-5.2v-7.3H94.5z"/>
	<path class="st0" d="M101.8,246v6.2h-1.2V246h-2.2v-1.1h5.7v1.1H101.8z"/>
	<path class="st0" d="M110.5,244.9v1.2h-3.9v1.9h3.5v1.1h-3.5v2h4v1.2h-5.2v-7.3H110.5z"/>
	<path class="st0" d="M115.5,251c0.4,0,0.8-0.1,1.1-0.2c0.3-0.1,0.6-0.4,1-0.7l0.8,0.8c-0.8,0.9-1.7,1.3-2.8,1.3
		c-1.1,0-2-0.4-2.7-1.1c-0.7-0.7-1.1-1.6-1.1-2.7c0-1.1,0.4-2,1.1-2.7s1.7-1.1,2.8-1.1s2.1,0.4,2.8,1.3l-0.8,0.9
		c-0.3-0.3-0.7-0.6-1-0.7c-0.3-0.1-0.7-0.2-1.1-0.2c-0.7,0-1.4,0.2-1.9,0.7c-0.5,0.5-0.8,1.1-0.8,1.8c0,0.7,0.2,1.4,0.7,1.9
		C114.2,250.8,114.8,251,115.5,251z"/>
	<path class="st0" d="M125.3,244.9h1.2v7.3h-1.3l-4.1-5.3v5.3h-1.2v-7.3h1.2l4.2,5.4V244.9z"/>
	<path class="st0" d="M134.7,251.1c-0.7,0.7-1.6,1.1-2.7,1.1c-1.1,0-2-0.4-2.7-1.1c-0.7-0.7-1.1-1.6-1.1-2.7s0.4-2,1.1-2.7
		c0.7-0.7,1.6-1.1,2.7-1.1c1.1,0,2,0.4,2.7,1.1c0.7,0.7,1.1,1.6,1.1,2.7S135.4,250.4,134.7,251.1z M133.8,246.6
		c-0.5-0.5-1.1-0.8-1.8-0.8c-0.7,0-1.3,0.3-1.8,0.8s-0.7,1.1-0.7,1.9s0.2,1.4,0.7,1.9s1.1,0.8,1.8,0.8c0.7,0,1.3-0.3,1.8-0.8
		s0.7-1.1,0.7-1.9S134.3,247.1,133.8,246.6z"/>
	<path class="st0" d="M137.3,252.1v-7.3h1.2v6.1h3.3v1.2H137.3z"/>
	<path class="st0" d="M149.1,251.1c-0.7,0.7-1.6,1.1-2.7,1.1c-1.1,0-2-0.4-2.7-1.1c-0.7-0.7-1.1-1.6-1.1-2.7s0.4-2,1.1-2.7
		c0.7-0.7,1.6-1.1,2.7-1.1c1.1,0,2,0.4,2.7,1.1c0.7,0.7,1.1,1.6,1.1,2.7S149.9,250.4,149.1,251.1z M148.2,246.6
		c-0.5-0.5-1.1-0.8-1.8-0.8c-0.7,0-1.3,0.3-1.8,0.8s-0.7,1.1-0.7,1.9s0.2,1.4,0.7,1.9s1.1,0.8,1.8,0.8c0.7,0,1.3-0.3,1.8-0.8
		s0.7-1.1,0.7-1.9S148.7,247.1,148.2,246.6z"/>
	<path class="st0" d="M156.8,248.6h1.2v2.5c-0.7,0.8-1.7,1.1-3,1.1c-1.1,0-2-0.4-2.7-1.1c-0.7-0.7-1.1-1.6-1.1-2.7
		c0-1.1,0.4-2,1.1-2.7s1.6-1.1,2.7-1.1s1.9,0.3,2.6,0.9l-0.7,0.9c-0.3-0.2-0.6-0.4-0.9-0.5c-0.3-0.1-0.6-0.1-1-0.1
		c-0.7,0-1.4,0.2-1.9,0.7c-0.5,0.5-0.8,1.1-0.8,1.9s0.2,1.4,0.7,1.9c0.5,0.5,1.1,0.7,1.8,0.7c0.7,0,1.3-0.1,1.7-0.4V248.6z"/>
	<path class="st0" d="M159.7,244.9h1.2v7.3h-1.2V244.9z"/>
	<path class="st0" d="M164,250.5l-0.7,1.7h-1.3l3.2-7.3h1.3l3.2,7.3h-1.3l-0.7-1.7H164z M167.1,249.4l-1.3-3l-1.3,3H167.1z"/>
</g>
<path class="st1" d="M101.9,196.2L101.9,196.2c-45.4,0-82.2-36.8-82.2-82.2v0c0-45.4,36.8-82.2,82.2-82.2h0
	c45.4,0,82.2,36.8,82.2,82.2v0C184.1,159.4,147.3,196.2,101.9,196.2z"/>
<g>
	<path id="XMLID_17_" class="st2" d="M87.3,111.2c-2.5,1.7-5.3,3.7-6,6.2l-11.7,30.2c0,0,0,0.1,0,0.1c-1.5,5.5-0.3,11.5,3,15.8
		c2.8,3.6,6.8,5.7,11.1,5.7h32.6c4.3,0,8.4-2.1,11.2-5.9c3.4-4.5,4.4-10.6,2.7-16.2c0,0,0-0.1,0-0.1l-11.7-30.2
		c-0.7-2.3-3.4-4.1-5.8-5.7c-0.7-0.5-1.4-1-2-1.4V91.1h2.2c0.8,0,1.4-0.6,1.4-1.4V79.5c0-0.8-0.6-1.4-1.4-1.4h-26
		c-0.8,0-1.4,0.6-1.4,1.4v10.1c0,0.8,0.6,1.4,1.4,1.4h2.3v18.7C88.7,110.2,88,110.7,87.3,111.2z"/>
	<g>
		<circle class="st3" cx="82.6" cy="124.4" r="0.7"/>
	</g>
	<line class="st4" x1="83.4" y1="122" x2="84.6" y2="119.2"/>
	<g>
		<path id="XMLID_16_" class="st5" d="M109.3,85c-3.9,0-7.1,3.2-7.1,7.1c0,3.9,3.2,7.1,7.1,7.1c3.9,0,7.1-3.2,7.1-7.1
			c0-0.9-0.2-1.8-0.5-2.6l7.8-5.4c1.1,0.8,2.5,1.3,4,1.3c3.9,0,7.1-3.2,7.1-7.1c0-3.9-3.2-7.1-7.1-7.1c-1.7,0-3.2,0.6-4.4,1.5
			l-7.3-5c0.2-0.6,0.3-1.2,0.3-1.9c0-3.9-3.2-7.1-7.1-7.1c-3.9,0-7.1,3.2-7.1,7.1c0,3.9,3.2,7.1,7.1,7.1c1.7,0,3.3-0.6,4.5-1.6
			l7.1,4.9c-0.2,0.7-0.3,1.4-0.3,2.1c0,0.9,0.2,1.7,0.4,2.5l-7.9,5.4C112.1,85.4,110.7,85,109.3,85z"/>
		<g>
			<circle class="st3" cx="130.2" cy="75.1" r="0.5"/>
			<path class="st4" d="M131.2,76.1c0,0,0.8,0.7,1.2,1.8"/>
		</g>
	</g>
</g>
</svg>
