<?xml version="1.0" encoding="utf-8"?>
<!-- Generator: Adobe Illustrator 23.0.2, SVG Export Plug-In . SVG Version: 6.00 Build 0)  -->
<svg version="1.1" id="Camada_1" xmlns="http://www.w3.org/2000/svg" xmlns:xlink="http://www.w3.org/1999/xlink" x="0px" y="0px"
	 viewBox="0 0 199.6 282" style="enable-background:new 0 0 199.6 282;" xml:space="preserve">
<style type="text/css">
	.st0{fill:#575756;}
	.st1{fill:#F39200;}
	.st2{fill:none;stroke:#FFFFFF;stroke-width:4;stroke-linecap:round;stroke-linejoin:round;stroke-miterlimit:10;}
	.st3{fill:none;stroke:#FFFFFF;stroke-width:3;stroke-linecap:round;stroke-linejoin:round;stroke-miterlimit:10;}
	.st4{fill:#FFFFFF;}
	.st5{fill:none;stroke:#FFFFFF;stroke-linecap:round;stroke-linejoin:round;stroke-miterlimit:10;}
</style>
<g>
	<path class="st0" d="M72.1,236h1.2v2.5c-0.7,0.8-1.7,1.1-3,1.1c-1.1,0-2-0.4-2.7-1.1c-0.7-0.7-1.1-1.6-1.1-2.7c0-1.1,0.4-2,1.1-2.7
		s1.6-1.1,2.7-1.1s1.9,0.3,2.6,0.9l-0.7,0.9c-0.3-0.2-0.6-0.4-0.9-0.5c-0.3-0.1-0.6-0.1-1-0.1c-0.7,0-1.4,0.2-1.9,0.7
		c-0.5,0.5-0.8,1.1-0.8,1.9s0.2,1.4,0.7,1.9c0.5,0.5,1.1,0.7,1.8,0.7c0.7,0,1.3-0.1,1.7-0.4V236z"/>
	<path class="st0" d="M81.1,238.5c-0.7,0.7-1.6,1.1-2.7,1.1c-1.1,0-2-0.4-2.7-1.1c-0.7-0.7-1.1-1.6-1.1-2.7s0.4-2,1.1-2.7
		c0.7-0.7,1.6-1.1,2.7-1.1c1.1,0,2,0.4,2.7,1.1c0.7,0.7,1.1,1.6,1.1,2.7S81.8,237.8,81.1,238.5z M80.2,233.9
		c-0.5-0.5-1.1-0.8-1.8-0.8c-0.7,0-1.3,0.3-1.8,0.8s-0.7,1.1-0.7,1.9s0.2,1.4,0.7,1.9s1.1,0.8,1.8,0.8c0.7,0,1.3-0.3,1.8-0.8
		s0.7-1.1,0.7-1.9S80.7,234.4,80.2,233.9z"/>
	<path class="st0" d="M86.9,239.5h-1.4l-2.9-7.3H84l2.2,5.4l2.2-5.4h1.4L86.9,239.5z"/>
	<path class="st0" d="M96,232.2v1.2h-3.9v1.9h3.5v1.1h-3.5v2h4v1.2h-5.2v-7.3H96z"/>
	<path class="st0" d="M103.5,234.6c0,1.2-0.5,2-1.6,2.3l1.9,2.6h-1.6l-1.7-2.5H99v2.5h-1.2v-7.3h2.7c1.1,0,1.9,0.2,2.4,0.6
		C103.3,233.1,103.5,233.7,103.5,234.6z M101.9,235.6c0.3-0.2,0.4-0.6,0.4-1c0-0.5-0.1-0.8-0.4-1c-0.3-0.2-0.7-0.3-1.4-0.3H99v2.6
		h1.5C101.2,235.9,101.7,235.8,101.9,235.6z"/>
	<path class="st0" d="M110.8,232.2h1.2v7.3h-1.3l-4.1-5.3v5.3h-1.2v-7.3h1.2l4.2,5.4V232.2z"/>
	<path class="st0" d="M120.1,238.5c-0.7,0.7-1.6,1.1-2.7,1.1c-1.1,0-2-0.4-2.7-1.1c-0.7-0.7-1.1-1.6-1.1-2.7s0.4-2,1.1-2.7
		c0.7-0.7,1.6-1.1,2.7-1.1c1.1,0,2,0.4,2.7,1.1c0.7,0.7,1.1,1.6,1.1,2.7S120.9,237.8,120.1,238.5z M119.2,233.9
		c-0.5-0.5-1.1-0.8-1.8-0.8c-0.7,0-1.3,0.3-1.8,0.8s-0.7,1.1-0.7,1.9s0.2,1.4,0.7,1.9s1.1,0.8,1.8,0.8c0.7,0,1.3-0.3,1.8-0.8
		s0.7-1.1,0.7-1.9S119.7,234.4,119.2,233.9z"/>
	<path class="st0" d="M130.8,232.2v1.2h-3.9v1.9h3.5v1.1h-3.5v2h4v1.2h-5.2v-7.3H130.8z"/>
	<path class="st0" d="M29,250.5l-0.7,1.7H27l3.2-7.3h1.3l3.2,7.3h-1.3l-0.7-1.7H29z M32.2,249.3l-1.3-3l-1.3,3H32.2z"/>
	<path class="st0" d="M41.2,245.8c0.7,0.6,1.1,1.5,1.1,2.7s-0.3,2-1,2.7c-0.7,0.7-1.7,1-3.1,1h-2.4v-7.3h2.5
		C39.5,244.8,40.5,245.2,41.2,245.8z M41.1,248.5c0-1.7-1-2.5-2.9-2.5H37v5h1.4c0.9,0,1.6-0.2,2-0.6
		C40.8,249.9,41.1,249.3,41.1,248.5z"/>
	<path class="st0" d="M45.1,252.1h-1.2v-7.3h1.9l2.2,4.6l2.2-4.6h1.9v7.3h-1.2v-5.7l-2.5,5.1h-0.7l-2.5-5.1V252.1z"/>
	<path class="st0" d="M54.1,244.8h1.2v7.3h-1.2V244.8z"/>
	<path class="st0" d="M62.9,244.8h1.2v7.3h-1.3l-4.1-5.3v5.3h-1.2v-7.3h1.2l4.2,5.4V244.8z"/>
	<path class="st0" d="M66.1,244.8h1.2v7.3h-1.2V244.8z"/>
	<path class="st0" d="M71.6,245.8c-0.4,0-0.7,0.1-0.9,0.2s-0.3,0.4-0.3,0.7c0,0.3,0.1,0.5,0.3,0.7c0.2,0.2,0.7,0.3,1.5,0.5
		c0.7,0.2,1.3,0.4,1.7,0.8c0.4,0.3,0.6,0.8,0.6,1.4s-0.2,1.2-0.7,1.5c-0.5,0.4-1.1,0.6-1.9,0.6c-1.1,0-2.2-0.4-3-1.2l0.8-0.9
		c0.7,0.6,1.5,1,2.3,1c0.4,0,0.7-0.1,0.9-0.3c0.2-0.2,0.3-0.4,0.3-0.7c0-0.3-0.1-0.5-0.3-0.7c-0.2-0.2-0.6-0.3-1.1-0.4
		c-0.5-0.1-0.9-0.2-1.2-0.4c-0.3-0.1-0.5-0.2-0.7-0.4c-0.4-0.3-0.6-0.8-0.6-1.5s0.2-1.2,0.7-1.6c0.5-0.4,1.1-0.5,1.8-0.5
		c0.5,0,0.9,0.1,1.4,0.2s0.9,0.4,1.2,0.6l-0.7,0.9c-0.2-0.2-0.5-0.4-0.9-0.5C72.3,245.9,71.9,245.8,71.6,245.8z"/>
	<path class="st0" d="M78.7,246v6.2h-1.2V246h-2.2v-1.1h5.7v1.1H78.7z"/>
	<path class="st0" d="M88.1,247.2c0,1.2-0.5,2-1.6,2.3l1.9,2.6h-1.6l-1.7-2.5h-1.6v2.5h-1.2v-7.3h2.7c1.1,0,1.9,0.2,2.4,0.6
		C87.8,245.8,88.1,246.4,88.1,247.2z M86.4,248.2c0.3-0.2,0.4-0.6,0.4-1c0-0.5-0.1-0.8-0.4-1c-0.3-0.2-0.7-0.3-1.4-0.3h-1.6v2.6H85
		C85.7,248.6,86.2,248.5,86.4,248.2z"/>
	<path class="st0" d="M90.9,250.5l-0.7,1.7h-1.3l3.2-7.3h1.3l3.2,7.3h-1.3l-0.7-1.7H90.9z M94,249.3l-1.3-3l-1.3,3H94z"/>
	<path class="st0" d="M100.9,251c0.4,0,0.8-0.1,1.1-0.2c0.3-0.1,0.6-0.4,1-0.7l0.8,0.8c-0.7,0.8-1.6,1.2-2.6,1.3l-0.2,0.3
		c0.5,0.1,0.7,0.3,0.7,0.8c0,0.3-0.1,0.5-0.3,0.7c-0.2,0.2-0.5,0.3-0.8,0.3s-0.6-0.1-0.9-0.2l0.3-0.6c0.1,0.1,0.3,0.1,0.4,0.1
		s0.2,0,0.3-0.1c0.1-0.1,0.1-0.2,0.1-0.3s0-0.2-0.1-0.3c-0.1-0.1-0.2-0.1-0.3-0.1c-0.1,0-0.2,0-0.3,0.1l0.3-0.7
		c-1-0.1-1.7-0.5-2.3-1.2c-0.6-0.7-0.9-1.6-0.9-2.6s0.4-1.9,1.1-2.6s1.7-1.1,2.8-1.1s2.1,0.4,2.8,1.3l-0.8,0.9
		c-0.3-0.3-0.7-0.6-1-0.7c-0.3-0.1-0.7-0.2-1.1-0.2c-0.7,0-1.4,0.2-1.9,0.7c-0.5,0.5-0.8,1.1-0.8,1.8c0,0.7,0.2,1.4,0.7,1.9
		C99.6,250.8,100.2,251,100.9,251z"/>
	<path class="st0" d="M108.6,244.8l3.2,7.3h-1.4l-0.7-1.7h-3.5l-0.7,1.7h-1.3l3.2-7.3H108.6z M108.8,244.3c-0.2,0-0.4-0.1-0.8-0.2
		c-0.3-0.2-0.5-0.2-0.6-0.2c-0.2,0-0.3,0.2-0.4,0.5h-0.8c0-0.4,0.1-0.7,0.2-1c0.2-0.3,0.4-0.4,0.7-0.4c0.2,0,0.4,0.1,0.8,0.2
		c0.3,0.2,0.6,0.2,0.7,0.2c0.2,0,0.3-0.2,0.3-0.5h0.8C109.7,243.8,109.4,244.3,108.8,244.3z M109.3,249.3l-1.3-2.8l-1.2,2.8H109.3z"
		/>
	<path class="st0" d="M119,251.1c-0.7,0.7-1.6,1.1-2.7,1.1c-1.1,0-2-0.4-2.7-1.1c-0.7-0.7-1.1-1.6-1.1-2.7s0.4-2,1.1-2.7
		c0.7-0.7,1.6-1.1,2.7-1.1c1.1,0,2,0.4,2.7,1.1c0.7,0.7,1.1,1.6,1.1,2.7S119.7,250.4,119,251.1z M118.1,246.6
		c-0.5-0.5-1.1-0.8-1.8-0.8c-0.7,0-1.3,0.3-1.8,0.8s-0.7,1.1-0.7,1.9s0.2,1.4,0.7,1.9s1.1,0.8,1.8,0.8c0.7,0,1.3-0.3,1.8-0.8
		s0.7-1.1,0.7-1.9S118.5,247.1,118.1,246.6z"/>
	<path class="st0" d="M129.4,245.5c0.5,0.4,0.8,1.1,0.8,2c0,0.9-0.3,1.5-0.8,1.9c-0.5,0.4-1.3,0.6-2.4,0.6h-1.3v2.1h-1.2v-7.3h2.5
		C128.1,244.8,128.9,245.1,129.4,245.5z M128.5,248.5c0.2-0.3,0.4-0.6,0.4-1.1c0-0.5-0.2-0.9-0.5-1.1c-0.3-0.2-0.8-0.3-1.5-0.3h-1.3
		v2.9h1.4C127.8,248.9,128.3,248.8,128.5,248.5z"/>
	<path class="st0" d="M133.2,250.5c0.3,0.4,0.8,0.6,1.4,0.6s1-0.2,1.4-0.6c0.3-0.4,0.5-0.9,0.5-1.6v-4h1.2v4.1
		c0,1.1-0.3,1.9-0.9,2.4c-0.6,0.6-1.3,0.9-2.2,0.9s-1.6-0.3-2.2-0.9c-0.6-0.6-0.9-1.4-0.9-2.4v-4.1h1.2v4
		C132.7,249.5,132.9,250.1,133.2,250.5z M134.9,244.2h-1.1l1.1-1.5l1.2,0.5L134.9,244.2z"/>
	<path class="st0" d="M142.8,252.1h-3.2v-7.3h2.8c0.5,0,0.9,0.1,1.3,0.2c0.4,0.1,0.6,0.3,0.8,0.5c0.3,0.4,0.5,0.8,0.5,1.3
		c0,0.6-0.2,1-0.5,1.3c-0.1,0.1-0.2,0.2-0.3,0.2s-0.1,0.1-0.3,0.1c0.5,0.1,0.8,0.3,1.1,0.6s0.4,0.7,0.4,1.2c0,0.5-0.2,1-0.5,1.3
		C144.5,251.9,143.8,252.1,142.8,252.1z M140.8,247.9h1.6c0.9,0,1.3-0.3,1.3-0.9c0-0.3-0.1-0.6-0.3-0.8c-0.2-0.2-0.5-0.2-1-0.2h-1.6
		V247.9z M140.8,251h1.9c0.5,0,0.8-0.1,1-0.2c0.2-0.1,0.4-0.4,0.4-0.8c0-0.6-0.5-1-1.6-1h-1.8V251z"/>
	<path class="st0" d="M147,252.1v-7.3h1.2v6.1h3.3v1.2H147z"/>
	<path class="st0" d="M152.9,244.8h1.2v7.3h-1.2V244.8z"/>
	<path class="st0" d="M159.5,251c0.4,0,0.8-0.1,1.1-0.2c0.3-0.1,0.6-0.4,1-0.7l0.8,0.8c-0.8,0.9-1.7,1.3-2.8,1.3
		c-1.1,0-2-0.4-2.7-1.1c-0.7-0.7-1.1-1.6-1.1-2.7c0-1.1,0.4-2,1.1-2.7s1.7-1.1,2.8-1.1s2.1,0.4,2.8,1.3l-0.8,0.9
		c-0.3-0.3-0.7-0.6-1-0.7c-0.3-0.1-0.7-0.2-1.1-0.2c-0.7,0-1.4,0.2-1.9,0.7c-0.5,0.5-0.8,1.1-0.8,1.8c0,0.7,0.2,1.4,0.7,1.9
		C158.2,250.8,158.8,251,159.5,251z"/>
	<path class="st0" d="M164.8,250.5l-0.7,1.7h-1.3l3.2-7.3h1.3l3.2,7.3h-1.3l-0.7-1.7H164.8z M168,249.3l-1.3-3l-1.3,3H168z"/>
</g>
<path class="st1" d="M99.7,196.2L99.7,196.2c-45.4,0-82.2-36.8-82.2-82.2v0c0-45.4,36.8-82.2,82.2-82.2h0
	c45.4,0,82.2,36.8,82.2,82.2v0C181.9,159.4,145.1,196.2,99.7,196.2z"/>
<g>
	<g>
		<rect x="43.4" y="120.8" class="st2" width="18.4" height="42.8"/>
		<rect x="137" y="120.8" class="st2" width="18.9" height="42.8"/>
		<path class="st2" d="M136,163.6H63.1c-0.6,0-1-0.5-1-1v-54.4c0-0.6,0.5-1,1-1H136c0.6,0,1,0.5,1,1v54.4
			C137,163.1,136.6,163.6,136,163.6z"/>
		<rect x="72" y="91.2" class="st2" width="53.4" height="16"/>
		<line class="st2" x1="62.3" y1="91.1" x2="137.2" y2="91.1"/>
		<line class="st3" x1="98.8" y1="52.2" x2="98.8" y2="64.3"/>
		<path class="st2" d="M125.5,91.2c0-0.1,0-0.2,0-0.3c0-14.8-12-26.8-26.8-26.8S72,76.1,72,90.9c0,0.1,0,0.2,0,0.3H125.5z"/>
	</g>
	<g>
		<circle class="st4" cx="133.2" cy="112.9" r="0.7"/>
	</g>
	<line class="st5" x1="133.2" y1="115.4" x2="133.1" y2="118.4"/>
</g>
</svg>
