<?xml version="1.0" encoding="utf-8"?>
<!-- Generator: Adobe Illustrator 23.0.2, SVG Export Plug-In . SVG Version: 6.00 Build 0)  -->
<svg version="1.1" id="Camada_1" xmlns="http://www.w3.org/2000/svg" xmlns:xlink="http://www.w3.org/1999/xlink" x="0px" y="0px"
	 viewBox="0 0 199.6 222" style="enable-background:new 0 0 199.6 222;" xml:space="preserve">
<style type="text/css">
	.st0{fill:#575756;}
	.st1{fill:#F39200;}
	.st2{fill:none;stroke:#FFFFFF;stroke-width:4;stroke-linecap:round;stroke-linejoin:round;stroke-miterlimit:10;}
	.st3{fill:#FFFFFF;}
	.st4{fill:none;stroke:#FFFFFF;stroke-linecap:round;stroke-linejoin:round;stroke-miterlimit:10;}
</style>

<path class="st1" d="M101.2,196.2L101.2,196.2c-45.4,0-82.2-36.8-82.2-82.2v0c0-45.4,36.8-82.2,82.2-82.2h0
	c45.4,0,82.2,36.8,82.2,82.2v0C183.4,159.4,146.6,196.2,101.2,196.2z"/>
<path class="st2" d="M76.3,115.6L62.8,79.4l-13.5,36.2h-8.3c0,12.1,9.8,21.9,21.8,21.9c12.1,0,21.8-9.8,21.8-21.9H76.3z M105.9,84.3
	v-4.8v-4.8h-9.7v4.8v4.8H105.9z M116.3,115.6c0,12.1,9.8,21.9,21.8,21.9s21.8-9.8,21.8-21.9h-8.3l-13.5-36.2l-13.5,36.2H116.3z
	 M121.5,151.1h-13.4l-7-54.3l-7,54.3H80.7v13.1h40.8V151.1z"/>
<path class="st2" d="M76.3,115.6h8.3c0,12.1-9.8,21.9-21.8,21.9c-12.1,0-21.8-9.8-21.8-21.9h8.3H76.3z"/>
<path class="st2" d="M151.7,115.6h8.3c0,12.1-9.8,21.9-21.8,21.9s-21.8-9.8-21.8-21.9h8.3H151.7z"/>
<polyline class="st2" points="105.9,79.4 138.1,79.4 147,79.4 "/>
<polyline class="st2" points="55.2,79.4 62.8,79.4 96.2,79.4 "/>
<polygon class="st2" points="96.2,79.4 96.2,74.6 105.9,74.6 105.9,79.4 105.9,84.3 96.2,84.3 "/>
<polygon class="st2" points="108.1,151.1 121.5,151.1 121.5,164.2 80.7,164.2 80.7,151.1 94.1,151.1 94.2,151.1 93.8,153.8 
	108.4,153.8 108,151.1 "/>
<g>
	<circle class="st3" cx="156.4" cy="121" r="0.5"/>
	<path class="st4" d="M156,122.3c0,0-0.2,1-0.9,1.8"/>
</g>
<g>
	<circle class="st3" cx="81.1" cy="121" r="0.5"/>
	<path class="st4" d="M80.8,122.3c0,0-0.2,1-0.9,1.8"/>
</g>
</svg>
