<?xml version="1.0" encoding="utf-8"?>
<!-- Generator: Adobe Illustrator 23.0.2, SVG Export Plug-In . SVG Version: 6.00 Build 0)  -->
<svg version="1.1" id="Camada_1" xmlns="http://www.w3.org/2000/svg" xmlns:xlink="http://www.w3.org/1999/xlink" x="0px" y="0px"
	 viewBox="0 0 199.6 282" style="enable-background:new 0 0 199.6 282;" xml:space="preserve">
<style type="text/css">
	.st0{fill:#575756;}
	.st1{fill:#F39200;}
	.st2{fill:none;stroke:#FFFFFF;stroke-width:4;stroke-linecap:round;stroke-linejoin:round;stroke-miterlimit:10;}
	.st3{fill:#FFFFFF;}
	.st4{fill:none;stroke:#FFFFFF;stroke-linecap:round;stroke-linejoin:round;stroke-miterlimit:10;}
</style>
<g>
	<path class="st0" d="M79.9,233.3v-1.1h3.5v4.8c0,0.8-0.2,1.5-0.6,1.9c-0.4,0.4-1,0.6-1.7,0.6c-0.8,0-1.6-0.3-2.2-0.9l0.7-1
		c0.5,0.5,0.9,0.7,1.4,0.7c0.3,0,0.6-0.1,0.8-0.3c0.2-0.2,0.3-0.5,0.3-1v-3.8H79.9z"/>
	<path class="st0" d="M87,237.8c0.3,0.4,0.8,0.6,1.4,0.6s1-0.2,1.4-0.6c0.3-0.4,0.5-0.9,0.5-1.6v-4h1.2v4.1c0,1.1-0.3,1.9-0.9,2.4
		c-0.6,0.6-1.3,0.9-2.2,0.9s-1.6-0.3-2.2-0.9c-0.6-0.6-0.9-1.4-0.9-2.4v-4.1h1.2v4C86.5,236.9,86.7,237.4,87,237.8z"/>
	<path class="st0" d="M95.6,233.1c-0.4,0-0.7,0.1-0.9,0.2s-0.3,0.4-0.3,0.7c0,0.3,0.1,0.5,0.3,0.7c0.2,0.2,0.7,0.3,1.5,0.5
		c0.7,0.2,1.3,0.4,1.7,0.8c0.4,0.3,0.6,0.8,0.6,1.4s-0.2,1.2-0.7,1.5c-0.5,0.4-1.1,0.6-1.9,0.6c-1.1,0-2.2-0.4-3-1.2l0.8-0.9
		c0.7,0.6,1.5,1,2.3,1c0.4,0,0.7-0.1,0.9-0.3c0.2-0.2,0.3-0.4,0.3-0.7c0-0.3-0.1-0.5-0.3-0.7c-0.2-0.2-0.6-0.3-1.1-0.4
		c-0.5-0.1-0.9-0.2-1.2-0.4c-0.3-0.1-0.5-0.2-0.7-0.4c-0.4-0.3-0.6-0.8-0.6-1.5s0.2-1.2,0.7-1.6c0.5-0.4,1.1-0.5,1.8-0.5
		c0.5,0,0.9,0.1,1.4,0.2s0.9,0.4,1.2,0.6l-0.7,0.9c-0.2-0.2-0.5-0.4-0.9-0.5C96.3,233.2,95.9,233.1,95.6,233.1z"/>
	<path class="st0" d="M102.7,233.3v6.2h-1.2v-6.2h-2.2v-1.1h5.7v1.1H102.7z"/>
	<path class="st0" d="M106.2,232.2h1.2v7.3h-1.2V232.2z"/>
	<path class="st0" d="M112.8,238.3c0.4,0,0.8-0.1,1.1-0.2c0.3-0.1,0.6-0.4,1-0.7l0.8,0.8c-0.7,0.8-1.6,1.2-2.6,1.3l-0.2,0.3
		c0.5,0.1,0.7,0.3,0.7,0.8c0,0.3-0.1,0.5-0.3,0.7c-0.2,0.2-0.5,0.3-0.8,0.3s-0.6-0.1-0.9-0.2l0.3-0.6c0.1,0.1,0.3,0.1,0.4,0.1
		s0.2,0,0.3-0.1c0.1-0.1,0.1-0.2,0.1-0.3s0-0.2-0.1-0.3c-0.1-0.1-0.2-0.1-0.3-0.1c-0.1,0-0.2,0-0.3,0.1l0.3-0.7
		c-1-0.1-1.7-0.5-2.3-1.2c-0.6-0.7-0.9-1.6-0.9-2.6s0.4-1.9,1.1-2.6s1.7-1.1,2.8-1.1s2.1,0.4,2.8,1.3l-0.8,0.9
		c-0.3-0.3-0.7-0.6-1-0.7c-0.3-0.1-0.7-0.2-1.1-0.2c-0.7,0-1.4,0.2-1.9,0.7c-0.5,0.5-0.8,1.1-0.8,1.8c0,0.7,0.2,1.4,0.7,1.9
		C111.5,238.1,112.1,238.3,112.8,238.3z"/>
	<path class="st0" d="M118.2,237.8l-0.7,1.7h-1.3l3.2-7.3h1.3l3.2,7.3h-1.3l-0.7-1.7H118.2z M121.4,236.7l-1.3-3l-1.3,3H121.4z"/>
</g>
<path class="st1" d="M101.2,196.2L101.2,196.2c-45.4,0-82.2-36.8-82.2-82.2v0c0-45.4,36.8-82.2,82.2-82.2h0
	c45.4,0,82.2,36.8,82.2,82.2v0C183.4,159.4,146.6,196.2,101.2,196.2z"/>
<path class="st2" d="M76.3,115.6L62.8,79.4l-13.5,36.2h-8.3c0,12.1,9.8,21.9,21.8,21.9c12.1,0,21.8-9.8,21.8-21.9H76.3z M105.9,84.3
	v-4.8v-4.8h-9.7v4.8v4.8H105.9z M116.3,115.6c0,12.1,9.8,21.9,21.8,21.9s21.8-9.8,21.8-21.9h-8.3l-13.5-36.2l-13.5,36.2H116.3z
	 M121.5,151.1h-13.4l-7-54.3l-7,54.3H80.7v13.1h40.8V151.1z"/>
<path class="st2" d="M76.3,115.6h8.3c0,12.1-9.8,21.9-21.8,21.9c-12.1,0-21.8-9.8-21.8-21.9h8.3H76.3z"/>
<path class="st2" d="M151.7,115.6h8.3c0,12.1-9.8,21.9-21.8,21.9s-21.8-9.8-21.8-21.9h8.3H151.7z"/>
<polyline class="st2" points="105.9,79.4 138.1,79.4 147,79.4 "/>
<polyline class="st2" points="55.2,79.4 62.8,79.4 96.2,79.4 "/>
<polygon class="st2" points="96.2,79.4 96.2,74.6 105.9,74.6 105.9,79.4 105.9,84.3 96.2,84.3 "/>
<polygon class="st2" points="108.1,151.1 121.5,151.1 121.5,164.2 80.7,164.2 80.7,151.1 94.1,151.1 94.2,151.1 93.8,153.8 
	108.4,153.8 108,151.1 "/>
<g>
	<circle class="st3" cx="156.4" cy="121" r="0.5"/>
	<path class="st4" d="M156,122.3c0,0-0.2,1-0.9,1.8"/>
</g>
<g>
	<circle class="st3" cx="81.1" cy="121" r="0.5"/>
	<path class="st4" d="M80.8,122.3c0,0-0.2,1-0.9,1.8"/>
</g>
</svg>
