<?xml version="1.0" encoding="utf-8"?>
<!-- Generator: Adobe Illustrator 23.0.2, SVG Export Plug-In . SVG Version: 6.00 Build 0)  -->
<svg version="1.1" id="Camada_1" xmlns="http://www.w3.org/2000/svg" xmlns:xlink="http://www.w3.org/1999/xlink" x="0px" y="0px"
	 viewBox="0 0 199.6 222" style="enable-background:new 0 0 199.6 222;" xml:space="preserve">
<style type="text/css">
	.st0{fill:#575756;}
	.st1{fill:#F39200;}
	.st2{fill:none;stroke:#FFFFFF;stroke-width:4;stroke-linecap:round;stroke-linejoin:round;stroke-miterlimit:10;}
	.st3{fill:#FFFFFF;}
	.st4{fill:none;stroke:#FFFFFF;stroke-width:1.2628;stroke-linecap:round;stroke-linejoin:round;stroke-miterlimit:10;}
</style>

<path class="st1" d="M101.5,196.2L101.5,196.2c-45.4,0-82.2-36.8-82.2-82.2v0c0-45.4,36.8-82.2,82.2-82.2h0
	c45.4,0,82.2,36.8,82.2,82.2v0C183.7,159.4,146.9,196.2,101.5,196.2z"/>
<g>
	<g>
		<path id="XMLID_39_" class="st2" d="M78.4,154.5c0,0.6,0.2,1.1,0.6,1.5c0.4,0.4,1,0.6,1.5,0.6l47.2,0c1.2,0,2.1-0.9,2.1-2.1
			c0-0.3,0.1-3.3-0.5-7.5l34.4,0c1.2,0,2.1-0.9,2.1-2.1c0-0.7,0.5-18-10.4-27.9c-0.8-0.7-1.9-0.7-2.7-0.1c-0.1,0.1-12.7,9.6-24.5,0
			c-0.8-0.7-2-0.6-2.7,0c-0.3,0.2-3.7,3.3-6.7,9.2c-0.7-0.3-1.5-0.2-2.1,0.3c-0.5,0.4-12.8,9.5-24.5,0c-0.6-0.5-1.3-0.6-2-0.4
			c-1.5-3.2-3.6-6.4-6.5-9c-0.8-0.7-1.9-0.7-2.7-0.1c-0.1,0.1-12.7,9.6-24.5,0c-0.8-0.7-2-0.6-2.7,0c-0.4,0.4-10.9,9.7-11.1,27.9
			c0,0.6,0.2,1.1,0.6,1.5c0.4,0.4,0.9,0.6,1.5,0.6l34.2,0C78.7,149.4,78.4,151.9,78.4,154.5z"/>
		<path id="XMLID_38_" class="st2" d="M48.3,95.2c0,11.1,9.1,20.2,20.2,20.2h0c5.4,0,10.4-2.1,14.3-5.9c0.5-0.5,1-1.1,1.5-1.7
			c1.5,9.7,9.8,17.1,19.9,17.1h0c5.4,0,10.4-2.1,14.3-5.9c3.2-3.2,5.1-7.2,5.7-11.6c3.7,4.9,9.5,8,16.1,8h0c5.4,0,10.4-2.1,14.3-5.9
			c3.8-3.8,5.9-8.9,5.9-14.3c0-11.1-9.1-20.2-20.2-20.2c-5.4,0-10.4,2.1-14.3,5.9c-3.2,3.2-5.1,7.2-5.7,11.6c-3.7-4.9-9.5-8-16.1-8
			c-5.4,0-10.4,2.1-14.3,5.9c-0.5,0.5-1,1.1-1.5,1.7C86.9,82.4,78.5,75,68.4,75c-5.4,0-10.4,2.1-14.3,5.9
			C50.4,84.7,48.3,89.8,48.3,95.2z"/>
	</g>
	<g>
		<path class="st2" d="M124.6,133.6c0,0,1.7,1.6,1.8,3.7"/>
	</g>
	<g>
		<path class="st2" d="M84.4,133.6c0,0-1.7,1.6-1.8,3.7"/>
	</g>
	<g>
		<circle class="st3" cx="153.2" cy="86.9" r="0.7"/>
		<path class="st4" d="M154.3,88.4c0,0,1.5,1.8,1.3,4"/>
	</g>
</g>
</svg>
