<?xml version="1.0" encoding="utf-8"?>
<!-- Generator: Adobe Illustrator 23.0.2, SVG Export Plug-In . SVG Version: 6.00 Build 0)  -->
<svg version="1.1" id="Camada_1" xmlns="http://www.w3.org/2000/svg" xmlns:xlink="http://www.w3.org/1999/xlink" x="0px" y="0px"
	 viewBox="0 0 199.6 282" style="enable-background:new 0 0 199.6 282;" xml:space="preserve">
<style type="text/css">
	.st0{fill:#575756;}
	.st1{fill:#F39200;}
	.st2{fill:none;stroke:#FFFFFF;stroke-width:4;stroke-linecap:round;stroke-linejoin:round;stroke-miterlimit:10;}
	.st3{fill:#FFFFFF;}
	.st4{fill:none;stroke:#FFFFFF;stroke-width:1.2628;stroke-linecap:round;stroke-linejoin:round;stroke-miterlimit:10;}
</style>
<g>
	<path class="st0" d="M34.9,232.8c0.5,0.4,0.8,1.1,0.8,2c0,0.9-0.3,1.5-0.8,1.9c-0.5,0.4-1.3,0.6-2.4,0.6h-1.3v2.1h-1.2v-7.3h2.5
		C33.5,232.1,34.4,232.4,34.9,232.8z M34,235.8c0.2-0.3,0.4-0.6,0.4-1.1c0-0.5-0.2-0.9-0.5-1.1c-0.3-0.2-0.8-0.3-1.5-0.3h-1.3v2.9
		h1.4C33.3,236.2,33.7,236.1,34,235.8z"/>
	<path class="st0" d="M43.2,238.4c-0.7,0.7-1.6,1.1-2.7,1.1c-1.1,0-2-0.4-2.7-1.1c-0.7-0.7-1.1-1.6-1.1-2.7s0.4-2,1.1-2.7
		c0.7-0.7,1.6-1.1,2.7-1.1c1.1,0,2,0.4,2.7,1.1c0.7,0.7,1.1,1.6,1.1,2.7S43.9,237.7,43.2,238.4z M42.3,233.9
		c-0.5-0.5-1.1-0.8-1.8-0.8c-0.7,0-1.3,0.3-1.8,0.8s-0.7,1.1-0.7,1.9s0.2,1.4,0.7,1.9s1.1,0.8,1.8,0.8c0.7,0,1.3-0.3,1.8-0.8
		s0.7-1.1,0.7-1.9S42.8,234.4,42.3,233.9z"/>
	<path class="st0" d="M50.8,232.8c0.5,0.4,0.8,1.1,0.8,2c0,0.9-0.3,1.5-0.8,1.9c-0.5,0.4-1.3,0.6-2.4,0.6h-1.3v2.1h-1.2v-7.3h2.5
		C49.4,232.1,50.2,232.4,50.8,232.8z M49.9,235.8c0.2-0.3,0.4-0.6,0.4-1.1c0-0.5-0.2-0.9-0.5-1.1c-0.3-0.2-0.8-0.3-1.5-0.3h-1.3v2.9
		h1.4C49.2,236.2,49.6,236.1,49.9,235.8z"/>
	<path class="st0" d="M54.6,237.8c0.3,0.4,0.8,0.6,1.4,0.6s1-0.2,1.4-0.6c0.3-0.4,0.5-0.9,0.5-1.6v-4H59v4.1c0,1.1-0.3,1.9-0.9,2.4
		c-0.6,0.6-1.3,0.9-2.2,0.9s-1.6-0.3-2.2-0.9c-0.6-0.6-0.9-1.4-0.9-2.4v-4.1h1.2v4C54.1,236.9,54.3,237.4,54.6,237.8z"/>
	<path class="st0" d="M61,239.4v-7.3h1.2v6.1h3.3v1.2H61z"/>
	<path class="st0" d="M67.9,237.8l-0.7,1.7h-1.3l3.2-7.3h1.3l3.2,7.3h-1.3l-0.7-1.7H67.9z M71.1,236.6l-1.3-3l-1.3,3H71.1z"/>
	<path class="st0" d="M77.9,238.3c0.4,0,0.8-0.1,1.1-0.2c0.3-0.1,0.6-0.4,1-0.7l0.8,0.8c-0.7,0.8-1.6,1.2-2.6,1.3l-0.2,0.3
		c0.5,0.1,0.7,0.3,0.7,0.8c0,0.3-0.1,0.5-0.3,0.7c-0.2,0.2-0.5,0.3-0.8,0.3s-0.6-0.1-0.9-0.2l0.3-0.6c0.1,0.1,0.3,0.1,0.4,0.1
		s0.2,0,0.3-0.1c0.1-0.1,0.1-0.2,0.1-0.3s0-0.2-0.1-0.3c-0.1-0.1-0.2-0.1-0.3-0.1c-0.1,0-0.2,0-0.3,0.1l0.3-0.7
		c-1-0.1-1.7-0.5-2.3-1.2c-0.6-0.7-0.9-1.6-0.9-2.6s0.4-1.9,1.1-2.6s1.7-1.1,2.8-1.1s2.1,0.4,2.8,1.3l-0.8,0.9
		c-0.3-0.3-0.7-0.6-1-0.7c-0.3-0.1-0.7-0.2-1.1-0.2c-0.7,0-1.4,0.2-1.9,0.7c-0.5,0.5-0.8,1.1-0.8,1.8c0,0.7,0.2,1.4,0.7,1.9
		C76.7,238.1,77.3,238.3,77.9,238.3z"/>
	<path class="st0" d="M85.7,232.1l3.2,7.3h-1.4l-0.7-1.7h-3.5l-0.7,1.7h-1.3l3.2-7.3H85.7z M85.8,231.6c-0.2,0-0.4-0.1-0.8-0.2
		c-0.3-0.2-0.5-0.2-0.6-0.2c-0.2,0-0.3,0.2-0.4,0.5h-0.8c0-0.4,0.1-0.7,0.2-1c0.2-0.3,0.4-0.4,0.7-0.4c0.2,0,0.4,0.1,0.8,0.2
		c0.3,0.2,0.6,0.2,0.7,0.2c0.2,0,0.3-0.2,0.3-0.5h0.8C86.8,231.1,86.5,231.6,85.8,231.6z M86.3,236.6l-1.3-2.8l-1.2,2.8H86.3z"/>
	<path class="st0" d="M96,238.4c-0.7,0.7-1.6,1.1-2.7,1.1c-1.1,0-2-0.4-2.7-1.1c-0.7-0.7-1.1-1.6-1.1-2.7s0.4-2,1.1-2.7
		c0.7-0.7,1.6-1.1,2.7-1.1c1.1,0,2,0.4,2.7,1.1c0.7,0.7,1.1,1.6,1.1,2.7S96.7,237.7,96,238.4z M95.1,233.9c-0.5-0.5-1.1-0.8-1.8-0.8
		c-0.7,0-1.3,0.3-1.8,0.8s-0.7,1.1-0.7,1.9s0.2,1.4,0.7,1.9s1.1,0.8,1.8,0.8c0.7,0,1.3-0.3,1.8-0.8s0.7-1.1,0.7-1.9
		S95.6,234.4,95.1,233.9z"/>
	<path class="st0" d="M106.6,232.1v1.2h-3.9v1.9h3.5v1.1h-3.5v2h4v1.2h-5.2v-7.3H106.6z"/>
	<path class="st0" d="M113.4,233.1c-0.4,0-0.7,0.1-0.9,0.2s-0.3,0.4-0.3,0.7c0,0.3,0.1,0.5,0.3,0.7c0.2,0.2,0.7,0.3,1.5,0.5
		c0.7,0.2,1.3,0.4,1.7,0.8c0.4,0.3,0.6,0.8,0.6,1.4s-0.2,1.2-0.7,1.5c-0.5,0.4-1.1,0.6-1.9,0.6c-1.1,0-2.2-0.4-3-1.2l0.8-0.9
		c0.7,0.6,1.5,1,2.3,1c0.4,0,0.7-0.1,0.9-0.3c0.2-0.2,0.3-0.4,0.3-0.7c0-0.3-0.1-0.5-0.3-0.7c-0.2-0.2-0.6-0.3-1.1-0.4
		c-0.5-0.1-0.9-0.2-1.2-0.4c-0.3-0.1-0.5-0.2-0.7-0.4c-0.4-0.3-0.6-0.8-0.6-1.5s0.2-1.2,0.7-1.6c0.5-0.4,1.1-0.5,1.8-0.5
		c0.5,0,0.9,0.1,1.4,0.2s0.9,0.4,1.2,0.6l-0.7,0.9c-0.2-0.2-0.5-0.4-0.9-0.5C114.1,233.2,113.8,233.1,113.4,233.1z"/>
	<path class="st0" d="M123.9,238.4c-0.7,0.7-1.6,1.1-2.7,1.1c-1.1,0-2-0.4-2.7-1.1c-0.7-0.7-1.1-1.6-1.1-2.7s0.4-2,1.1-2.7
		c0.7-0.7,1.6-1.1,2.7-1.1c1.1,0,2,0.4,2.7,1.1c0.7,0.7,1.1,1.6,1.1,2.7S124.6,237.7,123.9,238.4z M123,233.9
		c-0.5-0.5-1.1-0.8-1.8-0.8c-0.7,0-1.3,0.3-1.8,0.8s-0.7,1.1-0.7,1.9s0.2,1.4,0.7,1.9s1.1,0.8,1.8,0.8c0.7,0,1.3-0.3,1.8-0.8
		s0.7-1.1,0.7-1.9S123.5,234.4,123,233.9z"/>
	<path class="st0" d="M129.9,238.3c0.4,0,0.8-0.1,1.1-0.2c0.3-0.1,0.6-0.4,1-0.7l0.8,0.8c-0.8,0.9-1.7,1.3-2.8,1.3
		c-1.1,0-2-0.4-2.7-1.1c-0.7-0.7-1.1-1.6-1.1-2.7c0-1.1,0.4-2,1.1-2.7s1.7-1.1,2.8-1.1s2.1,0.4,2.8,1.3l-0.8,0.9
		c-0.3-0.3-0.7-0.6-1-0.7c-0.3-0.1-0.7-0.2-1.1-0.2c-0.7,0-1.4,0.2-1.9,0.7c-0.5,0.5-0.8,1.1-0.8,1.8c0,0.7,0.2,1.4,0.7,1.9
		C128.6,238.1,129.2,238.3,129.9,238.3z"/>
	<path class="st0" d="M134.2,232.1h1.2v7.3h-1.2V232.1z"/>
	<path class="st0" d="M142.6,232.1v1.2h-3.9v1.9h3.5v1.1h-3.5v2h4v1.2h-5.2v-7.3H142.6z"/>
	<path class="st0" d="M149.8,233.1c0.7,0.6,1.1,1.5,1.1,2.7s-0.3,2-1,2.7c-0.7,0.7-1.7,1-3.1,1h-2.4v-7.3h2.5
		C148.1,232.1,149.1,232.5,149.8,233.1z M149.6,235.8c0-1.7-1-2.5-2.9-2.5h-1.2v5h1.4c0.9,0,1.6-0.2,2-0.6
		C149.4,237.2,149.6,236.6,149.6,235.8z"/>
	<path class="st0" d="M153.5,237.8l-0.7,1.7h-1.3l3.2-7.3h1.3l3.2,7.3h-1.3l-0.7-1.7H153.5z M156.6,236.6l-1.3-3l-1.3,3H156.6z"/>
	<path class="st0" d="M165.7,233.1c0.7,0.6,1.1,1.5,1.1,2.7s-0.3,2-1,2.7c-0.7,0.7-1.7,1-3.1,1h-2.4v-7.3h2.5
		C164,232.1,165,232.5,165.7,233.1z M165.5,235.8c0-1.7-1-2.5-2.9-2.5h-1.2v5h1.4c0.9,0,1.6-0.2,2-0.6
		C165.3,237.2,165.5,236.6,165.5,235.8z"/>
	<path class="st0" d="M173.5,232.1v1.2h-3.9v1.9h3.5v1.1h-3.5v2h4v1.2h-5.2v-7.3H173.5z"/>
</g>
<path class="st1" d="M101.5,196.2L101.5,196.2c-45.4,0-82.2-36.8-82.2-82.2v0c0-45.4,36.8-82.2,82.2-82.2h0
	c45.4,0,82.2,36.8,82.2,82.2v0C183.7,159.4,146.9,196.2,101.5,196.2z"/>
<g>
	<g>
		<path id="XMLID_39_" class="st2" d="M78.4,154.5c0,0.6,0.2,1.1,0.6,1.5c0.4,0.4,1,0.6,1.5,0.6l47.2,0c1.2,0,2.1-0.9,2.1-2.1
			c0-0.3,0.1-3.3-0.5-7.5l34.4,0c1.2,0,2.1-0.9,2.1-2.1c0-0.7,0.5-18-10.4-27.9c-0.8-0.7-1.9-0.7-2.7-0.1c-0.1,0.1-12.7,9.6-24.5,0
			c-0.8-0.7-2-0.6-2.7,0c-0.3,0.2-3.7,3.3-6.7,9.2c-0.7-0.3-1.5-0.2-2.1,0.3c-0.5,0.4-12.8,9.5-24.5,0c-0.6-0.5-1.3-0.6-2-0.4
			c-1.5-3.2-3.6-6.4-6.5-9c-0.8-0.7-1.9-0.7-2.7-0.1c-0.1,0.1-12.7,9.6-24.5,0c-0.8-0.7-2-0.6-2.7,0c-0.4,0.4-10.9,9.7-11.1,27.9
			c0,0.6,0.2,1.1,0.6,1.5c0.4,0.4,0.9,0.6,1.5,0.6l34.2,0C78.7,149.4,78.4,151.9,78.4,154.5z"/>
		<path id="XMLID_38_" class="st2" d="M48.3,95.2c0,11.1,9.1,20.2,20.2,20.2h0c5.4,0,10.4-2.1,14.3-5.9c0.5-0.5,1-1.1,1.5-1.7
			c1.5,9.7,9.8,17.1,19.9,17.1h0c5.4,0,10.4-2.1,14.3-5.9c3.2-3.2,5.1-7.2,5.7-11.6c3.7,4.9,9.5,8,16.1,8h0c5.4,0,10.4-2.1,14.3-5.9
			c3.8-3.8,5.9-8.9,5.9-14.3c0-11.1-9.1-20.2-20.2-20.2c-5.4,0-10.4,2.1-14.3,5.9c-3.2,3.2-5.1,7.2-5.7,11.6c-3.7-4.9-9.5-8-16.1-8
			c-5.4,0-10.4,2.1-14.3,5.9c-0.5,0.5-1,1.1-1.5,1.7C86.9,82.4,78.5,75,68.4,75c-5.4,0-10.4,2.1-14.3,5.9
			C50.4,84.7,48.3,89.8,48.3,95.2z"/>
	</g>
	<g>
		<path class="st2" d="M124.6,133.6c0,0,1.7,1.6,1.8,3.7"/>
	</g>
	<g>
		<path class="st2" d="M84.4,133.6c0,0-1.7,1.6-1.8,3.7"/>
	</g>
	<g>
		<circle class="st3" cx="153.2" cy="86.9" r="0.7"/>
		<path class="st4" d="M154.3,88.4c0,0,1.5,1.8,1.3,4"/>
	</g>
</g>
</svg>
