<?xml version="1.0" encoding="utf-8"?>
<!-- Generator: Adobe Illustrator 23.0.2, SVG Export Plug-In . SVG Version: 6.00 Build 0)  -->
<svg version="1.1" id="Camada_1" xmlns="http://www.w3.org/2000/svg" xmlns:xlink="http://www.w3.org/1999/xlink" x="0px" y="0px"
	 viewBox="0 0 199.6 222" style="enable-background:new 0 0 199.6 222;" xml:space="preserve">
<style type="text/css">
	.st0{fill:#575756;}
	.st1{fill:#F39200;}
	.st2{fill:none;stroke:#FFFFFF;stroke-width:4;stroke-linecap:round;stroke-linejoin:round;stroke-miterlimit:10;}
	.st3{fill:#FFFFFF;}
	.st4{fill:none;stroke:#FFFFFF;stroke-width:2;stroke-linecap:round;stroke-linejoin:round;stroke-miterlimit:10;}
</style>

<path class="st1" d="M101.8,196.2L101.8,196.2c-45.4,0-82.2-36.8-82.2-82.2v0c0-45.4,36.8-82.2,82.2-82.2h0
	c45.4,0,82.2,36.8,82.2,82.2v0C183.9,159.4,147.1,196.2,101.8,196.2z"/>
<g>
	<path id="XMLID_18_" class="st2" d="M49.2,135h31.6v31.6c0,1.8,1.5,3.3,3.3,3.3h35.4c1.8,0,3.3-1.5,3.3-3.3V135h31.6
		c1.8,0,3.3-1.5,3.3-3.3V96.3c0-1.8-1.5-3.3-3.3-3.3h-31.6V61.5c0-1.8-1.5-3.3-3.3-3.3H84.1c-1.8,0-3.3,1.5-3.3,3.3V93H49.2
		c-1.8,0-3.3,1.5-3.3,3.3v35.4C46,133.5,47.4,135,49.2,135z"/>
	<g>
		<g>
			<circle class="st3" cx="152.9" cy="101.7" r="1"/>
		</g>
		<line class="st4" x1="152.9" y1="104.4" x2="152.9" y2="107.4"/>
	</g>
</g>
</svg>
