<?xml version="1.0" encoding="utf-8"?>
<!-- Generator: Adobe Illustrator 23.0.2, SVG Export Plug-In . SVG Version: 6.00 Build 0)  -->
<svg version="1.1" id="Camada_1" xmlns="http://www.w3.org/2000/svg" xmlns:xlink="http://www.w3.org/1999/xlink" x="0px" y="0px"
	 viewBox="0 0 199.6 282" style="enable-background:new 0 0 199.6 282;" xml:space="preserve">
<style type="text/css">
	.st0{fill:#575756;}
	.st1{fill:#F39200;}
	.st2{fill:none;stroke:#FFFFFF;stroke-width:4;stroke-linecap:round;stroke-linejoin:round;stroke-miterlimit:10;}
	.st3{fill:#FFFFFF;}
	.st4{fill:none;stroke:#FFFFFF;stroke-width:2;stroke-linecap:round;stroke-linejoin:round;stroke-miterlimit:10;}
</style>
<g>
	<path class="st0" d="M85.7,233.1c-0.4,0-0.7,0.1-0.9,0.2s-0.3,0.4-0.3,0.7c0,0.3,0.1,0.5,0.3,0.7c0.2,0.2,0.7,0.3,1.5,0.5
		c0.7,0.2,1.3,0.4,1.7,0.8c0.4,0.3,0.6,0.8,0.6,1.4s-0.2,1.2-0.7,1.5c-0.5,0.4-1.1,0.6-1.9,0.6c-1.1,0-2.2-0.4-3-1.2l0.8-0.9
		c0.7,0.6,1.5,1,2.3,1c0.4,0,0.7-0.1,0.9-0.3c0.2-0.2,0.3-0.4,0.3-0.7c0-0.3-0.1-0.5-0.3-0.7c-0.2-0.2-0.6-0.3-1.1-0.4
		c-0.5-0.1-0.9-0.2-1.2-0.4c-0.3-0.1-0.5-0.2-0.7-0.4c-0.4-0.3-0.6-0.8-0.6-1.5s0.2-1.2,0.7-1.6c0.5-0.4,1.1-0.5,1.8-0.5
		c0.5,0,0.9,0.1,1.4,0.2s0.9,0.4,1.2,0.6l-0.7,0.9c-0.2-0.2-0.5-0.4-0.9-0.5C86.4,233.2,86.1,233.1,85.7,233.1z"/>
	<path class="st0" d="M91,237.8l-0.7,1.7H89l3.2-7.3h1.3l3.2,7.3h-1.3l-0.7-1.7H91z M94.2,236.6l-1.3-3l-1.3,3H94.2z"/>
	<path class="st0" d="M99.4,237.8c0.3,0.4,0.8,0.6,1.4,0.6s1-0.2,1.4-0.6c0.3-0.4,0.5-0.9,0.5-1.6v-4h1.2v4.1c0,1.1-0.3,1.9-0.9,2.4
		c-0.6,0.6-1.3,0.9-2.2,0.9s-1.6-0.3-2.2-0.9c-0.6-0.6-0.9-1.4-0.9-2.4v-4.1h1.2v4C98.9,236.8,99,237.4,99.4,237.8z M101.1,231.5
		H100l1.1-1.5l1.2,0.5L101.1,231.5z"/>
	<path class="st0" d="M111.3,233.1c0.7,0.6,1.1,1.5,1.1,2.7s-0.3,2-1,2.7c-0.7,0.7-1.7,1-3.1,1h-2.4v-7.3h2.5
		C109.6,232.1,110.6,232.4,111.3,233.1z M111.1,235.8c0-1.7-1-2.5-2.9-2.5H107v5h1.4c0.9,0,1.6-0.2,2-0.6
		C110.8,237.2,111.1,236.6,111.1,235.8z"/>
	<path class="st0" d="M119,232.1v1.2h-3.9v1.9h3.5v1.1h-3.5v2h4v1.2h-5.2v-7.3H119z"/>
</g>
<path class="st1" d="M101.8,196.2L101.8,196.2c-45.4,0-82.2-36.8-82.2-82.2v0c0-45.4,36.8-82.2,82.2-82.2h0
	c45.4,0,82.2,36.8,82.2,82.2v0C183.9,159.4,147.1,196.2,101.8,196.2z"/>
<g>
	<path id="XMLID_18_" class="st2" d="M49.2,135h31.6v31.6c0,1.8,1.5,3.3,3.3,3.3h35.4c1.8,0,3.3-1.5,3.3-3.3V135h31.6
		c1.8,0,3.3-1.5,3.3-3.3V96.3c0-1.8-1.5-3.3-3.3-3.3h-31.6V61.5c0-1.8-1.5-3.3-3.3-3.3H84.1c-1.8,0-3.3,1.5-3.3,3.3V93H49.2
		c-1.8,0-3.3,1.5-3.3,3.3v35.4C46,133.5,47.4,135,49.2,135z"/>
	<g>
		<g>
			<circle class="st3" cx="152.9" cy="101.7" r="1"/>
		</g>
		<line class="st4" x1="152.9" y1="104.4" x2="152.9" y2="107.4"/>
	</g>
</g>
</svg>
