<?xml version="1.0" encoding="utf-8"?>
<!-- Generator: Adobe Illustrator 23.0.2, SVG Export Plug-In . SVG Version: 6.00 Build 0)  -->
<svg version="1.1" id="Camada_1" xmlns="http://www.w3.org/2000/svg" xmlns:xlink="http://www.w3.org/1999/xlink" x="0px" y="0px"
	 viewBox="0 0 199.6 222" style="enable-background:new 0 0 199.6 222;" xml:space="preserve">
<style type="text/css">
	.st0{fill:#575756;}
	.st1{fill:#F39200;}
	.st2{fill:none;stroke:#FFFFFF;stroke-width:4;stroke-linecap:round;stroke-linejoin:round;stroke-miterlimit:10;}
	.st3{fill:#FFFFFF;}
	.st4{fill:none;stroke:#FFFFFF;stroke-width:2;stroke-linecap:round;stroke-linejoin:round;stroke-miterlimit:10;}
</style>

<path class="st1" d="M101.8,196.2L101.8,196.2c-45.4,0-82.2-36.8-82.2-82.2v0c0-45.4,36.8-82.2,82.2-82.2h0
	c45.4,0,82.2,36.8,82.2,82.2v0C184,159.4,147.2,196.2,101.8,196.2z"/>
<g>
	<g>
		<path class="st2" d="M138,137.8c2.9-3.5,4.7-8,4.7-13V85.3c0-11.2-9.1-20.2-20.2-20.2H83c-11.2,0-20.2,9.1-20.2,20.2v39.5
			c0,4.9,1.8,9.5,4.7,13"/>
		<path class="st2" d="M70.4,140.8c3.4,2.7,7.8,4.3,12.5,4.3h39.5c4.7,0,9.1-1.6,12.5-4.3"/>
		<line class="st2" x1="66" y1="92.3" x2="138.9" y2="92.3"/>
		<line class="st2" x1="103.5" y1="151.7" x2="137.3" y2="151.7"/>
		<line class="st2" x1="66.3" y1="151.7" x2="86.9" y2="151.7"/>
		<line class="st2" x1="93.9" y1="151.7" x2="98.8" y2="151.7"/>
		<line class="st2" x1="111.2" y1="159.8" x2="145" y2="159.8"/>
		<line class="st2" x1="58.3" y1="159.8" x2="103.1" y2="159.8"/>
		<line class="st2" x1="106.3" y1="159.8" x2="108.1" y2="159.8"/>
		<path class="st3" d="M119.6,133.7c4.5,0,8.1-3.7,8.1-8.1c0-4.5-3.7-8.1-8.1-8.1c-4.5,0-8.1,3.7-8.1,8.1
			C111.5,130.1,115.1,133.7,119.6,133.7z M119.6,121.5c2.2,0,4.1,1.8,4.1,4.1c0,2.2-1.8,4.1-4.1,4.1c-2.2,0-4.1-1.8-4.1-4.1
			C115.6,123.3,117.4,121.5,119.6,121.5z"/>
		<path class="st3" d="M85.8,133.7c4.5,0,8.1-3.7,8.1-8.1c0-4.5-3.7-8.1-8.1-8.1c-4.5,0-8.1,3.7-8.1,8.1
			C77.7,130.1,81.3,133.7,85.8,133.7z M85.8,121.5c2.2,0,4.1,1.8,4.1,4.1c0,2.2-1.8,4.1-4.1,4.1c-2.2,0-4.1-1.8-4.1-4.1
			C81.8,123.3,83.6,121.5,85.8,121.5z"/>
		<path class="st2" d="M115.3,74.4H90.2c-1.1,0-2,0.9-2,2c0,1.1,0.9,2,2,2h25.1c1.1,0,2-0.9,2-2C117.3,75.3,116.4,74.4,115.3,74.4z"
			/>
		<path class="st2" d="M50.5,161l17.7-17.7c0.8-0.8,0.8-2.1,0-2.9c-0.8-0.8-2.1-0.8-2.9,0l-17.7,17.7c-0.8,0.8-0.8,2.1,0,2.9
			C48.4,161.8,49.7,161.8,50.5,161z"/>
		<line class="st2" x1="66" y1="109.1" x2="138.9" y2="109.1"/>
		<path class="st2" d="M155.2,160.9l-17.7-17.7c-0.8-0.8-0.8-2.1,0-2.9c0.8-0.8,2.1-0.8,2.9,0L158,158c0.8,0.8,0.8,2.1,0,2.9
			C157.2,161.7,156,161.7,155.2,160.9z"/>
	</g>
	<g>
		<g>
			<circle class="st3" cx="136.9" cy="97.6" r="1"/>
		</g>
		<line class="st4" x1="136.9" y1="100.3" x2="136.8" y2="103.3"/>
	</g>
</g>
</svg>
