<?xml version="1.0" encoding="utf-8"?>
<!-- Generator: Adobe Illustrator 23.0.2, SVG Export Plug-In . SVG Version: 6.00 Build 0)  -->
<svg version="1.1" id="Camada_1" xmlns="http://www.w3.org/2000/svg" xmlns:xlink="http://www.w3.org/1999/xlink" x="0px" y="0px"
	 viewBox="0 0 199.6 282" style="enable-background:new 0 0 199.6 282;" xml:space="preserve">
<style type="text/css">
	.st0{fill:#575756;}
	.st1{fill:#F39200;}
	.st2{fill:none;stroke:#FFFFFF;stroke-width:4;stroke-linecap:round;stroke-linejoin:round;stroke-miterlimit:10;}
	.st3{fill:#FFFFFF;}
	.st4{fill:none;stroke:#FFFFFF;stroke-width:2;stroke-linecap:round;stroke-linejoin:round;stroke-miterlimit:10;}
</style>
<g>
	<path class="st0" d="M65.6,233.2v6.2h-1.2v-6.2h-2.2v-1.1h5.7v1.1H65.6z"/>
	<path class="st0" d="M74.9,234.5c0,1.2-0.5,2-1.6,2.3l1.9,2.6h-1.6l-1.7-2.5h-1.6v2.5h-1.2v-7.3h2.7c1.1,0,1.9,0.2,2.4,0.6
		C74.7,233.1,74.9,233.7,74.9,234.5z M73.3,235.5c0.3-0.2,0.4-0.6,0.4-1c0-0.5-0.1-0.8-0.4-1c-0.3-0.2-0.7-0.3-1.4-0.3h-1.6v2.6h1.5
		C72.6,235.8,73,235.7,73.3,235.5z"/>
	<path class="st0" d="M77.7,237.7l-0.7,1.7h-1.3l3.2-7.3h1.3l3.2,7.3h-1.3l-0.7-1.7H77.7z M80.9,236.6l-1.3-3l-1.3,3H80.9z"/>
	<path class="st0" d="M89.9,232.1h1.2v7.3h-1.3l-4.1-5.3v5.3h-1.2v-7.3h1.2l4.2,5.4V232.1z"/>
	<path class="st0" d="M95.4,233.1c-0.4,0-0.7,0.1-0.9,0.2s-0.3,0.4-0.3,0.7c0,0.3,0.1,0.5,0.3,0.7c0.2,0.2,0.7,0.3,1.5,0.5
		c0.7,0.2,1.3,0.4,1.7,0.8c0.4,0.3,0.6,0.8,0.6,1.4s-0.2,1.2-0.7,1.5c-0.5,0.4-1.1,0.6-1.9,0.6c-1.1,0-2.2-0.4-3-1.2l0.8-0.9
		c0.7,0.6,1.5,1,2.3,1c0.4,0,0.7-0.1,0.9-0.3c0.2-0.2,0.3-0.4,0.3-0.7c0-0.3-0.1-0.5-0.3-0.7c-0.2-0.2-0.6-0.3-1.1-0.4
		c-0.5-0.1-0.9-0.2-1.2-0.4c-0.3-0.1-0.5-0.2-0.7-0.4c-0.4-0.3-0.6-0.8-0.6-1.5s0.2-1.2,0.7-1.6c0.5-0.4,1.1-0.5,1.8-0.5
		c0.5,0,0.9,0.1,1.4,0.2s0.9,0.4,1.2,0.6l-0.7,0.9c-0.2-0.2-0.5-0.4-0.9-0.5C96.1,233.1,95.7,233.1,95.4,233.1z"/>
	<path class="st0" d="M104.6,232.8c0.5,0.4,0.8,1.1,0.8,2c0,0.9-0.3,1.5-0.8,1.9c-0.5,0.4-1.3,0.6-2.4,0.6H101v2.1h-1.2v-7.3h2.5
		C103.3,232.1,104.1,232.3,104.6,232.8z M103.8,235.8c0.2-0.3,0.4-0.6,0.4-1.1c0-0.5-0.2-0.9-0.5-1.1c-0.3-0.2-0.8-0.3-1.5-0.3H101
		v2.9h1.4C103.1,236.2,103.5,236,103.8,235.8z"/>
	<path class="st0" d="M113,238.4c-0.7,0.7-1.6,1.1-2.7,1.1c-1.1,0-2-0.4-2.7-1.1c-0.7-0.7-1.1-1.6-1.1-2.7s0.4-2,1.1-2.7
		c0.7-0.7,1.6-1.1,2.7-1.1c1.1,0,2,0.4,2.7,1.1c0.7,0.7,1.1,1.6,1.1,2.7S113.7,237.7,113,238.4z M112.1,233.8
		c-0.5-0.5-1.1-0.8-1.8-0.8c-0.7,0-1.3,0.3-1.8,0.8s-0.7,1.1-0.7,1.9s0.2,1.4,0.7,1.9s1.1,0.8,1.8,0.8c0.7,0,1.3-0.3,1.8-0.8
		s0.7-1.1,0.7-1.9S112.6,234.4,112.1,233.8z"/>
	<path class="st0" d="M121.4,234.5c0,1.2-0.5,2-1.6,2.3l1.9,2.6h-1.6l-1.7-2.5h-1.6v2.5h-1.2v-7.3h2.7c1.1,0,1.9,0.2,2.4,0.6
		C121.2,233.1,121.4,233.7,121.4,234.5z M119.8,235.5c0.3-0.2,0.4-0.6,0.4-1c0-0.5-0.1-0.8-0.4-1c-0.3-0.2-0.7-0.3-1.4-0.3h-1.6v2.6
		h1.5C119.1,235.8,119.5,235.7,119.8,235.5z"/>
	<path class="st0" d="M125.9,233.2v6.2h-1.2v-6.2h-2.2v-1.1h5.7v1.1H125.9z"/>
	<path class="st0" d="M134.5,232.1v1.2h-3.9v1.9h3.5v1.1h-3.5v2h4v1.2h-5.2v-7.3H134.5z"/>
	<path class="st0" d="M138.4,233.1c-0.4,0-0.7,0.1-0.9,0.2s-0.3,0.4-0.3,0.7c0,0.3,0.1,0.5,0.3,0.7c0.2,0.2,0.7,0.3,1.5,0.5
		c0.7,0.2,1.3,0.4,1.7,0.8c0.4,0.3,0.6,0.8,0.6,1.4s-0.2,1.2-0.7,1.5c-0.5,0.4-1.1,0.6-1.9,0.6c-1.1,0-2.2-0.4-3-1.2l0.8-0.9
		c0.7,0.6,1.5,1,2.3,1c0.4,0,0.7-0.1,0.9-0.3c0.2-0.2,0.3-0.4,0.3-0.7c0-0.3-0.1-0.5-0.3-0.7c-0.2-0.2-0.6-0.3-1.1-0.4
		c-0.5-0.1-0.9-0.2-1.2-0.4c-0.3-0.1-0.5-0.2-0.7-0.4c-0.4-0.3-0.6-0.8-0.6-1.5s0.2-1.2,0.7-1.6c0.5-0.4,1.1-0.5,1.8-0.5
		c0.5,0,0.9,0.1,1.4,0.2s0.9,0.4,1.2,0.6l-0.7,0.9c-0.2-0.2-0.5-0.4-0.9-0.5C139.2,233.1,138.8,233.1,138.4,233.1z"/>
	<path class="st0" d="M50.5,244.8v1.2h-3.9v1.9h3.5v1.1h-3.5v2h4v1.2h-5.2v-7.3H50.5z"/>
	<path class="st0" d="M55.1,244.8h1.2v7.3h-1.2V244.8z"/>
	<path class="st0" d="M63.8,244.8H65v7.3h-1.3l-4.1-5.3v5.3h-1.2v-7.3h1.2l4.2,5.4V244.8z"/>
	<path class="st0" d="M68.3,245.9v2h3.2v1.1h-3.2v3h-1.2v-7.3h4.9l0,1.1H68.3z"/>
	<path class="st0" d="M79.2,247.1c0,1.2-0.5,2-1.6,2.3l1.9,2.6h-1.6l-1.7-2.5h-1.6v2.5h-1.2v-7.3h2.7c1.1,0,1.9,0.2,2.4,0.6
		C78.9,245.7,79.2,246.3,79.2,247.1z M77.5,248.2c0.3-0.2,0.4-0.6,0.4-1c0-0.5-0.1-0.8-0.4-1c-0.3-0.2-0.7-0.3-1.4-0.3h-1.6v2.6h1.5
		C76.8,248.5,77.3,248.4,77.5,248.2z"/>
	<path class="st0" d="M82,250.4l-0.7,1.7h-1.3l3.2-7.3h1.3l3.2,7.3h-1.3l-0.7-1.7H82z M85.1,249.2l-1.3-3l-1.3,3H85.1z"/>
	<path class="st0" d="M93.8,244.8v1.2h-3.9v1.9h3.5v1.1h-3.5v2h4v1.2h-5.2v-7.3H93.8z"/>
	<path class="st0" d="M97.7,245.7c-0.4,0-0.7,0.1-0.9,0.2s-0.3,0.4-0.3,0.7c0,0.3,0.1,0.5,0.3,0.7c0.2,0.2,0.7,0.3,1.5,0.5
		c0.7,0.2,1.3,0.4,1.7,0.8c0.4,0.3,0.6,0.8,0.6,1.4s-0.2,1.2-0.7,1.5c-0.5,0.4-1.1,0.6-1.9,0.6c-1.1,0-2.2-0.4-3-1.2l0.8-0.9
		c0.7,0.6,1.5,1,2.3,1c0.4,0,0.7-0.1,0.9-0.3c0.2-0.2,0.3-0.4,0.3-0.7c0-0.3-0.1-0.5-0.3-0.7c-0.2-0.2-0.6-0.3-1.1-0.4
		c-0.5-0.1-0.9-0.2-1.2-0.4c-0.3-0.1-0.5-0.2-0.7-0.4c-0.4-0.3-0.6-0.8-0.6-1.5s0.2-1.2,0.7-1.6c0.5-0.4,1.1-0.5,1.8-0.5
		c0.5,0,0.9,0.1,1.4,0.2s0.9,0.4,1.2,0.6l-0.7,0.9c-0.2-0.2-0.5-0.4-0.9-0.5C98.4,245.8,98.1,245.7,97.7,245.7z"/>
	<path class="st0" d="M104.8,245.9v6.2h-1.2v-6.2h-2.2v-1.1h5.7v1.1H104.8z"/>
	<path class="st0" d="M114.2,247.1c0,1.2-0.5,2-1.6,2.3l1.9,2.6H113l-1.7-2.5h-1.6v2.5h-1.2v-7.3h2.7c1.1,0,1.9,0.2,2.4,0.6
		C114,245.7,114.2,246.3,114.2,247.1z M112.6,248.2c0.3-0.2,0.4-0.6,0.4-1c0-0.5-0.1-0.8-0.4-1c-0.3-0.2-0.7-0.3-1.4-0.3h-1.6v2.6
		h1.5C111.8,248.5,112.3,248.4,112.6,248.2z"/>
	<path class="st0" d="M117.6,250.4c0.3,0.4,0.8,0.6,1.4,0.6s1-0.2,1.4-0.6c0.3-0.4,0.5-0.9,0.5-1.6v-4h1.2v4.1
		c0,1.1-0.3,1.9-0.9,2.4c-0.6,0.6-1.3,0.9-2.2,0.9s-1.6-0.3-2.2-0.9c-0.6-0.6-0.9-1.4-0.9-2.4v-4.1h1.2v4
		C117.1,249.5,117.3,250,117.6,250.4z"/>
	<path class="st0" d="M126.7,245.9v6.2h-1.2v-6.2h-2.2v-1.1h5.7v1.1H126.7z"/>
	<path class="st0" d="M131.9,250.4c0.3,0.4,0.8,0.6,1.4,0.6s1-0.2,1.4-0.6c0.3-0.4,0.5-0.9,0.5-1.6v-4h1.2v4.1
		c0,1.1-0.3,1.9-0.9,2.4c-0.6,0.6-1.3,0.9-2.2,0.9s-1.6-0.3-2.2-0.9c-0.6-0.6-0.9-1.4-0.9-2.4v-4.1h1.2v4
		C131.4,249.5,131.6,250,131.9,250.4z"/>
	<path class="st0" d="M144.1,247.1c0,1.2-0.5,2-1.6,2.3l1.9,2.6h-1.6l-1.7-2.5h-1.6v2.5h-1.2v-7.3h2.7c1.1,0,1.9,0.2,2.4,0.6
		C143.9,245.7,144.1,246.3,144.1,247.1z M142.5,248.2c0.3-0.2,0.4-0.6,0.4-1c0-0.5-0.1-0.8-0.4-1c-0.3-0.2-0.7-0.3-1.4-0.3h-1.6v2.6
		h1.5C141.8,248.5,142.2,248.4,142.5,248.2z"/>
	<path class="st0" d="M146.9,250.4l-0.7,1.7h-1.3l3.2-7.3h1.3l3.2,7.3h-1.3l-0.7-1.7H146.9z M150.1,249.2l-1.3-3l-1.3,3H150.1z"/>
	<path class="st0" d="M155.8,245.7c-0.4,0-0.7,0.1-0.9,0.2s-0.3,0.4-0.3,0.7c0,0.3,0.1,0.5,0.3,0.7c0.2,0.2,0.7,0.3,1.5,0.5
		c0.7,0.2,1.3,0.4,1.7,0.8c0.4,0.3,0.6,0.8,0.6,1.4s-0.2,1.2-0.7,1.5c-0.5,0.4-1.1,0.6-1.9,0.6c-1.1,0-2.2-0.4-3-1.2l0.8-0.9
		c0.7,0.6,1.5,1,2.3,1c0.4,0,0.7-0.1,0.9-0.3c0.2-0.2,0.3-0.4,0.3-0.7c0-0.3-0.1-0.5-0.3-0.7c-0.2-0.2-0.6-0.3-1.1-0.4
		c-0.5-0.1-0.9-0.2-1.2-0.4c-0.3-0.1-0.5-0.2-0.7-0.4c-0.4-0.3-0.6-0.8-0.6-1.5s0.2-1.2,0.7-1.6c0.5-0.4,1.1-0.5,1.8-0.5
		c0.5,0,0.9,0.1,1.4,0.2s0.9,0.4,1.2,0.6l-0.7,0.9c-0.2-0.2-0.5-0.4-0.9-0.5C156.6,245.8,156.2,245.7,155.8,245.7z"/>
</g>
<path class="st1" d="M101.8,196.2L101.8,196.2c-45.4,0-82.2-36.8-82.2-82.2v0c0-45.4,36.8-82.2,82.2-82.2h0
	c45.4,0,82.2,36.8,82.2,82.2v0C184,159.4,147.2,196.2,101.8,196.2z"/>
<g>
	<g>
		<path class="st2" d="M138,137.8c2.9-3.5,4.7-8,4.7-13V85.3c0-11.2-9.1-20.2-20.2-20.2H83c-11.2,0-20.2,9.1-20.2,20.2v39.5
			c0,4.9,1.8,9.5,4.7,13"/>
		<path class="st2" d="M70.4,140.8c3.4,2.7,7.8,4.3,12.5,4.3h39.5c4.7,0,9.1-1.6,12.5-4.3"/>
		<line class="st2" x1="66" y1="92.3" x2="138.9" y2="92.3"/>
		<line class="st2" x1="103.5" y1="151.7" x2="137.3" y2="151.7"/>
		<line class="st2" x1="66.3" y1="151.7" x2="86.9" y2="151.7"/>
		<line class="st2" x1="93.9" y1="151.7" x2="98.8" y2="151.7"/>
		<line class="st2" x1="111.2" y1="159.8" x2="145" y2="159.8"/>
		<line class="st2" x1="58.3" y1="159.8" x2="103.1" y2="159.8"/>
		<line class="st2" x1="106.3" y1="159.8" x2="108.1" y2="159.8"/>
		<path class="st3" d="M119.6,133.7c4.5,0,8.1-3.7,8.1-8.1c0-4.5-3.7-8.1-8.1-8.1c-4.5,0-8.1,3.7-8.1,8.1
			C111.5,130.1,115.1,133.7,119.6,133.7z M119.6,121.5c2.2,0,4.1,1.8,4.1,4.1c0,2.2-1.8,4.1-4.1,4.1c-2.2,0-4.1-1.8-4.1-4.1
			C115.6,123.3,117.4,121.5,119.6,121.5z"/>
		<path class="st3" d="M85.8,133.7c4.5,0,8.1-3.7,8.1-8.1c0-4.5-3.7-8.1-8.1-8.1c-4.5,0-8.1,3.7-8.1,8.1
			C77.7,130.1,81.3,133.7,85.8,133.7z M85.8,121.5c2.2,0,4.1,1.8,4.1,4.1c0,2.2-1.8,4.1-4.1,4.1c-2.2,0-4.1-1.8-4.1-4.1
			C81.8,123.3,83.6,121.5,85.8,121.5z"/>
		<path class="st2" d="M115.3,74.4H90.2c-1.1,0-2,0.9-2,2c0,1.1,0.9,2,2,2h25.1c1.1,0,2-0.9,2-2C117.3,75.3,116.4,74.4,115.3,74.4z"
			/>
		<path class="st2" d="M50.5,161l17.7-17.7c0.8-0.8,0.8-2.1,0-2.9c-0.8-0.8-2.1-0.8-2.9,0l-17.7,17.7c-0.8,0.8-0.8,2.1,0,2.9
			C48.4,161.8,49.7,161.8,50.5,161z"/>
		<line class="st2" x1="66" y1="109.1" x2="138.9" y2="109.1"/>
		<path class="st2" d="M155.2,160.9l-17.7-17.7c-0.8-0.8-0.8-2.1,0-2.9c0.8-0.8,2.1-0.8,2.9,0L158,158c0.8,0.8,0.8,2.1,0,2.9
			C157.2,161.7,156,161.7,155.2,160.9z"/>
	</g>
	<g>
		<g>
			<circle class="st3" cx="136.9" cy="97.6" r="1"/>
		</g>
		<line class="st4" x1="136.9" y1="100.3" x2="136.8" y2="103.3"/>
	</g>
</g>
</svg>
