<?xml version="1.0" encoding="utf-8"?>
<!-- Generator: Adobe Illustrator 23.0.2, SVG Export Plug-In . SVG Version: 6.00 Build 0)  -->
<svg version="1.1" id="Camada_1" xmlns="http://www.w3.org/2000/svg" xmlns:xlink="http://www.w3.org/1999/xlink" x="0px" y="0px"
	 viewBox="0 0 199.6 222" style="enable-background:new 0 0 199.6 222;" xml:space="preserve">
<style type="text/css">
	.st0{fill:#575756;}
	.st1{fill:#F39200;}
	.st2{fill:none;stroke:#FFFFFF;stroke-width:4;stroke-linecap:round;stroke-linejoin:round;stroke-miterlimit:10;}
	.st3{fill:#FFFFFF;}
	.st4{fill:none;stroke:#FFFFFF;stroke-width:2;stroke-linecap:round;stroke-linejoin:round;stroke-miterlimit:10;}
</style>

<path class="st1" d="M102.7,196.2L102.7,196.2c-45.4,0-82.2-36.8-82.2-82.2v0c0-45.4,36.8-82.2,82.2-82.2h0
	c45.4,0,82.2,36.8,82.2,82.2v0C184.8,159.4,148,196.2,102.7,196.2z"/>
<g>
	<g>
		<path class="st2" d="M63.1,79.7c19-21.8,52-24.2,73.9-5.2c21.8,19,24.2,52,5.2,73.9c-19,21.8-52,24.2-73.9,5.2
			C46.5,134.6,44.2,101.5,63.1,79.7z"/>
		<path class="st2" d="M124.2,161.7c7.9-4.4,24-28.8-5.1-38.4c-13.4-4.4-60.8,9.8-67.5-21.1"/>
		<path class="st2" d="M142.2,148.4c17.2-19.8-30.2-64.1-83.5-62.8"/>
		<path class="st2" d="M155,113.5c0,0-12.9,7.8-20.9-11.6c-8-19.3-13.8-33.7-35.9-40.1"/>
		<g>
			<path class="st2" d="M68.3,153.3c4.6,4,20.3,3.8,36.4-3.3"/>
		</g>
		<path class="st2" d="M109.5,147.3c0,0,3.1-0.6,7.2-4.3"/>
	</g>
	<g>
		<circle class="st3" cx="136.8" cy="81.1" r="1"/>
		<path class="st4" d="M139,83c0,0,2.2,1.5,2.7,3.9"/>
	</g>
</g>
</svg>
