<?xml version="1.0" encoding="utf-8"?>
<!-- Generator: Adobe Illustrator 23.0.2, SVG Export Plug-In . SVG Version: 6.00 Build 0)  -->
<svg version="1.1" id="Camada_1" xmlns="http://www.w3.org/2000/svg" xmlns:xlink="http://www.w3.org/1999/xlink" x="0px" y="0px"
	 viewBox="0 0 199.6 282" style="enable-background:new 0 0 199.6 282;" xml:space="preserve">
<style type="text/css">
	.st0{fill:#575756;}
	.st1{fill:#F39200;}
	.st2{fill:none;stroke:#FFFFFF;stroke-width:4;stroke-linecap:round;stroke-linejoin:round;stroke-miterlimit:10;}
	.st3{fill:#FFFFFF;}
	.st4{fill:none;stroke:#FFFFFF;stroke-width:2;stroke-linecap:round;stroke-linejoin:round;stroke-miterlimit:10;}
</style>
<g>
	<path class="st0" d="M80.1,233.2v6.2h-1.2v-6.2h-2.2v-1.1h5.7v1.1H80.1z"/>
	<path class="st0" d="M85.3,237.7c0.3,0.4,0.8,0.6,1.4,0.6s1-0.2,1.4-0.6c0.3-0.4,0.5-0.9,0.5-1.6v-4h1.2v4.1c0,1.1-0.3,1.9-0.9,2.4
		c-0.6,0.6-1.3,0.9-2.2,0.9s-1.6-0.3-2.2-0.9c-0.6-0.6-0.9-1.4-0.9-2.4v-4.1h1.2v4C84.8,236.8,84.9,237.3,85.3,237.7z"/>
	<path class="st0" d="M97.4,234.5c0,1.2-0.5,2-1.6,2.3l1.9,2.6h-1.6l-1.7-2.5h-1.6v2.5h-1.2v-7.3h2.7c1.1,0,1.9,0.2,2.4,0.6
		C97.2,233,97.4,233.6,97.4,234.5z M95.8,235.5c0.3-0.2,0.4-0.6,0.4-1c0-0.5-0.1-0.8-0.4-1c-0.3-0.2-0.7-0.3-1.4-0.3h-1.6v2.6h1.5
		C95.1,235.8,95.6,235.7,95.8,235.5z"/>
	<path class="st0" d="M99.2,232.1h1.2v7.3h-1.2V232.1z"/>
	<path class="st0" d="M104.7,233.1c-0.4,0-0.7,0.1-0.9,0.2s-0.3,0.4-0.3,0.7c0,0.3,0.1,0.5,0.3,0.7c0.2,0.2,0.7,0.3,1.5,0.5
		c0.7,0.2,1.3,0.4,1.7,0.8c0.4,0.3,0.6,0.8,0.6,1.4s-0.2,1.2-0.7,1.5c-0.5,0.4-1.1,0.6-1.9,0.6c-1.1,0-2.2-0.4-3-1.2l0.8-0.9
		c0.7,0.6,1.5,1,2.3,1c0.4,0,0.7-0.1,0.9-0.3c0.2-0.2,0.3-0.4,0.3-0.7c0-0.3-0.1-0.5-0.3-0.7c-0.2-0.2-0.6-0.3-1.1-0.4
		c-0.5-0.1-0.9-0.2-1.2-0.4c-0.3-0.1-0.5-0.2-0.7-0.4c-0.4-0.3-0.6-0.8-0.6-1.5s0.2-1.2,0.7-1.6c0.5-0.4,1.1-0.5,1.8-0.5
		c0.5,0,0.9,0.1,1.4,0.2s0.9,0.4,1.2,0.6l-0.7,0.9c-0.2-0.2-0.5-0.4-0.9-0.5C105.4,233.1,105,233.1,104.7,233.1z"/>
	<path class="st0" d="M110.3,239.4H109v-7.3h1.9l2.2,4.6l2.2-4.6h1.9v7.3H116v-5.7l-2.5,5.1h-0.7l-2.5-5.1V239.4z"/>
	<path class="st0" d="M125.4,238.4c-0.7,0.7-1.6,1.1-2.7,1.1c-1.1,0-2-0.4-2.7-1.1c-0.7-0.7-1.1-1.6-1.1-2.7s0.4-2,1.1-2.7
		c0.7-0.7,1.6-1.1,2.7-1.1c1.1,0,2,0.4,2.7,1.1c0.7,0.7,1.1,1.6,1.1,2.7S126.1,237.7,125.4,238.4z M124.5,233.8
		c-0.5-0.5-1.1-0.8-1.8-0.8c-0.7,0-1.3,0.3-1.8,0.8s-0.7,1.1-0.7,1.9s0.2,1.4,0.7,1.9s1.1,0.8,1.8,0.8c0.7,0,1.3-0.3,1.8-0.8
		s0.7-1.1,0.7-1.9S125,234.3,124.5,233.8z"/>
	<path class="st0" d="M44.6,250.9c0.4,0,0.8-0.1,1.1-0.2c0.3-0.1,0.6-0.4,1-0.7l0.8,0.8c-0.8,0.9-1.7,1.3-2.8,1.3
		c-1.1,0-2-0.4-2.7-1.1c-0.7-0.7-1.1-1.6-1.1-2.7c0-1.1,0.4-2,1.1-2.7s1.7-1.1,2.8-1.1s2.1,0.4,2.8,1.3l-0.8,0.9
		c-0.3-0.3-0.7-0.6-1-0.7c-0.3-0.1-0.7-0.2-1.1-0.2c-0.7,0-1.4,0.2-1.9,0.7c-0.5,0.5-0.8,1.1-0.8,1.8c0,0.7,0.2,1.4,0.7,1.9
		C43.3,250.7,43.9,250.9,44.6,250.9z"/>
	<path class="st0" d="M50.6,250.4c0.3,0.4,0.8,0.6,1.4,0.6s1-0.2,1.4-0.6c0.3-0.4,0.5-0.9,0.5-1.6v-4H55v4.1c0,1.1-0.3,1.9-0.9,2.4
		c-0.6,0.6-1.3,0.9-2.2,0.9s-1.6-0.3-2.2-0.9c-0.6-0.6-0.9-1.4-0.9-2.4v-4.1h1.2v4C50.1,249.4,50.3,250,50.6,250.4z"/>
	<path class="st0" d="M57,252v-7.3h1.2v6.1h3.3v1.2H57z"/>
	<path class="st0" d="M64.9,245.9v6.2h-1.2v-6.2h-2.2v-1.1h5.7v1.1H64.9z"/>
	<path class="st0" d="M70.1,250.4c0.3,0.4,0.8,0.6,1.4,0.6s1-0.2,1.4-0.6c0.3-0.4,0.5-0.9,0.5-1.6v-4h1.2v4.1c0,1.1-0.3,1.9-0.9,2.4
		c-0.6,0.6-1.3,0.9-2.2,0.9s-1.6-0.3-2.2-0.9c-0.6-0.6-0.9-1.4-0.9-2.4v-4.1h1.2v4C69.6,249.4,69.7,250,70.1,250.4z"/>
	<path class="st0" d="M82.2,247.1c0,1.2-0.5,2-1.6,2.3l1.9,2.6H81l-1.7-2.5h-1.6v2.5h-1.2v-7.3h2.7c1.1,0,1.9,0.2,2.4,0.6
		C82,245.7,82.2,246.3,82.2,247.1z M80.6,248.1c0.3-0.2,0.4-0.6,0.4-1c0-0.5-0.1-0.8-0.4-1c-0.3-0.2-0.7-0.3-1.4-0.3h-1.6v2.6h1.5
		C79.9,248.5,80.4,248.4,80.6,248.1z"/>
	<path class="st0" d="M85.1,250.4l-0.7,1.7H83l3.2-7.3h1.3l3.2,7.3h-1.3l-0.7-1.7H85.1z M88.2,249.2l-1.3-3l-1.3,3H88.2z"/>
	<path class="st0" d="M99.7,244.7v1.2h-3.9v1.9h3.5v1.1h-3.5v2h4v1.2h-5.2v-7.3H99.7z"/>
	<path class="st0" d="M109.8,245.7c0.7,0.6,1.1,1.5,1.1,2.7s-0.3,2-1,2.7c-0.7,0.7-1.7,1-3.1,1h-2.4v-7.3h2.5
		C108.1,244.7,109.1,245.1,109.8,245.7z M109.6,248.4c0-1.7-1-2.5-2.9-2.5h-1.2v5h1.4c0.9,0,1.6-0.2,2-0.6
		C109.4,249.8,109.6,249.2,109.6,248.4z"/>
	<path class="st0" d="M117.6,244.7v1.2h-3.9v1.9h3.5v1.1h-3.5v2h4v1.2h-5.2v-7.3H117.6z"/>
	<path class="st0" d="M121.5,245.7c-0.4,0-0.7,0.1-0.9,0.2s-0.3,0.4-0.3,0.7c0,0.3,0.1,0.5,0.3,0.7c0.2,0.2,0.7,0.3,1.5,0.5
		c0.7,0.2,1.3,0.4,1.7,0.8c0.4,0.3,0.6,0.8,0.6,1.4s-0.2,1.2-0.7,1.5c-0.5,0.4-1.1,0.6-1.9,0.6c-1.1,0-2.2-0.4-3-1.2l0.8-0.9
		c0.7,0.6,1.5,1,2.3,1c0.4,0,0.7-0.1,0.9-0.3c0.2-0.2,0.3-0.4,0.3-0.7c0-0.3-0.1-0.5-0.3-0.7c-0.2-0.2-0.6-0.3-1.1-0.4
		c-0.5-0.1-0.9-0.2-1.2-0.4c-0.3-0.1-0.5-0.2-0.7-0.4c-0.4-0.3-0.6-0.8-0.6-1.5s0.2-1.2,0.7-1.6c0.5-0.4,1.1-0.5,1.8-0.5
		c0.5,0,0.9,0.1,1.4,0.2s0.9,0.4,1.2,0.6l-0.7,0.9c-0.2-0.2-0.5-0.4-0.9-0.5C122.2,245.8,121.8,245.7,121.5,245.7z"/>
	<path class="st0" d="M130.8,245.4c0.5,0.4,0.8,1.1,0.8,2c0,0.9-0.3,1.5-0.8,1.9c-0.5,0.4-1.3,0.6-2.4,0.6h-1.3v2.1h-1.2v-7.3h2.5
		C129.5,244.7,130.3,245,130.8,245.4z M129.9,248.4c0.2-0.3,0.4-0.6,0.4-1.1c0-0.5-0.2-0.9-0.5-1.1c-0.3-0.2-0.8-0.3-1.5-0.3h-1.3
		v2.9h1.4C129.2,248.8,129.6,248.6,129.9,248.4z"/>
	<path class="st0" d="M139.1,251c-0.7,0.7-1.6,1.1-2.7,1.1c-1.1,0-2-0.4-2.7-1.1c-0.7-0.7-1.1-1.6-1.1-2.7s0.4-2,1.1-2.7
		c0.7-0.7,1.6-1.1,2.7-1.1c1.1,0,2,0.4,2.7,1.1c0.7,0.7,1.1,1.6,1.1,2.7S139.8,250.3,139.1,251z M138.2,246.5
		c-0.5-0.5-1.1-0.8-1.8-0.8c-0.7,0-1.3,0.3-1.8,0.8s-0.7,1.1-0.7,1.9s0.2,1.4,0.7,1.9s1.1,0.8,1.8,0.8c0.7,0,1.3-0.3,1.8-0.8
		s0.7-1.1,0.7-1.9S138.7,247,138.2,246.5z"/>
	<path class="st0" d="M147.6,247.1c0,1.2-0.5,2-1.6,2.3l1.9,2.6h-1.6l-1.7-2.5H143v2.5h-1.2v-7.3h2.7c1.1,0,1.9,0.2,2.4,0.6
		C147.3,245.7,147.6,246.3,147.6,247.1z M145.9,248.1c0.3-0.2,0.4-0.6,0.4-1c0-0.5-0.1-0.8-0.4-1c-0.3-0.2-0.7-0.3-1.4-0.3H143v2.6
		h1.5C145.2,248.5,145.7,248.4,145.9,248.1z"/>
	<path class="st0" d="M152,245.9v6.2h-1.2v-6.2h-2.2v-1.1h5.7v1.1H152z"/>
	<path class="st0" d="M161.4,251c-0.7,0.7-1.6,1.1-2.7,1.1c-1.1,0-2-0.4-2.7-1.1c-0.7-0.7-1.1-1.6-1.1-2.7s0.4-2,1.1-2.7
		c0.7-0.7,1.6-1.1,2.7-1.1c1.1,0,2,0.4,2.7,1.1c0.7,0.7,1.1,1.6,1.1,2.7S162.2,250.3,161.4,251z M160.5,246.5
		c-0.5-0.5-1.1-0.8-1.8-0.8c-0.7,0-1.3,0.3-1.8,0.8s-0.7,1.1-0.7,1.9s0.2,1.4,0.7,1.9s1.1,0.8,1.8,0.8c0.7,0,1.3-0.3,1.8-0.8
		s0.7-1.1,0.7-1.9S161,247,160.5,246.5z"/>
</g>
<path class="st1" d="M102.7,196.2L102.7,196.2c-45.4,0-82.2-36.8-82.2-82.2v0c0-45.4,36.8-82.2,82.2-82.2h0
	c45.4,0,82.2,36.8,82.2,82.2v0C184.8,159.4,148,196.2,102.7,196.2z"/>
<g>
	<g>
		<path class="st2" d="M63.1,79.7c19-21.8,52-24.2,73.9-5.2c21.8,19,24.2,52,5.2,73.9c-19,21.8-52,24.2-73.9,5.2
			C46.5,134.6,44.2,101.5,63.1,79.7z"/>
		<path class="st2" d="M124.2,161.7c7.9-4.4,24-28.8-5.1-38.4c-13.4-4.4-60.8,9.8-67.5-21.1"/>
		<path class="st2" d="M142.2,148.4c17.2-19.8-30.2-64.1-83.5-62.8"/>
		<path class="st2" d="M155,113.5c0,0-12.9,7.8-20.9-11.6c-8-19.3-13.8-33.7-35.9-40.1"/>
		<g>
			<path class="st2" d="M68.3,153.3c4.6,4,20.3,3.8,36.4-3.3"/>
		</g>
		<path class="st2" d="M109.5,147.3c0,0,3.1-0.6,7.2-4.3"/>
	</g>
	<g>
		<circle class="st3" cx="136.8" cy="81.1" r="1"/>
		<path class="st4" d="M139,83c0,0,2.2,1.5,2.7,3.9"/>
	</g>
</g>
</svg>
